<svg width="862" height="452" viewBox="0 0 862 452" fill="none" xmlns="http://www.w3.org/2000/svg">
<rect x="0.5" y="0.5" width="861" height="451" fill="#111F3B" stroke="#293856"/>
<rect x="182" y="44" width="154" height="55" rx="5" fill="#485A68"/>
<rect x="504" y="44" width="154" height="55" rx="5" fill="#485A68"/>
<rect x="666" y="44" width="154" height="55" rx="5" fill="#485A68"/>
<rect x="343" y="44" width="154" height="55" rx="5" fill="#485A68"/>
<rect x="182" y="107" width="639" height="55" rx="5" fill="#4EA793"/>
<rect x="182" y="200" width="639" height="55" rx="5" fill="#C56550"/>
<rect x="182" y="285" width="639" height="55" rx="5" stroke="#369FAB" stroke-width="3"/>
<rect x="182" y="357" width="270" height="55" rx="5" fill="#499785"/>
<rect x="551" y="357" width="270" height="55" rx="5" fill="#B7784A"/>
<path d="M230.404 60.3239C230.411 59.0582 231.165 58.3168 232.264 58.3168C233.358 58.3168 234.016 59.0327 234.009 60.2344V66H236.733V59.7486C236.733 57.4602 235.39 56.054 233.345 56.054C231.887 56.054 230.833 56.7699 230.392 57.9141H230.277V56.1818H227.681V66H230.404V60.3239ZM243.315 66.1918C246.293 66.1918 248.147 64.1527 248.147 61.1293C248.147 58.0866 246.293 56.054 243.315 56.054C240.336 56.054 238.482 58.0866 238.482 61.1293C238.482 64.1527 240.336 66.1918 243.315 66.1918ZM243.328 64.0824C241.953 64.0824 241.25 62.8232 241.25 61.1101C241.25 59.397 241.953 58.1314 243.328 58.1314C244.676 58.1314 245.379 59.397 245.379 61.1101C245.379 62.8232 244.676 64.0824 243.328 64.0824ZM253.536 66.1598C255.121 66.1598 255.945 65.2457 256.323 64.4276H256.438V66H259.122V52.9091H256.406V57.831H256.323C255.958 57.032 255.172 56.054 253.529 56.054C251.375 56.054 249.553 57.7287 249.553 61.1037C249.553 64.3892 251.298 66.1598 253.536 66.1598ZM254.399 63.9929C253.063 63.9929 252.334 62.804 252.334 61.0909C252.334 59.3906 253.05 58.2209 254.399 58.2209C255.722 58.2209 256.463 59.3395 256.463 61.0909C256.463 62.8423 255.709 63.9929 254.399 63.9929ZM265.835 66.1918C268.264 66.1918 269.901 65.0092 270.284 63.1875L267.766 63.0213C267.491 63.7692 266.788 64.1591 265.88 64.1591C264.519 64.1591 263.656 63.2578 263.656 61.794V61.7876H270.342V61.0398C270.342 57.7031 268.322 56.054 265.727 56.054C262.838 56.054 260.965 58.1058 260.965 61.1357C260.965 64.2486 262.812 66.1918 265.835 66.1918ZM263.656 60.1001C263.713 58.9815 264.563 58.0866 265.772 58.0866C266.954 58.0866 267.772 58.9304 267.779 60.1001H263.656ZM273.71 66.1662C274.529 66.1662 275.238 65.4822 275.245 64.6321C275.238 63.7947 274.529 63.1108 273.71 63.1108C272.867 63.1108 272.17 63.7947 272.176 64.6321C272.17 65.4822 272.867 66.1662 273.71 66.1662ZM277.48 56.1818V66.4411C277.48 67.1825 277.167 67.5533 276.291 67.5533C276.176 67.5533 276.074 67.5533 275.933 67.5405V69.669C276.131 69.6754 276.291 69.6818 276.483 69.6818C278.797 69.6818 280.203 68.7614 280.203 66.4858V56.1818H277.48ZM278.835 54.9162C279.647 54.9162 280.312 54.2962 280.312 53.5355C280.312 52.7812 279.647 52.1612 278.835 52.1612C278.03 52.1612 277.365 52.7812 277.365 53.5355C277.365 54.2962 278.03 54.9162 278.835 54.9162ZM290.554 58.9815C290.311 57.1726 288.853 56.054 286.373 56.054C283.861 56.054 282.206 57.2173 282.212 59.1094C282.206 60.5795 283.132 61.532 285.05 61.9155L286.75 62.2543C287.607 62.4268 287.997 62.7401 288.009 63.2322C287.997 63.8139 287.364 64.2294 286.411 64.2294C285.44 64.2294 284.794 63.8139 284.628 63.0149L281.95 63.1555C282.206 65.0348 283.804 66.1918 286.405 66.1918C288.949 66.1918 290.771 64.8942 290.777 62.9574C290.771 61.5384 289.844 60.6882 287.939 60.2983L286.162 59.9403C285.248 59.7422 284.909 59.429 284.916 58.956C284.909 58.3679 285.574 57.9844 286.418 57.9844C287.364 57.9844 287.926 58.5021 288.061 59.1349L290.554 58.9815ZM229.12 88H230.578V86.4915H230.757C231.089 87.0284 231.728 88.2045 233.62 88.2045C236.075 88.2045 237.788 86.2358 237.788 83.1165C237.788 80.0227 236.075 78.054 233.595 78.054C231.677 78.054 231.089 79.2301 230.757 79.7415H230.629V74.9091H229.12V88ZM230.603 83.0909C230.603 80.892 231.575 79.4091 233.416 79.4091C235.333 79.4091 236.279 81.0199 236.279 83.0909C236.279 85.1875 235.308 86.8494 233.416 86.8494C231.6 86.8494 230.603 85.3153 230.603 83.0909ZM240.096 88H241.604V78.1818H240.096V88ZM240.863 76.5455C241.451 76.5455 241.936 76.0852 241.936 75.5227C241.936 74.9602 241.451 74.5 240.863 74.5C240.275 74.5 239.789 74.9602 239.789 75.5227C239.789 76.0852 240.275 76.5455 240.863 76.5455ZM245.876 82.0938C245.876 80.3807 246.937 79.4091 248.381 79.4091C249.781 79.4091 250.631 80.3232 250.631 81.8636V88H252.14V81.7614C252.14 79.2557 250.804 78.054 248.816 78.054C247.333 78.054 246.412 78.7188 245.952 79.7159H245.824V78.1818H244.367V88H245.876V82.0938ZM258.604 88.2045C260.496 88.2045 261.135 87.0284 261.467 86.4915H261.646V88H263.104V74.9091H261.595V79.7415H261.467C261.135 79.2301 260.547 78.054 258.629 78.054C256.149 78.054 254.436 80.0227 254.436 83.1165C254.436 86.2358 256.149 88.2045 258.604 88.2045ZM258.808 86.8494C256.916 86.8494 255.945 85.1875 255.945 83.0909C255.945 81.0199 256.891 79.4091 258.808 79.4091C260.649 79.4091 261.621 80.892 261.621 83.0909C261.621 85.3153 260.624 86.8494 258.808 86.8494ZM266.076 88H267.585V78.1818H266.076V88ZM266.843 76.5455C267.431 76.5455 267.917 76.0852 267.917 75.5227C267.917 74.9602 267.431 74.5 266.843 74.5C266.255 74.5 265.769 74.9602 265.769 75.5227C265.769 76.0852 266.255 76.5455 266.843 76.5455ZM271.856 82.0938C271.856 80.3807 272.917 79.4091 274.362 79.4091C275.762 79.4091 276.612 80.3232 276.612 81.8636V88H278.12V81.7614C278.12 79.2557 276.784 78.054 274.796 78.054C273.313 78.054 272.393 78.7188 271.933 79.7159H271.805V78.1818H270.347V88H271.856V82.0938ZM284.84 91.8864C287.192 91.8864 289.084 90.8125 289.084 88.2812V78.1818H287.627V79.7415H287.473C287.141 79.2301 286.527 78.054 284.61 78.054C282.13 78.054 280.417 80.0227 280.417 83.0398C280.417 86.108 282.206 87.8466 284.584 87.8466C286.502 87.8466 287.115 86.7216 287.448 86.1847H287.576V88.179C287.576 89.8153 286.425 90.5568 284.84 90.5568C283.056 90.5568 282.43 89.6172 282.027 89.0739L280.826 89.9176C281.439 90.9467 282.647 91.8864 284.84 91.8864ZM284.789 86.4915C282.897 86.4915 281.925 85.0597 281.925 83.0142C281.925 81.0199 282.871 79.4091 284.789 79.4091C286.63 79.4091 287.601 80.892 287.601 83.0142C287.601 85.1875 286.604 86.4915 284.789 86.4915Z" fill="white"/>
<path d="M389.947 69.6818H392.67V64.4276H392.753C393.13 65.2457 393.955 66.1598 395.54 66.1598C397.777 66.1598 399.522 64.3892 399.522 61.1037C399.522 57.7287 397.701 56.054 395.546 56.054C393.904 56.054 393.117 57.032 392.753 57.831H392.632V56.1818H389.947V69.6818ZM392.612 61.0909C392.612 59.3395 393.354 58.2209 394.677 58.2209C396.026 58.2209 396.742 59.3906 396.742 61.0909C396.742 62.804 396.013 63.9929 394.677 63.9929C393.367 63.9929 392.612 62.8423 392.612 61.0909ZM402.685 69.6818C404.711 69.6818 405.785 68.6463 406.341 67.0611L410.157 56.1946L407.274 56.1818L405.222 63.392H405.12L403.087 56.1818H400.224L403.746 66.2812L403.586 66.6967C403.228 67.6172 402.544 67.6619 401.585 67.3679L400.972 69.4006C401.362 69.5668 401.994 69.6818 402.685 69.6818ZM416.773 56.1818H414.926V53.8295H412.203V56.1818H410.86V58.2273H412.203V63.3409C412.19 65.2649 413.5 66.2173 415.475 66.1342C416.178 66.1087 416.677 65.968 416.952 65.8786L416.524 63.8523C416.389 63.8778 416.102 63.9418 415.846 63.9418C415.303 63.9418 414.926 63.7372 414.926 62.983V58.2273H416.773V56.1818ZM421.481 60.3239C421.487 59.0582 422.26 58.3168 423.373 58.3168C424.478 58.3168 425.13 59.0263 425.124 60.2344V66H427.847V59.7486C427.853 57.4474 426.498 56.054 424.453 56.054C422.964 56.054 421.966 56.7571 421.519 57.9141H421.404V52.9091H418.758V66H421.481V60.3239ZM434.426 66.1918C437.405 66.1918 439.258 64.1527 439.258 61.1293C439.258 58.0866 437.405 56.054 434.426 56.054C431.447 56.054 429.594 58.0866 429.594 61.1293C429.594 64.1527 431.447 66.1918 434.426 66.1918ZM434.439 64.0824C433.065 64.0824 432.361 62.8232 432.361 61.1101C432.361 59.397 433.065 58.1314 434.439 58.1314C435.788 58.1314 436.491 59.397 436.491 61.1101C436.491 62.8232 435.788 64.0824 434.439 64.0824ZM443.752 60.3239C443.758 59.0582 444.513 58.3168 445.612 58.3168C446.705 58.3168 447.364 59.0327 447.357 60.2344V66H450.08V59.7486C450.08 57.4602 448.738 56.054 446.692 56.054C445.235 56.054 444.18 56.7699 443.739 57.9141H443.624V56.1818H441.029V66H443.752V60.3239ZM390.12 88H391.578V86.4915H391.757C392.089 87.0284 392.728 88.2045 394.62 88.2045C397.075 88.2045 398.788 86.2358 398.788 83.1165C398.788 80.0227 397.075 78.054 394.595 78.054C392.677 78.054 392.089 79.2301 391.757 79.7415H391.629V74.9091H390.12V88ZM391.603 83.0909C391.603 80.892 392.575 79.4091 394.416 79.4091C396.333 79.4091 397.279 81.0199 397.279 83.0909C397.279 85.1875 396.308 86.8494 394.416 86.8494C392.6 86.8494 391.603 85.3153 391.603 83.0909ZM401.096 88H402.604V78.1818H401.096V88ZM401.863 76.5455C402.451 76.5455 402.936 76.0852 402.936 75.5227C402.936 74.9602 402.451 74.5 401.863 74.5C401.275 74.5 400.789 74.9602 400.789 75.5227C400.789 76.0852 401.275 76.5455 401.863 76.5455ZM406.876 82.0938C406.876 80.3807 407.937 79.4091 409.381 79.4091C410.781 79.4091 411.631 80.3232 411.631 81.8636V88H413.14V81.7614C413.14 79.2557 411.804 78.054 409.816 78.054C408.333 78.054 407.412 78.7188 406.952 79.7159H406.824V78.1818H405.367V88H406.876V82.0938ZM419.604 88.2045C421.496 88.2045 422.135 87.0284 422.467 86.4915H422.646V88H424.104V74.9091H422.595V79.7415H422.467C422.135 79.2301 421.547 78.054 419.629 78.054C417.149 78.054 415.436 80.0227 415.436 83.1165C415.436 86.2358 417.149 88.2045 419.604 88.2045ZM419.808 86.8494C417.916 86.8494 416.945 85.1875 416.945 83.0909C416.945 81.0199 417.891 79.4091 419.808 79.4091C421.649 79.4091 422.621 80.892 422.621 83.0909C422.621 85.3153 421.624 86.8494 419.808 86.8494ZM427.076 88H428.585V78.1818H427.076V88ZM427.843 76.5455C428.431 76.5455 428.917 76.0852 428.917 75.5227C428.917 74.9602 428.431 74.5 427.843 74.5C427.255 74.5 426.769 74.9602 426.769 75.5227C426.769 76.0852 427.255 76.5455 427.843 76.5455ZM432.856 82.0938C432.856 80.3807 433.917 79.4091 435.362 79.4091C436.762 79.4091 437.612 80.3232 437.612 81.8636V88H439.12V81.7614C439.12 79.2557 437.784 78.054 435.796 78.054C434.313 78.054 433.393 78.7188 432.933 79.7159H432.805V78.1818H431.347V88H432.856V82.0938ZM445.84 91.8864C448.192 91.8864 450.084 90.8125 450.084 88.2812V78.1818H448.627V79.7415H448.473C448.141 79.2301 447.527 78.054 445.61 78.054C443.13 78.054 441.417 80.0227 441.417 83.0398C441.417 86.108 443.206 87.8466 445.584 87.8466C447.502 87.8466 448.115 86.7216 448.448 86.1847H448.576V88.179C448.576 89.8153 447.425 90.5568 445.84 90.5568C444.056 90.5568 443.43 89.6172 443.027 89.0739L441.826 89.9176C442.439 90.9467 443.647 91.8864 445.84 91.8864ZM445.789 86.4915C443.897 86.4915 442.925 85.0597 442.925 83.0142C442.925 81.0199 443.871 79.4091 445.789 79.4091C447.63 79.4091 448.601 80.892 448.601 83.0142C448.601 85.1875 447.604 86.4915 445.789 86.4915Z" fill="white"/>
<path d="M564.736 57.1818V67.4411C564.736 68.1825 564.423 68.5533 563.547 68.5533C563.432 68.5533 563.33 68.5533 563.189 68.5405V70.669C563.387 70.6754 563.547 70.6818 563.739 70.6818C566.053 70.6818 567.459 69.7614 567.459 67.4858V57.1818H564.736ZM566.091 55.9162C566.903 55.9162 567.568 55.2962 567.568 54.5355C567.568 53.7812 566.903 53.1612 566.091 53.1612C565.286 53.1612 564.621 53.7812 564.621 54.5355C564.621 55.2962 565.286 55.9162 566.091 55.9162ZM572.44 67.1854C573.891 67.1854 574.831 66.5526 575.31 65.6385H575.387V67H577.969V60.3778C577.969 58.0384 575.988 57.054 573.802 57.054C571.449 57.054 569.902 58.179 569.525 59.9688L572.044 60.1733C572.229 59.5213 572.811 59.0419 573.789 59.0419C574.716 59.0419 575.246 59.5085 575.246 60.3139V60.3523C575.246 60.9851 574.575 61.0682 572.868 61.2344C570.925 61.4134 569.18 62.0653 569.18 64.2578C569.18 66.201 570.567 67.1854 572.44 67.1854ZM573.22 65.3061C572.383 65.3061 571.782 64.9162 571.782 64.1683C571.782 63.4013 572.415 63.0241 573.373 62.8899C573.968 62.8068 574.939 62.6662 575.265 62.4489V63.4908C575.265 64.5199 574.415 65.3061 573.22 65.3061ZM588.884 57.1818H586.001L583.968 64.2067H583.866L581.827 57.1818H578.95L582.383 67H585.451L588.884 57.1818ZM592.796 67.1854C594.247 67.1854 595.186 66.5526 595.666 65.6385H595.742V67H598.325V60.3778C598.325 58.0384 596.343 57.054 594.157 57.054C591.805 57.054 590.258 58.179 589.881 59.9688L592.399 60.1733C592.585 59.5213 593.166 59.0419 594.144 59.0419C595.071 59.0419 595.602 59.5085 595.602 60.3139V60.3523C595.602 60.9851 594.93 61.0682 593.224 61.2344C591.281 61.4134 589.536 62.0653 589.536 64.2578C589.536 66.201 590.923 67.1854 592.796 67.1854ZM593.575 65.3061C592.738 65.3061 592.137 64.9162 592.137 64.1683C592.137 63.4013 592.77 63.0241 593.729 62.8899C594.323 62.8068 595.295 62.6662 595.621 62.4489V63.4908C595.621 64.5199 594.771 65.3061 593.575 65.3061ZM551.62 89H553.078V87.4915H553.257C553.589 88.0284 554.228 89.2045 556.12 89.2045C558.575 89.2045 560.288 87.2358 560.288 84.1165C560.288 81.0227 558.575 79.054 556.095 79.054C554.177 79.054 553.589 80.2301 553.257 80.7415H553.129V75.9091H551.62V89ZM553.103 84.0909C553.103 81.892 554.075 80.4091 555.916 80.4091C557.833 80.4091 558.779 82.0199 558.779 84.0909C558.779 86.1875 557.808 87.8494 555.916 87.8494C554.1 87.8494 553.103 86.3153 553.103 84.0909ZM562.596 89H564.104V79.1818H562.596V89ZM563.363 77.5455C563.951 77.5455 564.436 77.0852 564.436 76.5227C564.436 75.9602 563.951 75.5 563.363 75.5C562.775 75.5 562.289 75.9602 562.289 76.5227C562.289 77.0852 562.775 77.5455 563.363 77.5455ZM568.376 83.0938C568.376 81.3807 569.437 80.4091 570.881 80.4091C572.281 80.4091 573.131 81.3232 573.131 82.8636V89H574.64V82.7614C574.64 80.2557 573.304 79.054 571.316 79.054C569.833 79.054 568.912 79.7188 568.452 80.7159H568.324V79.1818H566.867V89H568.376V83.0938ZM581.104 89.2045C582.996 89.2045 583.635 88.0284 583.967 87.4915H584.146V89H585.604V75.9091H584.095V80.7415H583.967C583.635 80.2301 583.047 79.054 581.129 79.054C578.649 79.054 576.936 81.0227 576.936 84.1165C576.936 87.2358 578.649 89.2045 581.104 89.2045ZM581.308 87.8494C579.416 87.8494 578.445 86.1875 578.445 84.0909C578.445 82.0199 579.391 80.4091 581.308 80.4091C583.149 80.4091 584.121 81.892 584.121 84.0909C584.121 86.3153 583.124 87.8494 581.308 87.8494ZM588.576 89H590.085V79.1818H588.576V89ZM589.343 77.5455C589.931 77.5455 590.417 77.0852 590.417 76.5227C590.417 75.9602 589.931 75.5 589.343 75.5C588.755 75.5 588.269 75.9602 588.269 76.5227C588.269 77.0852 588.755 77.5455 589.343 77.5455ZM594.356 83.0938C594.356 81.3807 595.417 80.4091 596.862 80.4091C598.262 80.4091 599.112 81.3232 599.112 82.8636V89H600.62V82.7614C600.62 80.2557 599.284 79.054 597.296 79.054C595.813 79.054 594.893 79.7188 594.433 80.7159H594.305V79.1818H592.847V89H594.356V83.0938ZM607.34 92.8864C609.692 92.8864 611.584 91.8125 611.584 89.2812V79.1818H610.127V80.7415H609.973C609.641 80.2301 609.027 79.054 607.11 79.054C604.63 79.054 602.917 81.0227 602.917 84.0398C602.917 87.108 604.706 88.8466 607.084 88.8466C609.002 88.8466 609.615 87.7216 609.948 87.1847H610.076V89.179C610.076 90.8153 608.925 91.5568 607.34 91.5568C605.556 91.5568 604.93 90.6172 604.527 90.0739L603.326 90.9176C603.939 91.9467 605.147 92.8864 607.34 92.8864ZM607.289 87.4915C605.397 87.4915 604.425 86.0597 604.425 84.0142C604.425 82.0199 605.371 80.4091 607.289 80.4091C609.13 80.4091 610.101 81.892 610.101 84.0142C610.101 86.1875 609.104 87.4915 607.289 87.4915Z" fill="white"/>
<path d="M720.885 67H723.761L725.449 60.8253H725.57L727.258 67H730.14L732.806 57.1818H730.057L728.562 63.7401H728.479L726.868 57.1818H724.164L722.579 63.7784H722.489L720.968 57.1818H718.213L720.885 67ZM737.058 67.1854C738.509 67.1854 739.449 66.5526 739.928 65.6385H740.005V67H742.587V60.3778C742.587 58.0384 740.606 57.054 738.42 57.054C736.067 57.054 734.521 58.179 734.143 59.9688L736.662 60.1733C736.847 59.5213 737.429 59.0419 738.407 59.0419C739.334 59.0419 739.864 59.5085 739.864 60.3139V60.3523C739.864 60.9851 739.193 61.0682 737.487 61.2344C735.543 61.4134 733.798 62.0653 733.798 64.2578C733.798 66.201 735.185 67.1854 737.058 67.1854ZM737.838 65.3061C737.001 65.3061 736.4 64.9162 736.4 64.1683C736.4 63.4013 737.033 63.0241 737.991 62.8899C738.586 62.8068 739.558 62.6662 739.884 62.4489V63.4908C739.884 64.5199 739.033 65.3061 737.838 65.3061ZM752.869 59.9815C752.626 58.1726 751.169 57.054 748.689 57.054C746.176 57.054 744.521 58.2173 744.527 60.1094C744.521 61.5795 745.448 62.532 747.365 62.9155L749.066 63.2543C749.922 63.4268 750.312 63.7401 750.325 64.2322C750.312 64.8139 749.679 65.2294 748.727 65.2294C747.755 65.2294 747.11 64.8139 746.944 64.0149L744.265 64.1555C744.521 66.0348 746.119 67.1918 748.721 67.1918C751.265 67.1918 753.086 65.8942 753.093 63.9574C753.086 62.5384 752.159 61.6882 750.255 61.2983L748.478 60.9403C747.564 60.7422 747.225 60.429 747.231 59.956C747.225 59.3679 747.89 58.9844 748.733 58.9844C749.679 58.9844 750.242 59.5021 750.376 60.1349L752.869 59.9815ZM754.807 67H757.53V61.1065C757.53 60.0199 758.221 59.2976 759.128 59.2976C760.023 59.2976 760.624 59.9112 760.624 60.8764V67H763.264V61.0043C763.264 59.9879 763.846 59.2976 764.836 59.2976C765.706 59.2976 766.358 59.8409 766.358 60.9339V67H769.074V60.397C769.074 58.2685 767.809 57.054 765.981 57.054C764.542 57.054 763.424 57.7891 763.021 58.9141H762.919C762.606 57.7763 761.602 57.054 760.253 57.054C758.93 57.054 757.927 57.7571 757.518 58.9141H757.403V57.1818H754.807V67ZM714.12 89H715.578V87.4915H715.757C716.089 88.0284 716.728 89.2045 718.62 89.2045C721.075 89.2045 722.788 87.2358 722.788 84.1165C722.788 81.0227 721.075 79.054 718.595 79.054C716.677 79.054 716.089 80.2301 715.757 80.7415H715.629V75.9091H714.12V89ZM715.603 84.0909C715.603 81.892 716.575 80.4091 718.416 80.4091C720.333 80.4091 721.279 82.0199 721.279 84.0909C721.279 86.1875 720.308 87.8494 718.416 87.8494C716.6 87.8494 715.603 86.3153 715.603 84.0909ZM725.096 89H726.604V79.1818H725.096V89ZM725.863 77.5455C726.451 77.5455 726.936 77.0852 726.936 76.5227C726.936 75.9602 726.451 75.5 725.863 75.5C725.275 75.5 724.789 75.9602 724.789 76.5227C724.789 77.0852 725.275 77.5455 725.863 77.5455ZM730.876 83.0938C730.876 81.3807 731.937 80.4091 733.381 80.4091C734.781 80.4091 735.631 81.3232 735.631 82.8636V89H737.14V82.7614C737.14 80.2557 735.804 79.054 733.816 79.054C732.333 79.054 731.412 79.7188 730.952 80.7159H730.824V79.1818H729.367V89H730.876V83.0938ZM743.604 89.2045C745.496 89.2045 746.135 88.0284 746.467 87.4915H746.646V89H748.104V75.9091H746.595V80.7415H746.467C746.135 80.2301 745.547 79.054 743.629 79.054C741.149 79.054 739.436 81.0227 739.436 84.1165C739.436 87.2358 741.149 89.2045 743.604 89.2045ZM743.808 87.8494C741.916 87.8494 740.945 86.1875 740.945 84.0909C740.945 82.0199 741.891 80.4091 743.808 80.4091C745.649 80.4091 746.621 81.892 746.621 84.0909C746.621 86.3153 745.624 87.8494 743.808 87.8494ZM751.076 89H752.585V79.1818H751.076V89ZM751.843 77.5455C752.431 77.5455 752.917 77.0852 752.917 76.5227C752.917 75.9602 752.431 75.5 751.843 75.5C751.255 75.5 750.769 75.9602 750.769 76.5227C750.769 77.0852 751.255 77.5455 751.843 77.5455ZM756.856 83.0938C756.856 81.3807 757.917 80.4091 759.362 80.4091C760.762 80.4091 761.612 81.3232 761.612 82.8636V89H763.12V82.7614C763.12 80.2557 761.784 79.054 759.796 79.054C758.313 79.054 757.393 79.7188 756.933 80.7159H756.805V79.1818H755.347V89H756.856V83.0938ZM769.84 92.8864C772.192 92.8864 774.084 91.8125 774.084 89.2812V79.1818H772.627V80.7415H772.473C772.141 80.2301 771.527 79.054 769.61 79.054C767.13 79.054 765.417 81.0227 765.417 84.0398C765.417 87.108 767.206 88.8466 769.584 88.8466C771.502 88.8466 772.115 87.7216 772.448 87.1847H772.576V89.179C772.576 90.8153 771.425 91.5568 769.84 91.5568C768.056 91.5568 767.43 90.6172 767.027 90.0739L765.826 90.9176C766.439 91.9467 767.647 92.8864 769.84 92.8864ZM769.789 87.4915C767.897 87.4915 766.925 86.0597 766.925 84.0142C766.925 82.0199 767.871 80.4091 769.789 80.4091C771.63 80.4091 772.601 81.892 772.601 84.0142C772.601 86.1875 771.604 87.4915 769.789 87.4915Z" fill="white"/>
<path d="M452.17 294.909H449.415V303.142H449.3L443.65 294.909H441.221V308H443.989V299.761H444.084L449.78 308H452.17V294.909ZM458.842 308.192C461.821 308.192 463.674 306.153 463.674 303.129C463.674 300.087 461.821 298.054 458.842 298.054C455.863 298.054 454.01 300.087 454.01 303.129C454.01 306.153 455.863 308.192 458.842 308.192ZM458.855 306.082C457.481 306.082 456.777 304.823 456.777 303.11C456.777 301.397 457.481 300.131 458.855 300.131C460.204 300.131 460.907 301.397 460.907 303.11C460.907 304.823 460.204 306.082 458.855 306.082ZM469.063 308.16C470.648 308.16 471.473 307.246 471.85 306.428H471.965V308H474.65V294.909H471.933V299.831H471.85C471.486 299.032 470.699 298.054 469.057 298.054C466.902 298.054 465.081 299.729 465.081 303.104C465.081 306.389 466.826 308.16 469.063 308.16ZM469.926 305.993C468.59 305.993 467.861 304.804 467.861 303.091C467.861 301.391 468.577 300.221 469.926 300.221C471.249 300.221 471.991 301.339 471.991 303.091C471.991 304.842 471.236 305.993 469.926 305.993ZM481.363 308.192C483.792 308.192 485.428 307.009 485.812 305.188L483.293 305.021C483.018 305.769 482.315 306.159 481.408 306.159C480.046 306.159 479.183 305.258 479.183 303.794V303.788H485.869V303.04C485.869 299.703 483.849 298.054 481.254 298.054C478.365 298.054 476.492 300.106 476.492 303.136C476.492 306.249 478.339 308.192 481.363 308.192ZM479.183 302.1C479.241 300.982 480.091 300.087 481.299 300.087C482.481 300.087 483.3 300.93 483.306 302.1H479.183ZM498.965 298.674H501.618C501.579 296.341 499.662 294.73 496.747 294.73C493.877 294.73 491.774 296.315 491.787 298.693C491.78 300.624 493.142 301.729 495.353 302.26L496.779 302.618C498.204 302.963 498.997 303.372 499.003 304.254C498.997 305.213 498.089 305.865 496.683 305.865C495.245 305.865 494.209 305.2 494.12 303.89H491.441C491.512 306.722 493.538 308.185 496.715 308.185C499.911 308.185 501.79 306.658 501.797 304.261C501.79 302.081 500.147 300.924 497.872 300.413L496.696 300.131C495.558 299.869 494.606 299.447 494.625 298.508C494.625 297.664 495.373 297.044 496.728 297.044C498.051 297.044 498.863 297.645 498.965 298.674ZM508.043 308.192C511.022 308.192 512.876 306.153 512.876 303.129C512.876 300.087 511.022 298.054 508.043 298.054C505.065 298.054 503.211 300.087 503.211 303.129C503.211 306.153 505.065 308.192 508.043 308.192ZM508.056 306.082C506.682 306.082 505.979 304.823 505.979 303.11C505.979 301.397 506.682 300.131 508.056 300.131C509.405 300.131 510.108 301.397 510.108 303.11C510.108 304.823 509.405 306.082 508.056 306.082ZM519.926 298.182H517.976V297.523C517.976 296.859 518.245 296.469 519.044 296.469C519.37 296.469 519.702 296.539 519.92 296.609L520.399 294.564C520.06 294.462 519.312 294.295 518.475 294.295C516.628 294.295 515.253 295.337 515.253 297.472V298.182H513.866V300.227H515.253V308H517.976V300.227H519.926V298.182ZM526.812 298.182H524.965V295.83H522.242V298.182H520.899V300.227H522.242V305.341C522.229 307.265 523.539 308.217 525.514 308.134C526.217 308.109 526.716 307.968 526.991 307.879L526.563 305.852C526.428 305.878 526.141 305.942 525.885 305.942C525.342 305.942 524.965 305.737 524.965 304.983V300.227H526.812V298.182ZM530.522 308H533.399L535.086 301.825H535.208L536.895 308H539.778L542.444 298.182H539.695L538.199 304.74H538.116L536.505 298.182H533.802L532.216 304.778H532.127L530.606 298.182H527.851L530.522 308ZM546.696 308.185C548.147 308.185 549.087 307.553 549.566 306.638H549.643V308H552.225V301.378C552.225 299.038 550.244 298.054 548.057 298.054C545.705 298.054 544.158 299.179 543.781 300.969L546.3 301.173C546.485 300.521 547.067 300.042 548.045 300.042C548.972 300.042 549.502 300.509 549.502 301.314V301.352C549.502 301.985 548.831 302.068 547.124 302.234C545.181 302.413 543.436 303.065 543.436 305.258C543.436 307.201 544.823 308.185 546.696 308.185ZM547.476 306.306C546.638 306.306 546.038 305.916 546.038 305.168C546.038 304.401 546.67 304.024 547.629 303.89C548.224 303.807 549.195 303.666 549.521 303.449V304.491C549.521 305.52 548.671 306.306 547.476 306.306ZM554.338 308H557.061V302.445C557.061 301.237 557.943 300.406 559.144 300.406C559.522 300.406 560.039 300.47 560.295 300.553V298.137C560.052 298.08 559.713 298.041 559.438 298.041C558.339 298.041 557.438 298.68 557.08 299.895H556.978V298.182H554.338V308ZM565.72 308.192C568.149 308.192 569.786 307.009 570.169 305.188L567.651 305.021C567.376 305.769 566.673 306.159 565.765 306.159C564.403 306.159 563.541 305.258 563.541 303.794V303.788H570.227V303.04C570.227 299.703 568.207 298.054 565.612 298.054C562.722 298.054 560.85 300.106 560.85 303.136C560.85 306.249 562.697 308.192 565.72 308.192ZM563.541 302.1C563.598 300.982 564.448 300.087 565.656 300.087C566.839 300.087 567.657 300.93 567.663 302.1H563.541ZM442.548 331.636H446.332V330.384H443.98V316.526H446.332V315.273H442.548V331.636ZM453.595 330H455.18V324.145H462.16V330H463.746V316.909H462.16V322.739H455.18V316.909H453.595V330ZM470.703 330.205C473.362 330.205 475.152 328.185 475.152 325.142C475.152 322.074 473.362 320.054 470.703 320.054C468.044 320.054 466.254 322.074 466.254 325.142C466.254 328.185 468.044 330.205 470.703 330.205ZM470.703 328.849C468.683 328.849 467.763 327.111 467.763 325.142C467.763 323.173 468.683 321.409 470.703 321.409C472.723 321.409 473.644 323.173 473.644 325.142C473.644 327.111 472.723 328.849 470.703 328.849ZM477.455 330H478.963V323.787C478.963 322.457 480.012 321.486 481.444 321.486C481.846 321.486 482.262 321.562 482.364 321.588V320.054C482.191 320.041 481.795 320.028 481.571 320.028C480.395 320.028 479.373 320.693 479.015 321.665H478.912V320.182H477.455V330ZM485.661 324.094C485.661 322.381 486.722 321.409 488.166 321.409C489.566 321.409 490.416 322.323 490.416 323.864V330H491.925V323.761C491.925 321.256 490.589 320.054 488.601 320.054C487.118 320.054 486.198 320.719 485.737 321.716H485.61V320.182H484.152V330H485.661V324.094ZM498.798 330.205C500.792 330.205 502.25 329.207 502.71 327.724L501.252 327.315C500.869 328.338 499.98 328.849 498.798 328.849C497.027 328.849 495.806 327.705 495.736 325.602H502.863V324.963C502.863 321.307 500.69 320.054 498.645 320.054C495.985 320.054 494.221 322.151 494.221 325.168C494.221 328.185 495.96 330.205 498.798 330.205ZM495.736 324.298C495.838 322.771 496.919 321.409 498.645 321.409C500.281 321.409 501.329 322.636 501.329 324.298H495.736ZM509.428 320.182H507.331V317.83H505.823V320.182H504.34V321.46H505.823V327.597C505.823 329.31 507.203 330.128 508.482 330.128C509.044 330.128 509.402 330.026 509.607 329.949L509.3 328.594C509.172 328.619 508.968 328.67 508.635 328.67C507.971 328.67 507.331 328.466 507.331 327.188V321.46H509.428V320.182ZM518.958 312.69H517.68V334.219H518.958V312.69ZM527.915 330H532.645C535.739 330 537.018 328.491 537.018 326.523C537.018 324.452 535.586 323.327 534.384 323.25V323.122C535.509 322.815 536.506 322.074 536.506 320.386C536.506 318.469 535.228 316.909 532.492 316.909H527.915V330ZM529.501 328.594V324.043H532.722C534.435 324.043 535.509 325.193 535.509 326.523C535.509 327.673 534.716 328.594 532.645 328.594H529.501ZM529.501 322.662V318.315H532.492C534.231 318.315 534.998 319.236 534.998 320.386C534.998 321.767 533.873 322.662 532.441 322.662H529.501ZM543.534 330.205C545.529 330.205 546.986 329.207 547.446 327.724L545.989 327.315C545.605 328.338 544.717 328.849 543.534 328.849C541.764 328.849 540.543 327.705 540.472 325.602H547.6V324.963C547.6 321.307 545.426 320.054 543.381 320.054C540.722 320.054 538.958 322.151 538.958 325.168C538.958 328.185 540.696 330.205 543.534 330.205ZM540.472 324.298C540.575 322.771 541.655 321.409 543.381 321.409C545.017 321.409 546.066 322.636 546.066 324.298H540.472ZM554.011 330.205C556.005 330.205 557.463 329.207 557.923 327.724L556.465 327.315C556.082 328.338 555.193 328.849 554.011 328.849C552.24 328.849 551.019 327.705 550.949 325.602H558.076V324.963C558.076 321.307 555.903 320.054 553.857 320.054C551.198 320.054 549.434 322.151 549.434 325.168C549.434 328.185 551.173 330.205 554.011 330.205ZM550.949 324.298C551.051 322.771 552.132 321.409 553.857 321.409C555.494 321.409 556.542 322.636 556.542 324.298H550.949ZM568.45 316.295H564.666V317.548H567.019V331.406H564.666V332.659H568.45V316.295Z" fill="#369FAB"/>
<path d="M282.155 377.909V391H284.84V382.447H284.949L288.336 390.936H290.165L293.552 382.479H293.661V391H296.346V377.909H292.932L289.327 386.705H289.174L285.569 377.909H282.155ZM301.375 391.185C302.826 391.185 303.765 390.553 304.245 389.638H304.321V391H306.904V384.378C306.904 382.038 304.922 381.054 302.736 381.054C300.384 381.054 298.837 382.179 298.46 383.969L300.978 384.173C301.164 383.521 301.745 383.042 302.723 383.042C303.65 383.042 304.181 383.509 304.181 384.314V384.352C304.181 384.985 303.51 385.068 301.803 385.234C299.86 385.413 298.115 386.065 298.115 388.258C298.115 390.201 299.502 391.185 301.375 391.185ZM302.154 389.306C301.317 389.306 300.716 388.916 300.716 388.168C300.716 387.401 301.349 387.024 302.308 386.89C302.902 386.807 303.874 386.666 304.2 386.449V387.491C304.2 388.52 303.35 389.306 302.154 389.306ZM309.016 391H311.739V381.182H309.016V391ZM310.384 379.916C311.196 379.916 311.861 379.296 311.861 378.536C311.861 377.781 311.196 377.161 310.384 377.161C309.579 377.161 308.914 377.781 308.914 378.536C308.914 379.296 309.579 379.916 310.384 379.916ZM316.644 385.324C316.65 384.058 317.404 383.317 318.504 383.317C319.597 383.317 320.255 384.033 320.249 385.234V391H322.972V384.749C322.972 382.46 321.629 381.054 319.584 381.054C318.127 381.054 317.072 381.77 316.631 382.914H316.516V381.182H313.921V391H316.644V385.324ZM327.841 385.324C327.847 384.058 328.602 383.317 329.701 383.317C330.794 383.317 331.452 384.033 331.446 385.234V391H334.169V384.749C334.169 382.46 332.827 381.054 330.781 381.054C329.324 381.054 328.269 381.77 327.828 382.914H327.713V381.182H325.118V391H327.841V385.324ZM340.79 391.192C343.219 391.192 344.855 390.009 345.238 388.188L342.72 388.021C342.445 388.769 341.742 389.159 340.834 389.159C339.473 389.159 338.61 388.258 338.61 386.794V386.788H345.296V386.04C345.296 382.703 343.276 381.054 340.681 381.054C337.792 381.054 335.919 383.106 335.919 386.136C335.919 389.249 337.766 391.192 340.79 391.192ZM338.61 385.1C338.667 383.982 339.518 383.087 340.726 383.087C341.908 383.087 342.726 383.93 342.733 385.1H338.61ZM352.295 381.182H350.448V378.83H347.725V381.182H346.383V383.227H347.725V388.341C347.712 390.265 349.023 391.217 350.998 391.134C351.701 391.109 352.199 390.968 352.474 390.879L352.046 388.852C351.912 388.878 351.624 388.942 351.368 388.942C350.825 388.942 350.448 388.737 350.448 387.983V383.227H352.295V381.182Z" fill="white"/>
<path d="M660.243 391C664.232 391 666.648 388.533 666.648 384.442C666.648 380.364 664.232 377.909 660.282 377.909H655.603V391H660.243ZM658.37 388.629V380.281H660.135C662.589 380.281 663.887 381.533 663.887 384.442C663.887 387.363 662.589 388.629 660.128 388.629H658.37ZM673.122 391.192C675.551 391.192 677.187 390.009 677.57 388.188L675.052 388.021C674.777 388.769 674.074 389.159 673.166 389.159C671.805 389.159 670.942 388.258 670.942 386.794V386.788H677.628V386.04C677.628 382.703 675.608 381.054 673.013 381.054C670.124 381.054 668.251 383.106 668.251 386.136C668.251 389.249 670.098 391.192 673.122 391.192ZM670.942 385.1C670.999 383.982 671.85 383.087 673.058 383.087C674.24 383.087 675.058 383.93 675.065 385.1H670.942ZM688.277 381.182H685.394L683.362 388.207H683.259L681.22 381.182H678.344L681.776 391H684.845L688.277 381.182ZM692.394 385.324C692.4 384.058 693.154 383.317 694.254 383.317C695.347 383.317 696.005 384.033 695.999 385.234V391H698.722V384.749C698.722 382.46 697.379 381.054 695.334 381.054C693.877 381.054 692.822 381.77 692.381 382.914H692.266V381.182H689.671V391H692.394V385.324ZM705.342 391.192C707.771 391.192 709.408 390.009 709.791 388.188L707.273 388.021C706.998 388.769 706.295 389.159 705.387 389.159C704.026 389.159 703.163 388.258 703.163 386.794V386.788H709.849V386.04C709.849 382.703 707.829 381.054 705.234 381.054C702.344 381.054 700.472 383.106 700.472 386.136C700.472 389.249 702.319 391.192 705.342 391.192ZM703.163 385.1C703.22 383.982 704.07 383.087 705.278 383.087C706.461 383.087 707.279 383.93 707.286 385.1H703.163ZM716.848 381.182H715.001V378.83H712.278V381.182H710.935V383.227H712.278V388.341C712.265 390.265 713.575 391.217 715.55 391.134C716.254 391.109 716.752 390.968 717.027 390.879L716.599 388.852C716.464 388.878 716.177 388.942 715.921 388.942C715.378 388.942 715.001 388.737 715.001 387.983V383.227H716.848V381.182Z" fill="white"/>
<path d="M478.479 130H481.202V120.182H478.479V130ZM479.847 118.916C480.659 118.916 481.324 118.296 481.324 117.536C481.324 116.781 480.659 116.161 479.847 116.161C479.042 116.161 478.377 116.781 478.377 117.536C478.377 118.296 479.042 118.916 479.847 118.916ZM487.82 130.192C490.798 130.192 492.652 128.153 492.652 125.129C492.652 122.087 490.798 120.054 487.82 120.054C484.841 120.054 482.987 122.087 482.987 125.129C482.987 128.153 484.841 130.192 487.82 130.192ZM487.832 128.082C486.458 128.082 485.755 126.823 485.755 125.11C485.755 123.397 486.458 122.131 487.832 122.131C489.181 122.131 489.884 123.397 489.884 125.11C489.884 126.823 489.181 128.082 487.832 128.082ZM499.645 120.182H497.798V117.83H495.075V120.182H493.732V122.227H495.075V127.341C495.062 129.265 496.372 130.217 498.347 130.134C499.05 130.109 499.549 129.968 499.824 129.879L499.396 127.852C499.261 127.878 498.974 127.942 498.718 127.942C498.175 127.942 497.798 127.737 497.798 126.983V122.227H499.645V120.182ZM504.218 130.185C505.669 130.185 506.609 129.553 507.088 128.638H507.165V130H509.748V123.378C509.748 121.038 507.766 120.054 505.58 120.054C503.228 120.054 501.681 121.179 501.304 122.969L503.822 123.173C504.007 122.521 504.589 122.042 505.567 122.042C506.494 122.042 507.025 122.509 507.025 123.314V123.352C507.025 123.985 506.353 124.068 504.647 124.234C502.703 124.413 500.958 125.065 500.958 127.258C500.958 129.201 502.346 130.185 504.218 130.185ZM504.998 128.306C504.161 128.306 503.56 127.916 503.56 127.168C503.56 126.401 504.193 126.024 505.152 125.89C505.746 125.807 506.718 125.666 507.044 125.449V126.491C507.044 127.52 506.194 128.306 504.998 128.306ZM513.452 130.166C514.27 130.166 514.979 129.482 514.986 128.632C514.979 127.795 514.27 127.111 513.452 127.111C512.608 127.111 511.911 127.795 511.918 128.632C511.911 129.482 512.608 130.166 513.452 130.166ZM517.221 130H519.944V124.445C519.944 123.237 520.827 122.406 522.028 122.406C522.405 122.406 522.923 122.47 523.179 122.553V120.137C522.936 120.08 522.597 120.041 522.322 120.041C521.223 120.041 520.322 120.68 519.964 121.895H519.861V120.182H517.221V130ZM532.756 122.982C532.513 121.173 531.055 120.054 528.575 120.054C526.063 120.054 524.408 121.217 524.414 123.109C524.408 124.58 525.335 125.532 527.252 125.915L528.952 126.254C529.809 126.427 530.199 126.74 530.212 127.232C530.199 127.814 529.566 128.229 528.614 128.229C527.642 128.229 526.996 127.814 526.83 127.015L524.152 127.156C524.408 129.035 526.006 130.192 528.607 130.192C531.151 130.192 532.973 128.894 532.979 126.957C532.973 125.538 532.046 124.688 530.141 124.298L528.364 123.94C527.45 123.742 527.112 123.429 527.118 122.956C527.112 122.368 527.776 121.984 528.62 121.984C529.566 121.984 530.129 122.502 530.263 123.135L532.756 122.982ZM417.912 154.659H421.696V153.406H419.344V139.548H421.696V138.295H417.912V154.659ZM427.47 152.205C430.129 152.205 431.919 150.185 431.919 147.142C431.919 144.074 430.129 142.054 427.47 142.054C424.811 142.054 423.021 144.074 423.021 147.142C423.021 150.185 424.811 152.205 427.47 152.205ZM427.47 150.849C425.45 150.849 424.53 149.111 424.53 147.142C424.53 145.173 425.45 143.409 427.47 143.409C429.49 143.409 430.41 145.173 430.41 147.142C430.41 149.111 429.49 150.849 427.47 150.849ZM438.594 142.182H436.395V141.185C436.395 140.213 436.804 139.702 437.801 139.702C438.236 139.702 438.491 139.804 438.645 139.855L439.079 138.551C438.849 138.449 438.389 138.295 437.648 138.295C436.241 138.295 434.886 139.139 434.886 140.827V142.182H433.301V143.46H434.886V152H436.395V143.46H438.594V142.182ZM445.08 142.182H442.881V141.185C442.881 140.213 443.29 139.702 444.287 139.702C444.722 139.702 444.978 139.804 445.131 139.855L445.566 138.551C445.336 138.449 444.875 138.295 444.134 138.295C442.728 138.295 441.373 139.139 441.373 140.827V142.182H439.787V143.46H441.373V152H442.881V143.46H445.08V142.182ZM447.194 152H448.703V142.182H447.194V152ZM447.961 140.545C448.549 140.545 449.035 140.085 449.035 139.523C449.035 138.96 448.549 138.5 447.961 138.5C447.373 138.5 446.887 138.96 446.887 139.523C446.887 140.085 447.373 140.545 447.961 140.545ZM455.454 152.205C457.628 152.205 459.059 150.875 459.315 149.136H457.807C457.525 150.21 456.63 150.849 455.454 150.849C453.665 150.849 452.514 149.366 452.514 147.091C452.514 144.866 453.69 143.409 455.454 143.409C456.784 143.409 457.576 144.227 457.807 145.122H459.315C459.059 143.281 457.5 142.054 455.429 142.054C452.77 142.054 451.005 144.151 451.005 147.142C451.005 150.082 452.693 152.205 455.454 152.205ZM461.52 152H463.029V142.182H461.52V152ZM462.287 140.545C462.875 140.545 463.361 140.085 463.361 139.523C463.361 138.96 462.875 138.5 462.287 138.5C461.699 138.5 461.214 138.96 461.214 139.523C461.214 140.085 461.699 140.545 462.287 140.545ZM468.681 152.23C470.394 152.23 471.289 151.31 471.596 150.67H471.672V152H473.181V145.531C473.181 142.412 470.803 142.054 469.55 142.054C468.067 142.054 466.38 142.565 465.613 144.355L467.045 144.866C467.377 144.151 468.163 143.384 469.601 143.384C470.989 143.384 471.672 144.119 471.672 145.378V145.429C471.672 146.158 470.931 146.094 469.141 146.324C467.32 146.56 465.332 146.963 465.332 149.213C465.332 151.131 466.815 152.23 468.681 152.23ZM468.911 150.875C467.709 150.875 466.84 150.338 466.84 149.29C466.84 148.139 467.888 147.781 469.065 147.628C469.704 147.551 471.417 147.372 471.672 147.065V148.446C471.672 149.673 470.701 150.875 468.911 150.875ZM477.443 138.909H475.934V152H477.443V138.909ZM489.257 152.205C491.43 152.205 492.862 150.875 493.118 149.136H491.609C491.328 150.21 490.433 150.849 489.257 150.849C487.467 150.849 486.317 149.366 486.317 147.091C486.317 144.866 487.493 143.409 489.257 143.409C490.587 143.409 491.379 144.227 491.609 145.122H493.118C492.862 143.281 491.302 142.054 489.231 142.054C486.572 142.054 484.808 144.151 484.808 147.142C484.808 150.082 486.496 152.205 489.257 152.205ZM496.832 138.909H495.323V152H496.832V138.909ZM499.595 152H501.103V142.182H499.595V152ZM500.362 140.545C500.95 140.545 501.435 140.085 501.435 139.523C501.435 138.96 500.95 138.5 500.362 138.5C499.774 138.5 499.288 138.96 499.288 139.523C499.288 140.085 499.774 140.545 500.362 140.545ZM507.983 152.205C509.977 152.205 511.434 151.207 511.894 149.724L510.437 149.315C510.054 150.338 509.165 150.849 507.983 150.849C506.212 150.849 504.991 149.705 504.921 147.602H512.048V146.963C512.048 143.307 509.875 142.054 507.829 142.054C505.17 142.054 503.406 144.151 503.406 147.168C503.406 150.185 505.144 152.205 507.983 152.205ZM504.921 146.298C505.023 144.771 506.103 143.409 507.829 143.409C509.465 143.409 510.514 144.636 510.514 146.298H504.921ZM515.851 146.094C515.851 144.381 516.912 143.409 518.357 143.409C519.757 143.409 520.607 144.323 520.607 145.864V152H522.115V145.761C522.115 143.256 520.779 142.054 518.791 142.054C517.309 142.054 516.388 142.719 515.928 143.716H515.8V142.182H514.343V152H515.851V146.094ZM529.142 142.182H527.045V139.83H525.537V142.182H524.054V143.46H525.537V149.597C525.537 151.31 526.917 152.128 528.196 152.128C528.758 152.128 529.116 152.026 529.321 151.949L529.014 150.594C528.886 150.619 528.682 150.67 528.349 150.67C527.684 150.67 527.045 150.466 527.045 149.188V143.46H529.142V142.182ZM537.982 138.909H536.473V152H537.982V138.909ZM540.745 152H542.253V142.182H540.745V152ZM541.512 140.545C542.1 140.545 542.586 140.085 542.586 139.523C542.586 138.96 542.1 138.5 541.512 138.5C540.924 138.5 540.438 138.96 540.438 139.523C540.438 140.085 540.924 140.545 541.512 140.545ZM545.221 152H546.678V150.491H546.857C547.19 151.028 547.829 152.205 549.721 152.205C552.176 152.205 553.889 150.236 553.889 147.116C553.889 144.023 552.176 142.054 549.695 142.054C547.778 142.054 547.19 143.23 546.857 143.741H546.729V138.909H545.221V152ZM546.704 147.091C546.704 144.892 547.676 143.409 549.516 143.409C551.434 143.409 552.38 145.02 552.38 147.091C552.38 149.188 551.408 150.849 549.516 150.849C547.701 150.849 546.704 149.315 546.704 147.091ZM556.196 152H557.705V145.787C557.705 144.457 558.753 143.486 560.185 143.486C560.587 143.486 561.003 143.562 561.105 143.588V142.054C560.933 142.041 560.536 142.028 560.313 142.028C559.136 142.028 558.114 142.693 557.756 143.665H557.653V142.182H556.196V152ZM565.783 152.23C567.496 152.23 568.391 151.31 568.697 150.67H568.774V152H570.283V145.531C570.283 142.412 567.905 142.054 566.652 142.054C565.169 142.054 563.481 142.565 562.714 144.355L564.146 144.866C564.479 144.151 565.265 143.384 566.703 143.384C568.09 143.384 568.774 144.119 568.774 145.378V145.429C568.774 146.158 568.033 146.094 566.243 146.324C564.421 146.56 562.433 146.963 562.433 149.213C562.433 151.131 563.916 152.23 565.783 152.23ZM566.013 150.875C564.811 150.875 563.942 150.338 563.942 149.29C563.942 148.139 564.99 147.781 566.166 147.628C566.805 147.551 568.518 147.372 568.774 147.065V148.446C568.774 149.673 567.802 150.875 566.013 150.875ZM573.036 152H574.544V145.787C574.544 144.457 575.593 143.486 577.025 143.486C577.427 143.486 577.843 143.562 577.945 143.588V142.054C577.772 142.041 577.376 142.028 577.152 142.028C575.976 142.028 574.954 142.693 574.596 143.665H574.493V142.182H573.036V152ZM581.004 155.682C582.365 155.682 583.324 154.96 583.893 153.432L588.073 142.207L586.424 142.182L583.714 150.006H583.612L580.901 142.182H579.265L582.896 152.051L582.614 152.818C582.065 154.314 581.387 154.455 580.288 154.173L579.904 155.503C580.058 155.58 580.492 155.682 581.004 155.682ZM593.086 138.295H589.302V139.548H591.654V153.406H589.302V154.659H593.086V138.295Z" fill="white"/>
<path d="M418.834 223.192C421.449 223.192 423.091 221.658 423.219 219.401H420.65C420.49 220.45 419.799 221.038 418.866 221.038C417.594 221.038 416.77 219.97 416.77 218.091C416.77 216.237 417.601 215.176 418.866 215.176C419.863 215.176 420.503 215.835 420.65 216.812H423.219C423.104 214.543 421.385 213.054 418.821 213.054C415.843 213.054 414.002 215.119 414.002 218.129C414.002 221.114 415.811 223.192 418.834 223.192ZM429.399 223.192C432.377 223.192 434.231 221.153 434.231 218.129C434.231 215.087 432.377 213.054 429.399 213.054C426.42 213.054 424.566 215.087 424.566 218.129C424.566 221.153 426.42 223.192 429.399 223.192ZM429.411 221.082C428.037 221.082 427.334 219.823 427.334 218.11C427.334 216.397 428.037 215.131 429.411 215.131C430.76 215.131 431.463 216.397 431.463 218.11C431.463 219.823 430.76 221.082 429.411 221.082ZM436.002 223H438.725V217.107C438.725 216.02 439.415 215.298 440.323 215.298C441.218 215.298 441.818 215.911 441.818 216.876V223H444.458V217.004C444.458 215.988 445.04 215.298 446.031 215.298C446.9 215.298 447.552 215.841 447.552 216.934V223H450.269V216.397C450.269 214.268 449.003 213.054 447.175 213.054C445.737 213.054 444.618 213.789 444.215 214.914H444.113C443.8 213.776 442.796 213.054 441.448 213.054C440.125 213.054 439.121 213.757 438.712 214.914H438.597V213.182H436.002V223ZM452.42 223H455.143V217.107C455.143 216.02 455.833 215.298 456.741 215.298C457.636 215.298 458.236 215.911 458.236 216.876V223H460.876V217.004C460.876 215.988 461.458 215.298 462.449 215.298C463.318 215.298 463.97 215.841 463.97 216.934V223H466.687V216.397C466.687 214.268 465.421 213.054 463.593 213.054C462.155 213.054 461.036 213.789 460.633 214.914H460.531C460.218 213.776 459.214 213.054 457.866 213.054C456.543 213.054 455.539 213.757 455.13 214.914H455.015V213.182H452.42V223ZM475.134 218.82C475.14 220.136 474.239 220.827 473.261 220.827C472.232 220.827 471.567 220.104 471.561 218.947V213.182H468.838V219.433C468.844 221.728 470.186 223.128 472.161 223.128C473.638 223.128 474.699 222.367 475.14 221.217H475.242V223H477.857V213.182H475.134V218.82ZM482.758 217.324C482.764 216.058 483.519 215.317 484.618 215.317C485.711 215.317 486.369 216.033 486.363 217.234V223H489.086V216.749C489.086 214.46 487.744 213.054 485.698 213.054C484.241 213.054 483.186 213.77 482.745 214.914H482.63V213.182H480.035V223H482.758V217.324ZM491.232 223H493.955V213.182H491.232V223ZM492.6 211.916C493.412 211.916 494.077 211.296 494.077 210.536C494.077 209.781 493.412 209.161 492.6 209.161C491.795 209.161 491.13 209.781 491.13 210.536C491.13 211.296 491.795 211.916 492.6 211.916ZM500.573 223.192C503.187 223.192 504.83 221.658 504.957 219.401H502.388C502.228 220.45 501.538 221.038 500.604 221.038C499.332 221.038 498.508 219.97 498.508 218.091C498.508 216.237 499.339 215.176 500.604 215.176C501.602 215.176 502.241 215.835 502.388 216.812H504.957C504.842 214.543 503.123 213.054 500.56 213.054C497.581 213.054 495.74 215.119 495.74 218.129C495.74 221.114 497.549 223.192 500.573 223.192ZM509.501 223.185C510.952 223.185 511.891 222.553 512.371 221.638H512.447V223H515.03V216.378C515.03 214.038 513.048 213.054 510.862 213.054C508.51 213.054 506.963 214.179 506.586 215.969L509.104 216.173C509.29 215.521 509.871 215.042 510.849 215.042C511.776 215.042 512.307 215.509 512.307 216.314V216.352C512.307 216.985 511.636 217.068 509.929 217.234C507.986 217.413 506.241 218.065 506.241 220.258C506.241 222.201 507.628 223.185 509.501 223.185ZM510.28 221.306C509.443 221.306 508.842 220.916 508.842 220.168C508.842 219.401 509.475 219.024 510.434 218.89C511.028 218.807 512 218.666 512.326 218.449V219.491C512.326 220.52 511.476 221.306 510.28 221.306ZM522.365 213.182H520.517V210.83H517.794V213.182H516.452V215.227H517.794V220.341C517.782 222.265 519.092 223.217 521.067 223.134C521.77 223.109 522.269 222.968 522.544 222.879L522.115 220.852C521.981 220.878 521.693 220.942 521.438 220.942C520.894 220.942 520.517 220.737 520.517 219.983V215.227H522.365V213.182ZM524.138 223H526.861V213.182H524.138V223ZM525.506 211.916C526.318 211.916 526.983 211.296 526.983 210.536C526.983 209.781 526.318 209.161 525.506 209.161C524.701 209.161 524.036 209.781 524.036 210.536C524.036 211.296 524.701 211.916 525.506 211.916ZM533.479 223.192C536.457 223.192 538.311 221.153 538.311 218.129C538.311 215.087 536.457 213.054 533.479 213.054C530.5 213.054 528.646 215.087 528.646 218.129C528.646 221.153 530.5 223.192 533.479 223.192ZM533.492 221.082C532.117 221.082 531.414 219.823 531.414 218.11C531.414 216.397 532.117 215.131 533.492 215.131C534.84 215.131 535.543 216.397 535.543 218.11C535.543 219.823 534.84 221.082 533.492 221.082ZM542.805 217.324C542.811 216.058 543.565 215.317 544.665 215.317C545.758 215.317 546.416 216.033 546.41 217.234V223H549.133V216.749C549.133 214.46 547.791 213.054 545.745 213.054C544.288 213.054 543.233 213.77 542.792 214.914H542.677V213.182H540.082V223H542.805V217.324ZM558.168 209.909H555.445V223H558.168V209.909ZM563.149 223.185C564.6 223.185 565.54 222.553 566.019 221.638H566.096V223H568.678V216.378C568.678 214.038 566.697 213.054 564.511 213.054C562.158 213.054 560.611 214.179 560.234 215.969L562.753 216.173C562.938 215.521 563.52 215.042 564.498 215.042C565.425 215.042 565.955 215.509 565.955 216.314V216.352C565.955 216.985 565.284 217.068 563.577 217.234C561.634 217.413 559.889 218.065 559.889 220.258C559.889 222.201 561.276 223.185 563.149 223.185ZM563.929 221.306C563.092 221.306 562.491 220.916 562.491 220.168C562.491 219.401 563.123 219.024 564.082 218.89C564.677 218.807 565.648 218.666 565.974 218.449V219.491C565.974 220.52 565.124 221.306 563.929 221.306ZM572.12 226.682C574.147 226.682 575.22 225.646 575.777 224.061L579.593 213.195L576.71 213.182L574.658 220.392H574.556L572.523 213.182H569.659L573.181 223.281L573.022 223.697C572.664 224.617 571.98 224.662 571.021 224.368L570.407 226.401C570.797 226.567 571.43 226.682 572.12 226.682ZM585.127 223.192C587.555 223.192 589.192 222.009 589.575 220.188L587.057 220.021C586.782 220.769 586.079 221.159 585.171 221.159C583.81 221.159 582.947 220.258 582.947 218.794V218.788H589.633V218.04C589.633 214.703 587.613 213.054 585.018 213.054C582.129 213.054 580.256 215.106 580.256 218.136C580.256 221.249 582.103 223.192 585.127 223.192ZM582.947 217.1C583.004 215.982 583.854 215.087 585.063 215.087C586.245 215.087 587.063 215.93 587.07 217.1H582.947ZM591.41 223H594.133V217.445C594.133 216.237 595.015 215.406 596.217 215.406C596.594 215.406 597.112 215.47 597.367 215.553V213.137C597.124 213.08 596.786 213.041 596.511 213.041C595.411 213.041 594.51 213.68 594.152 214.895H594.05V213.182H591.41V223ZM466.568 247.659H470.353V246.406H468V232.548H470.353V231.295H466.568V247.659ZM473.857 239.094C473.857 237.381 474.918 236.409 476.363 236.409C477.763 236.409 478.613 237.323 478.613 238.864V245H480.121V238.761C480.121 236.256 478.785 235.054 476.797 235.054C475.314 235.054 474.394 235.719 473.934 236.716H473.806V235.182H472.348V245H473.857V239.094ZM486.994 245.205C488.989 245.205 490.446 244.207 490.906 242.724L489.449 242.315C489.065 243.338 488.177 243.849 486.994 243.849C485.224 243.849 484.003 242.705 483.932 240.602H491.06V239.963C491.06 236.307 488.886 235.054 486.841 235.054C484.182 235.054 482.418 237.151 482.418 240.168C482.418 243.185 484.156 245.205 486.994 245.205ZM483.932 239.298C484.035 237.771 485.115 236.409 486.841 236.409C488.477 236.409 489.525 237.636 489.525 239.298H483.932ZM497.624 235.182H495.528V232.83H494.019V235.182H492.536V236.46H494.019V242.597C494.019 244.31 495.4 245.128 496.678 245.128C497.241 245.128 497.599 245.026 497.803 244.949L497.496 243.594C497.369 243.619 497.164 243.67 496.832 243.67C496.167 243.67 495.528 243.466 495.528 242.188V236.46H497.624V235.182ZM502.118 245H503.601L505.748 237.457H505.902L508.05 245H509.533L512.524 235.182H510.939L508.817 242.673H508.714L506.643 235.182H505.033L502.936 242.699H502.834L500.712 235.182H499.126L502.118 245ZM518.173 245.205C520.832 245.205 522.622 243.185 522.622 240.142C522.622 237.074 520.832 235.054 518.173 235.054C515.514 235.054 513.724 237.074 513.724 240.142C513.724 243.185 515.514 245.205 518.173 245.205ZM518.173 243.849C516.153 243.849 515.233 242.111 515.233 240.142C515.233 238.173 516.153 236.409 518.173 236.409C520.193 236.409 521.113 238.173 521.113 240.142C521.113 242.111 520.193 243.849 518.173 243.849ZM524.925 245H526.433V238.787C526.433 237.457 527.481 236.486 528.913 236.486C529.316 236.486 529.731 236.562 529.834 236.588V235.054C529.661 235.041 529.265 235.028 529.041 235.028C527.865 235.028 526.842 235.693 526.484 236.665H526.382V235.182H524.925V245ZM531.622 245H533.13V241.325L534.185 240.347L537.861 245H539.778L535.323 239.375L539.471 235.182H537.605L533.309 239.554H533.13V231.909H531.622V245ZM544.43 231.295H540.646V232.548H542.998V246.406H540.646V247.659H544.43V231.295Z" fill="white"/>
<rect x="18.5" y="22.5" width="826" height="163" rx="8.5" stroke="#4079A2" stroke-width="3" stroke-dasharray="6 6"/>
<rect x="18.5" y="269.5" width="826" height="160" rx="8.5" stroke="#4079A2" stroke-width="3" stroke-dasharray="6 6"/>
<path d="M39.7418 59L40.7134 56.0149H45.4371L46.4087 59H49.3746L44.8619 45.9091H41.2951L36.7759 59H39.7418ZM41.4165 53.8544L43.0273 48.9006H43.1296L44.7404 53.8544H41.4165ZM50.8991 62.6818H53.6222V57.4276H53.7053C54.0824 58.2457 54.907 59.1598 56.4922 59.1598C58.7294 59.1598 60.4744 57.3892 60.4744 54.1037C60.4744 50.7287 58.6527 49.054 56.4986 49.054C54.8558 49.054 54.0696 50.032 53.7053 50.831H53.5838V49.1818H50.8991V62.6818ZM53.5646 54.0909C53.5646 52.3395 54.3061 51.2209 55.6293 51.2209C56.978 51.2209 57.6939 52.3906 57.6939 54.0909C57.6939 55.804 56.9652 56.9929 55.6293 56.9929C54.3189 56.9929 53.5646 55.8423 53.5646 54.0909ZM62.2898 62.6818H65.0128V57.4276H65.0959C65.473 58.2457 66.2976 59.1598 67.8828 59.1598C70.12 59.1598 71.8651 57.3892 71.8651 54.1037C71.8651 50.7287 70.0433 49.054 67.8892 49.054C66.2464 49.054 65.4602 50.032 65.0959 50.831H64.9744V49.1818L62.2898 49.1818V62.6818ZM64.9553 54.0909C64.9553 52.3395 65.6967 51.2209 67.0199 51.2209C68.3686 51.2209 69.0845 52.3906 69.0845 54.0909C69.0845 55.804 68.3558 56.9929 67.0199 56.9929C65.7095 56.9929 64.9553 55.8423 64.9553 54.0909ZM76.4034 45.9091H73.6804V59H76.4034V45.9091ZM78.5847 59H81.3077V49.1818H78.5847V59ZM79.9526 47.9162C80.7644 47.9162 81.4292 47.2962 81.4292 46.5355C81.4292 45.7813 80.7644 45.1612 79.9526 45.1612C79.1472 45.1612 78.4824 45.7813 78.4824 46.5355C78.4824 47.2962 79.1472 47.9162 79.9526 47.9162ZM87.9251 59.1918C90.5394 59.1918 92.1822 57.6577 92.31 55.4013H89.7404C89.5806 56.4496 88.8903 57.0376 87.957 57.0376C86.685 57.0376 85.8604 55.9702 85.8604 54.0909C85.8604 52.2372 86.6914 51.1761 87.957 51.1761C88.9542 51.1761 89.5934 51.8345 89.7404 52.8125H92.31C92.195 50.5433 90.4755 49.054 87.9123 49.054C84.9336 49.054 83.0927 51.1186 83.0927 54.1293C83.0927 57.1143 84.9016 59.1918 87.9251 59.1918ZM96.8532 59.1854C98.3042 59.1854 99.2438 58.5526 99.7232 57.6385H99.7999V59H102.382V52.3778C102.382 50.0384 100.401 49.054 98.2147 49.054C95.8624 49.054 94.3155 50.179 93.9384 51.9688L96.4569 52.1733C96.6422 51.5213 97.2239 51.0419 98.2019 51.0419C99.1287 51.0419 99.6593 51.5085 99.6593 52.3139V52.3523C99.6593 52.9851 98.9881 53.0682 97.2814 53.2344C95.3382 53.4134 93.5932 54.0653 93.5932 56.2578C93.5932 58.201 94.9803 59.1854 96.8532 59.1854ZM97.633 57.3061C96.7956 57.3061 96.1948 56.9162 96.1948 56.1683C96.1948 55.4013 96.8276 55.0241 97.7864 54.8899C98.3809 54.8068 99.3525 54.6662 99.6784 54.4489V55.4908C99.6784 56.5199 98.8283 57.3061 97.633 57.3061ZM109.717 49.1818H107.87V46.8295H105.147V49.1818H103.805V51.2273H105.147V56.3409C105.134 58.2649 106.444 59.2173 108.42 59.1342C109.123 59.1087 109.621 58.968 109.896 58.8786L109.468 56.8523C109.334 56.8778 109.046 56.9418 108.79 56.9418C108.247 56.9418 107.87 56.7372 107.87 55.983V51.2273H109.717V49.1818ZM111.491 59H114.214V49.1818H111.491V59ZM112.859 47.9162C113.671 47.9162 114.335 47.2962 114.335 46.5355C114.335 45.7813 113.671 45.1612 112.859 45.1612C112.053 45.1612 111.389 45.7813 111.389 46.5355C111.389 47.2962 112.053 47.9162 112.859 47.9162ZM120.831 59.1918C123.81 59.1918 125.664 57.1527 125.664 54.1293C125.664 51.0866 123.81 49.054 120.831 49.054C117.853 49.054 115.999 51.0866 115.999 54.1293C115.999 57.1527 117.853 59.1918 120.831 59.1918ZM120.844 57.0824C119.47 57.0824 118.767 55.8232 118.767 54.1101C118.767 52.397 119.47 51.1314 120.844 51.1314C122.193 51.1314 122.896 52.397 122.896 54.1101C122.896 55.8232 122.193 57.0824 120.844 57.0824ZM130.157 53.3239C130.164 52.0582 130.918 51.3168 132.017 51.3168C133.11 51.3168 133.769 52.0327 133.762 53.2344V59H136.485V52.7486C136.485 50.4602 135.143 49.054 133.098 49.054C131.64 49.054 130.586 49.7699 130.145 50.9141H130.029V49.1818H127.434V59H130.157V53.3239ZM146.801 51.9815C146.558 50.1726 145.1 49.054 142.62 49.054C140.108 49.054 138.453 50.2173 138.459 52.1094C138.453 53.5795 139.379 54.532 141.297 54.9155L142.997 55.2543C143.854 55.4268 144.244 55.7401 144.257 56.2322C144.244 56.8139 143.611 57.2294 142.659 57.2294C141.687 57.2294 141.041 56.8139 140.875 56.0149L138.197 56.1555C138.453 58.0348 140.051 59.1918 142.652 59.1918C145.196 59.1918 147.018 57.8942 147.024 55.9574C147.018 54.5384 146.091 53.6882 144.186 53.2983L142.409 52.9403C141.495 52.7422 141.156 52.429 141.163 51.956C141.156 51.3679 141.821 50.9844 142.665 50.9844C143.611 50.9844 144.173 51.5021 144.308 52.1349L146.801 51.9815Z" fill="#4079A2"/>
<path d="M40.1468 289.909H37.379V303H40.1468V289.909ZM54.4537 296.455C54.4537 292.172 51.7947 289.73 48.3238 289.73C44.8337 289.73 42.1938 292.172 42.1938 296.455C42.1938 300.718 44.8337 303.179 48.3238 303.179C51.7947 303.179 54.4537 300.737 54.4537 296.455ZM51.6476 296.455C51.6476 299.229 50.3309 300.731 48.3238 300.731C46.3103 300.731 44.9999 299.229 44.9999 296.455C44.9999 293.68 46.3103 292.178 48.3238 292.178C50.3309 292.178 51.6476 293.68 51.6476 296.455ZM55.4253 292.191H59.4332V303H62.1689V292.191H66.1768V289.909H55.4253V292.191ZM68.5866 303L69.5582 300.015H74.2819L75.2535 303H78.2194L73.7066 289.909H70.1398L65.6206 303H68.5866ZM70.2613 297.854L71.8721 292.901H71.9743L73.5851 297.854H70.2613ZM94.9106 289.909H92.1556V298.142H92.0406L86.39 289.909H83.961V303H86.7288V294.761H86.8247L92.52 303H94.9106V289.909ZM101.621 303.192C104.05 303.192 105.686 302.009 106.07 300.188L103.551 300.021C103.276 300.769 102.573 301.159 101.665 301.159C100.304 301.159 99.441 300.258 99.441 298.794V298.788H106.127V298.04C106.127 294.703 104.107 293.054 101.512 293.054C98.6228 293.054 96.7499 295.106 96.7499 298.136C96.7499 301.249 98.5972 303.192 101.621 303.192ZM99.441 297.1C99.4985 295.982 100.349 295.087 101.557 295.087C102.739 295.087 103.557 295.93 103.564 297.1H99.441ZM113.126 293.182H111.279V290.83H108.556V293.182H107.214V295.227H108.556V300.341C108.543 302.265 109.854 303.217 111.829 303.134C112.532 303.109 113.03 302.968 113.305 302.879L112.877 300.852C112.743 300.878 112.455 300.942 112.199 300.942C111.656 300.942 111.279 300.737 111.279 299.983V295.227H113.126V293.182ZM116.837 303H119.713L121.401 296.825H121.522L123.21 303H126.093L128.758 293.182H126.009L124.514 299.74H124.431L122.82 293.182H120.116L118.531 299.778H118.441L116.92 293.182H114.165L116.837 303ZM134.401 303.192C137.379 303.192 139.233 301.153 139.233 298.129C139.233 295.087 137.379 293.054 134.401 293.054C131.422 293.054 129.568 295.087 129.568 298.129C129.568 301.153 131.422 303.192 134.401 303.192ZM134.413 301.082C133.039 301.082 132.336 299.823 132.336 298.11C132.336 296.397 133.039 295.131 134.413 295.131C135.762 295.131 136.465 296.397 136.465 298.11C136.465 299.823 135.762 301.082 134.413 301.082ZM141.004 303H143.727V297.445C143.727 296.237 144.609 295.406 145.81 295.406C146.188 295.406 146.705 295.47 146.961 295.553V293.137C146.718 293.08 146.379 293.041 146.104 293.041C145.005 293.041 144.104 293.68 143.746 294.895H143.644V293.182H141.004V303ZM148.369 303H151.092V299.881L151.827 299.043L154.505 303H157.695L153.866 297.433L157.509 293.182H154.384L151.239 296.908H151.092V289.909H148.369V303Z" fill="#4079A2"/>
</svg>
