<svg width="862" height="452" viewBox="0 0 862 452" fill="none" xmlns="http://www.w3.org/2000/svg">
<rect x="0.5" y="0.5" width="861" height="451" fill="#111F3B" stroke="#293856"/>
<rect x="180" y="44" width="312" height="55" rx="5" fill="#485A68"/>
<rect x="511" y="44" width="308" height="55" rx="5" fill="#485A68"/>
<rect x="180" y="107" width="639" height="55" rx="5" fill="#4EA793"/>
<rect x="180" y="200" width="639" height="55" rx="5" fill="#C56550"/>
<rect x="180" y="285" width="639" height="55" rx="5" stroke="#369FAB" stroke-width="3"/>
<rect x="180" y="357" width="270" height="55" rx="5" fill="#499785"/>
<rect x="549" y="357" width="270" height="55" rx="5" fill="#B7784A"/>
<path d="M307.404 60.3239C307.411 59.0582 308.165 58.3168 309.264 58.3168C310.358 58.3168 311.016 59.0327 311.009 60.2344V66H313.733V59.7486C313.733 57.4602 312.39 56.054 310.345 56.054C308.887 56.054 307.833 56.7699 307.392 57.9141H307.277V56.1818H304.681V66H307.404V60.3239ZM320.315 66.1918C323.293 66.1918 325.147 64.1527 325.147 61.1293C325.147 58.0866 323.293 56.054 320.315 56.054C317.336 56.054 315.482 58.0866 315.482 61.1293C315.482 64.1527 317.336 66.1918 320.315 66.1918ZM320.328 64.0824C318.953 64.0824 318.25 62.8232 318.25 61.1101C318.25 59.397 318.953 58.1314 320.328 58.1314C321.676 58.1314 322.379 59.397 322.379 61.1101C322.379 62.8232 321.676 64.0824 320.328 64.0824ZM330.536 66.1598C332.121 66.1598 332.945 65.2457 333.323 64.4276H333.438V66H336.122V52.9091H333.406V57.831H333.323C332.958 57.032 332.172 56.054 330.529 56.054C328.375 56.054 326.553 57.7287 326.553 61.1037C326.553 64.3892 328.298 66.1598 330.536 66.1598ZM331.399 63.9929C330.063 63.9929 329.334 62.804 329.334 61.0909C329.334 59.3906 330.05 58.2209 331.399 58.2209C332.722 58.2209 333.463 59.3395 333.463 61.0909C333.463 62.8423 332.709 63.9929 331.399 63.9929ZM342.835 66.1918C345.264 66.1918 346.901 65.0092 347.284 63.1875L344.766 63.0213C344.491 63.7692 343.788 64.1591 342.88 64.1591C341.519 64.1591 340.656 63.2578 340.656 61.794V61.7876H347.342V61.0398C347.342 57.7031 345.322 56.054 342.727 56.054C339.838 56.054 337.965 58.1058 337.965 61.1357C337.965 64.2486 339.812 66.1918 342.835 66.1918ZM340.656 60.1001C340.713 58.9815 341.563 58.0866 342.772 58.0866C343.954 58.0866 344.772 58.9304 344.779 60.1001H340.656ZM350.71 66.1662C351.529 66.1662 352.238 65.4822 352.245 64.6321C352.238 63.7947 351.529 63.1108 350.71 63.1108C349.867 63.1108 349.17 63.7947 349.176 64.6321C349.17 65.4822 349.867 66.1662 350.71 66.1662ZM354.48 56.1818V66.4411C354.48 67.1825 354.167 67.5533 353.291 67.5533C353.176 67.5533 353.074 67.5533 352.933 67.5405V69.669C353.131 69.6754 353.291 69.6818 353.483 69.6818C355.797 69.6818 357.203 68.7614 357.203 66.4858V56.1818H354.48ZM355.835 54.9162C356.647 54.9162 357.312 54.2962 357.312 53.5355C357.312 52.7812 356.647 52.1612 355.835 52.1612C355.03 52.1612 354.365 52.7812 354.365 53.5355C354.365 54.2962 355.03 54.9162 355.835 54.9162ZM367.554 58.9815C367.311 57.1726 365.853 56.054 363.373 56.054C360.861 56.054 359.206 57.2173 359.212 59.1094C359.206 60.5795 360.132 61.532 362.05 61.9155L363.75 62.2543C364.607 62.4268 364.997 62.7401 365.009 63.2322C364.997 63.8139 364.364 64.2294 363.411 64.2294C362.44 64.2294 361.794 63.8139 361.628 63.0149L358.95 63.1555C359.206 65.0348 360.804 66.1918 363.405 66.1918C365.949 66.1918 367.771 64.8942 367.777 62.9574C367.771 61.5384 366.844 60.6882 364.939 60.2983L363.162 59.9403C362.248 59.7422 361.909 59.429 361.916 58.956C361.909 58.3679 362.574 57.9844 363.418 57.9844C364.364 57.9844 364.926 58.5021 365.061 59.1349L367.554 58.9815ZM306.12 88H307.578V86.4915H307.757C308.089 87.0284 308.728 88.2045 310.62 88.2045C313.075 88.2045 314.788 86.2358 314.788 83.1165C314.788 80.0227 313.075 78.054 310.595 78.054C308.677 78.054 308.089 79.2301 307.757 79.7415H307.629V74.9091H306.12V88ZM307.603 83.0909C307.603 80.892 308.575 79.4091 310.416 79.4091C312.333 79.4091 313.279 81.0199 313.279 83.0909C313.279 85.1875 312.308 86.8494 310.416 86.8494C308.6 86.8494 307.603 85.3153 307.603 83.0909ZM317.096 88H318.604V78.1818H317.096V88ZM317.863 76.5455C318.451 76.5455 318.936 76.0852 318.936 75.5227C318.936 74.9602 318.451 74.5 317.863 74.5C317.275 74.5 316.789 74.9602 316.789 75.5227C316.789 76.0852 317.275 76.5455 317.863 76.5455ZM322.876 82.0938C322.876 80.3807 323.937 79.4091 325.381 79.4091C326.781 79.4091 327.631 80.3232 327.631 81.8636V88H329.14V81.7614C329.14 79.2557 327.804 78.054 325.816 78.054C324.333 78.054 323.412 78.7188 322.952 79.7159H322.824V78.1818H321.367V88H322.876V82.0938ZM335.604 88.2045C337.496 88.2045 338.135 87.0284 338.467 86.4915H338.646V88H340.104V74.9091H338.595V79.7415H338.467C338.135 79.2301 337.547 78.054 335.629 78.054C333.149 78.054 331.436 80.0227 331.436 83.1165C331.436 86.2358 333.149 88.2045 335.604 88.2045ZM335.808 86.8494C333.916 86.8494 332.945 85.1875 332.945 83.0909C332.945 81.0199 333.891 79.4091 335.808 79.4091C337.649 79.4091 338.621 80.892 338.621 83.0909C338.621 85.3153 337.624 86.8494 335.808 86.8494ZM343.076 88H344.585V78.1818H343.076V88ZM343.843 76.5455C344.431 76.5455 344.917 76.0852 344.917 75.5227C344.917 74.9602 344.431 74.5 343.843 74.5C343.255 74.5 342.769 74.9602 342.769 75.5227C342.769 76.0852 343.255 76.5455 343.843 76.5455ZM348.856 82.0938C348.856 80.3807 349.917 79.4091 351.362 79.4091C352.762 79.4091 353.612 80.3232 353.612 81.8636V88H355.12V81.7614C355.12 79.2557 353.784 78.054 351.796 78.054C350.313 78.054 349.393 78.7188 348.933 79.7159H348.805V78.1818H347.347V88H348.856V82.0938ZM361.84 91.8864C364.192 91.8864 366.084 90.8125 366.084 88.2812V78.1818H364.627V79.7415H364.473C364.141 79.2301 363.527 78.054 361.61 78.054C359.13 78.054 357.417 80.0227 357.417 83.0398C357.417 86.108 359.206 87.8466 361.584 87.8466C363.502 87.8466 364.115 86.7216 364.448 86.1847H364.576V88.179C364.576 89.8153 363.425 90.5568 361.84 90.5568C360.056 90.5568 359.43 89.6172 359.027 89.0739L357.826 89.9176C358.439 90.9467 359.647 91.8864 361.84 91.8864ZM361.789 86.4915C359.897 86.4915 358.925 85.0597 358.925 83.0142C358.925 81.0199 359.871 79.4091 361.789 79.4091C363.63 79.4091 364.601 80.892 364.601 83.0142C364.601 85.1875 363.604 86.4915 361.789 86.4915Z" fill="white"/>
<path d="M634.947 69.6818H637.67V64.4276H637.753C638.13 65.2457 638.955 66.1598 640.54 66.1598C642.777 66.1598 644.522 64.3892 644.522 61.1037C644.522 57.7287 642.701 56.054 640.546 56.054C638.904 56.054 638.117 57.032 637.753 57.831H637.632V56.1818H634.947V69.6818ZM637.612 61.0909C637.612 59.3395 638.354 58.2209 639.677 58.2209C641.026 58.2209 641.742 59.3906 641.742 61.0909C641.742 62.804 641.013 63.9929 639.677 63.9929C638.367 63.9929 637.612 62.8423 637.612 61.0909ZM647.685 69.6818C649.711 69.6818 650.785 68.6463 651.341 67.0611L655.157 56.1946L652.274 56.1818L650.222 63.392H650.12L648.087 56.1818H645.224L648.746 66.2812L648.586 66.6967C648.228 67.6172 647.544 67.6619 646.585 67.3679L645.972 69.4006C646.362 69.5668 646.994 69.6818 647.685 69.6818ZM661.773 56.1818H659.926V53.8295H657.203V56.1818H655.86V58.2273H657.203V63.3409C657.19 65.2649 658.5 66.2173 660.475 66.1342C661.178 66.1087 661.677 65.968 661.952 65.8786L661.524 63.8523C661.389 63.8778 661.102 63.9418 660.846 63.9418C660.303 63.9418 659.926 63.7372 659.926 62.983V58.2273H661.773V56.1818ZM666.481 60.3239C666.487 59.0582 667.26 58.3168 668.373 58.3168C669.478 58.3168 670.13 59.0263 670.124 60.2344V66H672.847V59.7486C672.853 57.4474 671.498 56.054 669.453 56.054C667.964 56.054 666.966 56.7571 666.519 57.9141H666.404V52.9091H663.758V66H666.481V60.3239ZM679.426 66.1918C682.405 66.1918 684.258 64.1527 684.258 61.1293C684.258 58.0866 682.405 56.054 679.426 56.054C676.447 56.054 674.594 58.0866 674.594 61.1293C674.594 64.1527 676.447 66.1918 679.426 66.1918ZM679.439 64.0824C678.065 64.0824 677.361 62.8232 677.361 61.1101C677.361 59.397 678.065 58.1314 679.439 58.1314C680.788 58.1314 681.491 59.397 681.491 61.1101C681.491 62.8232 680.788 64.0824 679.439 64.0824ZM688.752 60.3239C688.758 59.0582 689.513 58.3168 690.612 58.3168C691.705 58.3168 692.364 59.0327 692.357 60.2344V66H695.08V59.7486C695.08 57.4602 693.738 56.054 691.692 56.054C690.235 56.054 689.18 56.7699 688.739 57.9141H688.624V56.1818H686.029V66H688.752V60.3239ZM635.12 88H636.578V86.4915H636.757C637.089 87.0284 637.728 88.2045 639.62 88.2045C642.075 88.2045 643.788 86.2358 643.788 83.1165C643.788 80.0227 642.075 78.054 639.595 78.054C637.677 78.054 637.089 79.2301 636.757 79.7415H636.629V74.9091H635.12V88ZM636.603 83.0909C636.603 80.892 637.575 79.4091 639.416 79.4091C641.333 79.4091 642.279 81.0199 642.279 83.0909C642.279 85.1875 641.308 86.8494 639.416 86.8494C637.6 86.8494 636.603 85.3153 636.603 83.0909ZM646.096 88H647.604V78.1818H646.096V88ZM646.863 76.5455C647.451 76.5455 647.936 76.0852 647.936 75.5227C647.936 74.9602 647.451 74.5 646.863 74.5C646.275 74.5 645.789 74.9602 645.789 75.5227C645.789 76.0852 646.275 76.5455 646.863 76.5455ZM651.876 82.0938C651.876 80.3807 652.937 79.4091 654.381 79.4091C655.781 79.4091 656.631 80.3232 656.631 81.8636V88H658.14V81.7614C658.14 79.2557 656.804 78.054 654.816 78.054C653.333 78.054 652.412 78.7188 651.952 79.7159H651.824V78.1818H650.367V88H651.876V82.0938ZM664.604 88.2045C666.496 88.2045 667.135 87.0284 667.467 86.4915H667.646V88H669.104V74.9091H667.595V79.7415H667.467C667.135 79.2301 666.547 78.054 664.629 78.054C662.149 78.054 660.436 80.0227 660.436 83.1165C660.436 86.2358 662.149 88.2045 664.604 88.2045ZM664.808 86.8494C662.916 86.8494 661.945 85.1875 661.945 83.0909C661.945 81.0199 662.891 79.4091 664.808 79.4091C666.649 79.4091 667.621 80.892 667.621 83.0909C667.621 85.3153 666.624 86.8494 664.808 86.8494ZM672.076 88H673.585V78.1818H672.076V88ZM672.843 76.5455C673.431 76.5455 673.917 76.0852 673.917 75.5227C673.917 74.9602 673.431 74.5 672.843 74.5C672.255 74.5 671.769 74.9602 671.769 75.5227C671.769 76.0852 672.255 76.5455 672.843 76.5455ZM677.856 82.0938C677.856 80.3807 678.917 79.4091 680.362 79.4091C681.762 79.4091 682.612 80.3232 682.612 81.8636V88H684.12V81.7614C684.12 79.2557 682.784 78.054 680.796 78.054C679.313 78.054 678.393 78.7188 677.933 79.7159H677.805V78.1818H676.347V88H677.856V82.0938ZM690.84 91.8864C693.192 91.8864 695.084 90.8125 695.084 88.2812V78.1818H693.627V79.7415H693.473C693.141 79.2301 692.527 78.054 690.61 78.054C688.13 78.054 686.417 80.0227 686.417 83.0398C686.417 86.108 688.206 87.8466 690.584 87.8466C692.502 87.8466 693.115 86.7216 693.448 86.1847H693.576V88.179C693.576 89.8153 692.425 90.5568 690.84 90.5568C689.056 90.5568 688.43 89.6172 688.027 89.0739L686.826 89.9176C687.439 90.9467 688.647 91.8864 690.84 91.8864ZM690.789 86.4915C688.897 86.4915 687.925 85.0597 687.925 83.0142C687.925 81.0199 688.871 79.4091 690.789 79.4091C692.63 79.4091 693.601 80.892 693.601 83.0142C693.601 85.1875 692.604 86.4915 690.789 86.4915Z" fill="white"/>
<path d="M446.17 294.909H443.415V303.142H443.3L437.65 294.909H435.221V308H437.989V299.761H438.084L443.78 308H446.17V294.909ZM452.842 308.192C455.821 308.192 457.674 306.153 457.674 303.129C457.674 300.087 455.821 298.054 452.842 298.054C449.863 298.054 448.01 300.087 448.01 303.129C448.01 306.153 449.863 308.192 452.842 308.192ZM452.855 306.082C451.481 306.082 450.777 304.823 450.777 303.11C450.777 301.397 451.481 300.131 452.855 300.131C454.204 300.131 454.907 301.397 454.907 303.11C454.907 304.823 454.204 306.082 452.855 306.082ZM463.063 308.16C464.648 308.16 465.473 307.246 465.85 306.428H465.965V308H468.65V294.909H465.933V299.831H465.85C465.486 299.032 464.699 298.054 463.057 298.054C460.902 298.054 459.081 299.729 459.081 303.104C459.081 306.389 460.826 308.16 463.063 308.16ZM463.926 305.993C462.59 305.993 461.861 304.804 461.861 303.091C461.861 301.391 462.577 300.221 463.926 300.221C465.249 300.221 465.991 301.339 465.991 303.091C465.991 304.842 465.236 305.993 463.926 305.993ZM475.363 308.192C477.792 308.192 479.428 307.009 479.812 305.188L477.293 305.021C477.018 305.769 476.315 306.159 475.408 306.159C474.046 306.159 473.183 305.258 473.183 303.794V303.788H479.869V303.04C479.869 299.703 477.849 298.054 475.254 298.054C472.365 298.054 470.492 300.106 470.492 303.136C470.492 306.249 472.339 308.192 475.363 308.192ZM473.183 302.1C473.241 300.982 474.091 300.087 475.299 300.087C476.481 300.087 477.3 300.93 477.306 302.1H473.183ZM492.965 298.674H495.618C495.579 296.341 493.662 294.73 490.747 294.73C487.877 294.73 485.774 296.315 485.787 298.693C485.78 300.624 487.142 301.729 489.353 302.26L490.779 302.618C492.204 302.963 492.997 303.372 493.003 304.254C492.997 305.213 492.089 305.865 490.683 305.865C489.245 305.865 488.209 305.2 488.12 303.89H485.441C485.512 306.722 487.538 308.185 490.715 308.185C493.911 308.185 495.79 306.658 495.797 304.261C495.79 302.081 494.147 300.924 491.872 300.413L490.696 300.131C489.558 299.869 488.606 299.447 488.625 298.508C488.625 297.664 489.373 297.044 490.728 297.044C492.051 297.044 492.863 297.645 492.965 298.674ZM502.043 308.192C505.022 308.192 506.876 306.153 506.876 303.129C506.876 300.087 505.022 298.054 502.043 298.054C499.065 298.054 497.211 300.087 497.211 303.129C497.211 306.153 499.065 308.192 502.043 308.192ZM502.056 306.082C500.682 306.082 499.979 304.823 499.979 303.11C499.979 301.397 500.682 300.131 502.056 300.131C503.405 300.131 504.108 301.397 504.108 303.11C504.108 304.823 503.405 306.082 502.056 306.082ZM513.926 298.182H511.976V297.523C511.976 296.859 512.245 296.469 513.044 296.469C513.37 296.469 513.702 296.539 513.92 296.609L514.399 294.564C514.06 294.462 513.312 294.295 512.475 294.295C510.628 294.295 509.253 295.337 509.253 297.472V298.182H507.866V300.227H509.253V308H511.976V300.227H513.926V298.182ZM520.812 298.182H518.965V295.83H516.242V298.182H514.899V300.227H516.242V305.341C516.229 307.265 517.539 308.217 519.514 308.134C520.217 308.109 520.716 307.968 520.991 307.879L520.563 305.852C520.428 305.878 520.141 305.942 519.885 305.942C519.342 305.942 518.965 305.737 518.965 304.983V300.227H520.812V298.182ZM524.522 308H527.399L529.086 301.825H529.208L530.895 308H533.778L536.444 298.182H533.695L532.199 304.74H532.116L530.505 298.182H527.802L526.216 304.778H526.127L524.606 298.182H521.851L524.522 308ZM540.696 308.185C542.147 308.185 543.087 307.553 543.566 306.638H543.643V308H546.225V301.378C546.225 299.038 544.244 298.054 542.057 298.054C539.705 298.054 538.158 299.179 537.781 300.969L540.3 301.173C540.485 300.521 541.067 300.042 542.045 300.042C542.972 300.042 543.502 300.509 543.502 301.314V301.352C543.502 301.985 542.831 302.068 541.124 302.234C539.181 302.413 537.436 303.065 537.436 305.258C537.436 307.201 538.823 308.185 540.696 308.185ZM541.476 306.306C540.638 306.306 540.038 305.916 540.038 305.168C540.038 304.401 540.67 304.024 541.629 303.89C542.224 303.807 543.195 303.666 543.521 303.449V304.491C543.521 305.52 542.671 306.306 541.476 306.306ZM548.338 308H551.061V302.445C551.061 301.237 551.943 300.406 553.144 300.406C553.522 300.406 554.039 300.47 554.295 300.553V298.137C554.052 298.08 553.713 298.041 553.438 298.041C552.339 298.041 551.438 298.68 551.08 299.895H550.978V298.182H548.338V308ZM559.72 308.192C562.149 308.192 563.786 307.009 564.169 305.188L561.651 305.021C561.376 305.769 560.673 306.159 559.765 306.159C558.403 306.159 557.541 305.258 557.541 303.794V303.788H564.227V303.04C564.227 299.703 562.207 298.054 559.612 298.054C556.722 298.054 554.85 300.106 554.85 303.136C554.85 306.249 556.697 308.192 559.72 308.192ZM557.541 302.1C557.598 300.982 558.448 300.087 559.656 300.087C560.839 300.087 561.657 300.93 561.663 302.1H557.541ZM436.548 331.636H440.332V330.384H437.98V316.526H440.332V315.273H436.548V331.636ZM447.595 330H449.18V324.145H456.16V330H457.746V316.909H456.16V322.739H449.18V316.909H447.595V330ZM464.703 330.205C467.362 330.205 469.152 328.185 469.152 325.142C469.152 322.074 467.362 320.054 464.703 320.054C462.044 320.054 460.254 322.074 460.254 325.142C460.254 328.185 462.044 330.205 464.703 330.205ZM464.703 328.849C462.683 328.849 461.763 327.111 461.763 325.142C461.763 323.173 462.683 321.409 464.703 321.409C466.723 321.409 467.644 323.173 467.644 325.142C467.644 327.111 466.723 328.849 464.703 328.849ZM471.455 330H472.963V323.787C472.963 322.457 474.012 321.486 475.444 321.486C475.846 321.486 476.262 321.562 476.364 321.588V320.054C476.191 320.041 475.795 320.028 475.571 320.028C474.395 320.028 473.373 320.693 473.015 321.665H472.912V320.182H471.455V330ZM479.661 324.094C479.661 322.381 480.722 321.409 482.166 321.409C483.566 321.409 484.416 322.323 484.416 323.864V330H485.925V323.761C485.925 321.256 484.589 320.054 482.601 320.054C481.118 320.054 480.198 320.719 479.737 321.716H479.61V320.182H478.152V330H479.661V324.094ZM492.798 330.205C494.792 330.205 496.25 329.207 496.71 327.724L495.252 327.315C494.869 328.338 493.98 328.849 492.798 328.849C491.027 328.849 489.806 327.705 489.736 325.602H496.863V324.963C496.863 321.307 494.69 320.054 492.645 320.054C489.985 320.054 488.221 322.151 488.221 325.168C488.221 328.185 489.96 330.205 492.798 330.205ZM489.736 324.298C489.838 322.771 490.919 321.409 492.645 321.409C494.281 321.409 495.329 322.636 495.329 324.298H489.736ZM503.428 320.182H501.331V317.83H499.823V320.182H498.34V321.46H499.823V327.597C499.823 329.31 501.203 330.128 502.482 330.128C503.044 330.128 503.402 330.026 503.607 329.949L503.3 328.594C503.172 328.619 502.968 328.67 502.635 328.67C501.971 328.67 501.331 328.466 501.331 327.188V321.46H503.428V320.182ZM512.958 312.69H511.68V334.219H512.958V312.69ZM521.915 330H526.645C529.739 330 531.018 328.491 531.018 326.523C531.018 324.452 529.586 323.327 528.384 323.25V323.122C529.509 322.815 530.506 322.074 530.506 320.386C530.506 318.469 529.228 316.909 526.492 316.909H521.915V330ZM523.501 328.594V324.043H526.722C528.435 324.043 529.509 325.193 529.509 326.523C529.509 327.673 528.716 328.594 526.645 328.594H523.501ZM523.501 322.662V318.315H526.492C528.231 318.315 528.998 319.236 528.998 320.386C528.998 321.767 527.873 322.662 526.441 322.662H523.501ZM537.534 330.205C539.529 330.205 540.986 329.207 541.446 327.724L539.989 327.315C539.605 328.338 538.717 328.849 537.534 328.849C535.764 328.849 534.543 327.705 534.472 325.602H541.6V324.963C541.6 321.307 539.426 320.054 537.381 320.054C534.722 320.054 532.958 322.151 532.958 325.168C532.958 328.185 534.696 330.205 537.534 330.205ZM534.472 324.298C534.575 322.771 535.655 321.409 537.381 321.409C539.017 321.409 540.066 322.636 540.066 324.298H534.472ZM548.011 330.205C550.005 330.205 551.463 329.207 551.923 327.724L550.465 327.315C550.082 328.338 549.193 328.849 548.011 328.849C546.24 328.849 545.019 327.705 544.949 325.602H552.076V324.963C552.076 321.307 549.903 320.054 547.857 320.054C545.198 320.054 543.434 322.151 543.434 325.168C543.434 328.185 545.173 330.205 548.011 330.205ZM544.949 324.298C545.051 322.771 546.132 321.409 547.857 321.409C549.494 321.409 550.542 322.636 550.542 324.298H544.949ZM562.45 316.295H558.666V317.548H561.019V331.406H558.666V332.659H562.45V316.295Z" fill="#369FAB"/>
<path d="M280.155 377.909V391H282.84V382.447H282.949L286.336 390.936H288.165L291.552 382.479H291.661V391H294.346V377.909H290.932L287.327 386.705H287.174L283.569 377.909H280.155ZM299.375 391.185C300.826 391.185 301.765 390.553 302.245 389.638H302.321V391H304.904V384.378C304.904 382.038 302.922 381.054 300.736 381.054C298.384 381.054 296.837 382.179 296.46 383.969L298.978 384.173C299.164 383.521 299.745 383.042 300.723 383.042C301.65 383.042 302.181 383.509 302.181 384.314V384.352C302.181 384.985 301.51 385.068 299.803 385.234C297.86 385.413 296.115 386.065 296.115 388.258C296.115 390.201 297.502 391.185 299.375 391.185ZM300.154 389.306C299.317 389.306 298.716 388.916 298.716 388.168C298.716 387.401 299.349 387.024 300.308 386.89C300.902 386.807 301.874 386.666 302.2 386.449V387.491C302.2 388.52 301.35 389.306 300.154 389.306ZM307.016 391H309.739V381.182H307.016V391ZM308.384 379.916C309.196 379.916 309.861 379.296 309.861 378.536C309.861 377.781 309.196 377.161 308.384 377.161C307.579 377.161 306.914 377.781 306.914 378.536C306.914 379.296 307.579 379.916 308.384 379.916ZM314.644 385.324C314.65 384.058 315.404 383.317 316.504 383.317C317.597 383.317 318.255 384.033 318.249 385.234V391H320.972V384.749C320.972 382.46 319.629 381.054 317.584 381.054C316.127 381.054 315.072 381.77 314.631 382.914H314.516V381.182H311.921V391H314.644V385.324ZM325.841 385.324C325.847 384.058 326.602 383.317 327.701 383.317C328.794 383.317 329.452 384.033 329.446 385.234V391H332.169V384.749C332.169 382.46 330.827 381.054 328.781 381.054C327.324 381.054 326.269 381.77 325.828 382.914H325.713V381.182H323.118V391H325.841V385.324ZM338.79 391.192C341.219 391.192 342.855 390.009 343.238 388.188L340.72 388.021C340.445 388.769 339.742 389.159 338.834 389.159C337.473 389.159 336.61 388.258 336.61 386.794V386.788H343.296V386.04C343.296 382.703 341.276 381.054 338.681 381.054C335.792 381.054 333.919 383.106 333.919 386.136C333.919 389.249 335.766 391.192 338.79 391.192ZM336.61 385.1C336.667 383.982 337.518 383.087 338.726 383.087C339.908 383.087 340.726 383.93 340.733 385.1H336.61ZM350.295 381.182H348.448V378.83H345.725V381.182H344.383V383.227H345.725V388.341C345.712 390.265 347.023 391.217 348.998 391.134C349.701 391.109 350.199 390.968 350.474 390.879L350.046 388.852C349.912 388.878 349.624 388.942 349.368 388.942C348.825 388.942 348.448 388.737 348.448 387.983V383.227H350.295V381.182Z" fill="white"/>
<path d="M658.243 391C662.232 391 664.648 388.533 664.648 384.442C664.648 380.364 662.232 377.909 658.282 377.909H653.603V391H658.243ZM656.37 388.629V380.281H658.135C660.589 380.281 661.887 381.533 661.887 384.442C661.887 387.363 660.589 388.629 658.128 388.629H656.37ZM671.122 391.192C673.551 391.192 675.187 390.009 675.57 388.188L673.052 388.021C672.777 388.769 672.074 389.159 671.166 389.159C669.805 389.159 668.942 388.258 668.942 386.794V386.788H675.628V386.04C675.628 382.703 673.608 381.054 671.013 381.054C668.124 381.054 666.251 383.106 666.251 386.136C666.251 389.249 668.098 391.192 671.122 391.192ZM668.942 385.1C668.999 383.982 669.85 383.087 671.058 383.087C672.24 383.087 673.058 383.93 673.065 385.1H668.942ZM686.277 381.182H683.394L681.362 388.207H681.259L679.22 381.182H676.344L679.776 391H682.845L686.277 381.182ZM690.394 385.324C690.4 384.058 691.154 383.317 692.254 383.317C693.347 383.317 694.005 384.033 693.999 385.234V391H696.722V384.749C696.722 382.46 695.379 381.054 693.334 381.054C691.877 381.054 690.822 381.77 690.381 382.914H690.266V381.182H687.671V391H690.394V385.324ZM703.342 391.192C705.771 391.192 707.408 390.009 707.791 388.188L705.273 388.021C704.998 388.769 704.295 389.159 703.387 389.159C702.026 389.159 701.163 388.258 701.163 386.794V386.788H707.849V386.04C707.849 382.703 705.829 381.054 703.234 381.054C700.344 381.054 698.472 383.106 698.472 386.136C698.472 389.249 700.319 391.192 703.342 391.192ZM701.163 385.1C701.22 383.982 702.07 383.087 703.278 383.087C704.461 383.087 705.279 383.93 705.286 385.1H701.163ZM714.848 381.182H713.001V378.83H710.278V381.182H708.935V383.227H710.278V388.341C710.265 390.265 711.575 391.217 713.55 391.134C714.254 391.109 714.752 390.968 715.027 390.879L714.599 388.852C714.464 388.878 714.177 388.942 713.921 388.942C713.378 388.942 713.001 388.737 713.001 387.983V383.227H714.848V381.182Z" fill="white"/>
<path d="M472.479 130H475.202V120.182H472.479V130ZM473.847 118.916C474.659 118.916 475.324 118.296 475.324 117.536C475.324 116.781 474.659 116.161 473.847 116.161C473.042 116.161 472.377 116.781 472.377 117.536C472.377 118.296 473.042 118.916 473.847 118.916ZM481.82 130.192C484.798 130.192 486.652 128.153 486.652 125.129C486.652 122.087 484.798 120.054 481.82 120.054C478.841 120.054 476.987 122.087 476.987 125.129C476.987 128.153 478.841 130.192 481.82 130.192ZM481.832 128.082C480.458 128.082 479.755 126.823 479.755 125.11C479.755 123.397 480.458 122.131 481.832 122.131C483.181 122.131 483.884 123.397 483.884 125.11C483.884 126.823 483.181 128.082 481.832 128.082ZM493.645 120.182H491.798V117.83H489.075V120.182H487.732V122.227H489.075V127.341C489.062 129.265 490.372 130.217 492.347 130.134C493.05 130.109 493.549 129.968 493.824 129.879L493.396 127.852C493.261 127.878 492.974 127.942 492.718 127.942C492.175 127.942 491.798 127.737 491.798 126.983V122.227H493.645V120.182ZM498.218 130.185C499.669 130.185 500.609 129.553 501.088 128.638H501.165V130H503.748V123.378C503.748 121.038 501.766 120.054 499.58 120.054C497.228 120.054 495.681 121.179 495.304 122.969L497.822 123.173C498.007 122.521 498.589 122.042 499.567 122.042C500.494 122.042 501.025 122.509 501.025 123.314V123.352C501.025 123.985 500.353 124.068 498.647 124.234C496.703 124.413 494.958 125.065 494.958 127.258C494.958 129.201 496.346 130.185 498.218 130.185ZM498.998 128.306C498.161 128.306 497.56 127.916 497.56 127.168C497.56 126.401 498.193 126.024 499.152 125.89C499.746 125.807 500.718 125.666 501.044 125.449V126.491C501.044 127.52 500.194 128.306 498.998 128.306ZM507.452 130.166C508.27 130.166 508.979 129.482 508.986 128.632C508.979 127.795 508.27 127.111 507.452 127.111C506.608 127.111 505.911 127.795 505.918 128.632C505.911 129.482 506.608 130.166 507.452 130.166ZM511.221 130H513.944V124.445C513.944 123.237 514.827 122.406 516.028 122.406C516.405 122.406 516.923 122.47 517.179 122.553V120.137C516.936 120.08 516.597 120.041 516.322 120.041C515.223 120.041 514.322 120.68 513.964 121.895H513.861V120.182H511.221V130ZM526.756 122.982C526.513 121.173 525.055 120.054 522.575 120.054C520.063 120.054 518.408 121.217 518.414 123.109C518.408 124.58 519.335 125.532 521.252 125.915L522.952 126.254C523.809 126.427 524.199 126.74 524.212 127.232C524.199 127.814 523.566 128.229 522.614 128.229C521.642 128.229 520.996 127.814 520.83 127.015L518.152 127.156C518.408 129.035 520.006 130.192 522.607 130.192C525.151 130.192 526.973 128.894 526.979 126.957C526.973 125.538 526.046 124.688 524.141 124.298L522.364 123.94C521.45 123.742 521.112 123.429 521.118 122.956C521.112 122.368 521.776 121.984 522.62 121.984C523.566 121.984 524.129 122.502 524.263 123.135L526.756 122.982ZM411.912 154.659H415.696V153.406H413.344V139.548H415.696V138.295H411.912V154.659ZM421.47 152.205C424.129 152.205 425.919 150.185 425.919 147.142C425.919 144.074 424.129 142.054 421.47 142.054C418.811 142.054 417.021 144.074 417.021 147.142C417.021 150.185 418.811 152.205 421.47 152.205ZM421.47 150.849C419.45 150.849 418.53 149.111 418.53 147.142C418.53 145.173 419.45 143.409 421.47 143.409C423.49 143.409 424.41 145.173 424.41 147.142C424.41 149.111 423.49 150.849 421.47 150.849ZM432.594 142.182H430.395V141.185C430.395 140.213 430.804 139.702 431.801 139.702C432.236 139.702 432.491 139.804 432.645 139.855L433.079 138.551C432.849 138.449 432.389 138.295 431.648 138.295C430.241 138.295 428.886 139.139 428.886 140.827V142.182H427.301V143.46H428.886V152H430.395V143.46H432.594V142.182ZM439.08 142.182H436.881V141.185C436.881 140.213 437.29 139.702 438.287 139.702C438.722 139.702 438.978 139.804 439.131 139.855L439.566 138.551C439.336 138.449 438.875 138.295 438.134 138.295C436.728 138.295 435.373 139.139 435.373 140.827V142.182H433.787V143.46H435.373V152H436.881V143.46H439.08V142.182ZM441.194 152H442.703V142.182H441.194V152ZM441.961 140.545C442.549 140.545 443.035 140.085 443.035 139.523C443.035 138.96 442.549 138.5 441.961 138.5C441.373 138.5 440.887 138.96 440.887 139.523C440.887 140.085 441.373 140.545 441.961 140.545ZM449.454 152.205C451.628 152.205 453.059 150.875 453.315 149.136H451.807C451.525 150.21 450.63 150.849 449.454 150.849C447.665 150.849 446.514 149.366 446.514 147.091C446.514 144.866 447.69 143.409 449.454 143.409C450.784 143.409 451.576 144.227 451.807 145.122H453.315C453.059 143.281 451.5 142.054 449.429 142.054C446.77 142.054 445.005 144.151 445.005 147.142C445.005 150.082 446.693 152.205 449.454 152.205ZM455.52 152H457.029V142.182H455.52V152ZM456.287 140.545C456.875 140.545 457.361 140.085 457.361 139.523C457.361 138.96 456.875 138.5 456.287 138.5C455.699 138.5 455.214 138.96 455.214 139.523C455.214 140.085 455.699 140.545 456.287 140.545ZM462.681 152.23C464.394 152.23 465.289 151.31 465.596 150.67H465.672V152H467.181V145.531C467.181 142.412 464.803 142.054 463.55 142.054C462.067 142.054 460.38 142.565 459.613 144.355L461.045 144.866C461.377 144.151 462.163 143.384 463.601 143.384C464.989 143.384 465.672 144.119 465.672 145.378V145.429C465.672 146.158 464.931 146.094 463.141 146.324C461.32 146.56 459.332 146.963 459.332 149.213C459.332 151.131 460.815 152.23 462.681 152.23ZM462.911 150.875C461.709 150.875 460.84 150.338 460.84 149.29C460.84 148.139 461.888 147.781 463.065 147.628C463.704 147.551 465.417 147.372 465.672 147.065V148.446C465.672 149.673 464.701 150.875 462.911 150.875ZM471.443 138.909H469.934V152H471.443V138.909ZM483.257 152.205C485.43 152.205 486.862 150.875 487.118 149.136H485.609C485.328 150.21 484.433 150.849 483.257 150.849C481.467 150.849 480.317 149.366 480.317 147.091C480.317 144.866 481.493 143.409 483.257 143.409C484.587 143.409 485.379 144.227 485.609 145.122H487.118C486.862 143.281 485.302 142.054 483.231 142.054C480.572 142.054 478.808 144.151 478.808 147.142C478.808 150.082 480.496 152.205 483.257 152.205ZM490.832 138.909H489.323V152H490.832V138.909ZM493.595 152H495.103V142.182H493.595V152ZM494.362 140.545C494.95 140.545 495.435 140.085 495.435 139.523C495.435 138.96 494.95 138.5 494.362 138.5C493.774 138.5 493.288 138.96 493.288 139.523C493.288 140.085 493.774 140.545 494.362 140.545ZM501.983 152.205C503.977 152.205 505.434 151.207 505.894 149.724L504.437 149.315C504.054 150.338 503.165 150.849 501.983 150.849C500.212 150.849 498.991 149.705 498.921 147.602H506.048V146.963C506.048 143.307 503.875 142.054 501.829 142.054C499.17 142.054 497.406 144.151 497.406 147.168C497.406 150.185 499.144 152.205 501.983 152.205ZM498.921 146.298C499.023 144.771 500.103 143.409 501.829 143.409C503.465 143.409 504.514 144.636 504.514 146.298H498.921ZM509.851 146.094C509.851 144.381 510.912 143.409 512.357 143.409C513.757 143.409 514.607 144.323 514.607 145.864V152H516.115V145.761C516.115 143.256 514.779 142.054 512.791 142.054C511.309 142.054 510.388 142.719 509.928 143.716H509.8V142.182H508.343V152H509.851V146.094ZM523.142 142.182H521.045V139.83H519.537V142.182H518.054V143.46H519.537V149.597C519.537 151.31 520.917 152.128 522.196 152.128C522.758 152.128 523.116 152.026 523.321 151.949L523.014 150.594C522.886 150.619 522.682 150.67 522.349 150.67C521.684 150.67 521.045 150.466 521.045 149.188V143.46H523.142V142.182ZM531.982 138.909H530.473V152H531.982V138.909ZM534.745 152H536.253V142.182H534.745V152ZM535.512 140.545C536.1 140.545 536.586 140.085 536.586 139.523C536.586 138.96 536.1 138.5 535.512 138.5C534.924 138.5 534.438 138.96 534.438 139.523C534.438 140.085 534.924 140.545 535.512 140.545ZM539.221 152H540.678V150.491H540.857C541.19 151.028 541.829 152.205 543.721 152.205C546.176 152.205 547.889 150.236 547.889 147.116C547.889 144.023 546.176 142.054 543.695 142.054C541.778 142.054 541.19 143.23 540.857 143.741H540.729V138.909H539.221V152ZM540.704 147.091C540.704 144.892 541.676 143.409 543.516 143.409C545.434 143.409 546.38 145.02 546.38 147.091C546.38 149.188 545.408 150.849 543.516 150.849C541.701 150.849 540.704 149.315 540.704 147.091ZM550.196 152H551.705V145.787C551.705 144.457 552.753 143.486 554.185 143.486C554.587 143.486 555.003 143.562 555.105 143.588V142.054C554.933 142.041 554.536 142.028 554.313 142.028C553.136 142.028 552.114 142.693 551.756 143.665H551.653V142.182H550.196V152ZM559.783 152.23C561.496 152.23 562.391 151.31 562.697 150.67H562.774V152H564.283V145.531C564.283 142.412 561.905 142.054 560.652 142.054C559.169 142.054 557.481 142.565 556.714 144.355L558.146 144.866C558.479 144.151 559.265 143.384 560.703 143.384C562.09 143.384 562.774 144.119 562.774 145.378V145.429C562.774 146.158 562.033 146.094 560.243 146.324C558.421 146.56 556.433 146.963 556.433 149.213C556.433 151.131 557.916 152.23 559.783 152.23ZM560.013 150.875C558.811 150.875 557.942 150.338 557.942 149.29C557.942 148.139 558.99 147.781 560.166 147.628C560.805 147.551 562.518 147.372 562.774 147.065V148.446C562.774 149.673 561.802 150.875 560.013 150.875ZM567.036 152H568.544V145.787C568.544 144.457 569.593 143.486 571.025 143.486C571.427 143.486 571.843 143.562 571.945 143.588V142.054C571.772 142.041 571.376 142.028 571.152 142.028C569.976 142.028 568.954 142.693 568.596 143.665H568.493V142.182H567.036V152ZM575.004 155.682C576.365 155.682 577.324 154.96 577.893 153.432L582.073 142.207L580.424 142.182L577.714 150.006H577.612L574.901 142.182H573.265L576.896 152.051L576.614 152.818C576.065 154.314 575.387 154.455 574.288 154.173L573.904 155.503C574.058 155.58 574.492 155.682 575.004 155.682ZM587.086 138.295H583.302V139.548H585.654V153.406H583.302V154.659H587.086V138.295Z" fill="white"/>
<path d="M412.834 223.192C415.449 223.192 417.091 221.658 417.219 219.401H414.65C414.49 220.45 413.799 221.038 412.866 221.038C411.594 221.038 410.77 219.97 410.77 218.091C410.77 216.237 411.601 215.176 412.866 215.176C413.863 215.176 414.503 215.835 414.65 216.812H417.219C417.104 214.543 415.385 213.054 412.821 213.054C409.843 213.054 408.002 215.119 408.002 218.129C408.002 221.114 409.811 223.192 412.834 223.192ZM423.399 223.192C426.377 223.192 428.231 221.153 428.231 218.129C428.231 215.087 426.377 213.054 423.399 213.054C420.42 213.054 418.566 215.087 418.566 218.129C418.566 221.153 420.42 223.192 423.399 223.192ZM423.411 221.082C422.037 221.082 421.334 219.823 421.334 218.11C421.334 216.397 422.037 215.131 423.411 215.131C424.76 215.131 425.463 216.397 425.463 218.11C425.463 219.823 424.76 221.082 423.411 221.082ZM430.002 223H432.725V217.107C432.725 216.02 433.415 215.298 434.323 215.298C435.218 215.298 435.818 215.911 435.818 216.876V223H438.458V217.004C438.458 215.988 439.04 215.298 440.031 215.298C440.9 215.298 441.552 215.841 441.552 216.934V223H444.269V216.397C444.269 214.268 443.003 213.054 441.175 213.054C439.737 213.054 438.618 213.789 438.215 214.914H438.113C437.8 213.776 436.796 213.054 435.448 213.054C434.125 213.054 433.121 213.757 432.712 214.914H432.597V213.182H430.002V223ZM446.42 223H449.143V217.107C449.143 216.02 449.833 215.298 450.741 215.298C451.636 215.298 452.236 215.911 452.236 216.876V223H454.876V217.004C454.876 215.988 455.458 215.298 456.449 215.298C457.318 215.298 457.97 215.841 457.97 216.934V223H460.687V216.397C460.687 214.268 459.421 213.054 457.593 213.054C456.155 213.054 455.036 213.789 454.633 214.914H454.531C454.218 213.776 453.214 213.054 451.866 213.054C450.543 213.054 449.539 213.757 449.13 214.914H449.015V213.182H446.42V223ZM469.134 218.82C469.14 220.136 468.239 220.827 467.261 220.827C466.232 220.827 465.567 220.104 465.561 218.947V213.182H462.838V219.433C462.844 221.728 464.186 223.128 466.161 223.128C467.638 223.128 468.699 222.367 469.14 221.217H469.242V223H471.857V213.182H469.134V218.82ZM476.758 217.324C476.764 216.058 477.519 215.317 478.618 215.317C479.711 215.317 480.369 216.033 480.363 217.234V223H483.086V216.749C483.086 214.46 481.744 213.054 479.698 213.054C478.241 213.054 477.186 213.77 476.745 214.914H476.63V213.182H474.035V223H476.758V217.324ZM485.232 223H487.955V213.182H485.232V223ZM486.6 211.916C487.412 211.916 488.077 211.296 488.077 210.536C488.077 209.781 487.412 209.161 486.6 209.161C485.795 209.161 485.13 209.781 485.13 210.536C485.13 211.296 485.795 211.916 486.6 211.916ZM494.573 223.192C497.187 223.192 498.83 221.658 498.957 219.401H496.388C496.228 220.45 495.538 221.038 494.604 221.038C493.332 221.038 492.508 219.97 492.508 218.091C492.508 216.237 493.339 215.176 494.604 215.176C495.602 215.176 496.241 215.835 496.388 216.812H498.957C498.842 214.543 497.123 213.054 494.56 213.054C491.581 213.054 489.74 215.119 489.74 218.129C489.74 221.114 491.549 223.192 494.573 223.192ZM503.501 223.185C504.952 223.185 505.891 222.553 506.371 221.638H506.447V223H509.03V216.378C509.03 214.038 507.048 213.054 504.862 213.054C502.51 213.054 500.963 214.179 500.586 215.969L503.104 216.173C503.29 215.521 503.871 215.042 504.849 215.042C505.776 215.042 506.307 215.509 506.307 216.314V216.352C506.307 216.985 505.636 217.068 503.929 217.234C501.986 217.413 500.241 218.065 500.241 220.258C500.241 222.201 501.628 223.185 503.501 223.185ZM504.28 221.306C503.443 221.306 502.842 220.916 502.842 220.168C502.842 219.401 503.475 219.024 504.434 218.89C505.028 218.807 506 218.666 506.326 218.449V219.491C506.326 220.52 505.476 221.306 504.28 221.306ZM516.365 213.182H514.517V210.83H511.794V213.182H510.452V215.227H511.794V220.341C511.782 222.265 513.092 223.217 515.067 223.134C515.77 223.109 516.269 222.968 516.544 222.879L516.115 220.852C515.981 220.878 515.693 220.942 515.438 220.942C514.894 220.942 514.517 220.737 514.517 219.983V215.227H516.365V213.182ZM518.138 223H520.861V213.182H518.138V223ZM519.506 211.916C520.318 211.916 520.983 211.296 520.983 210.536C520.983 209.781 520.318 209.161 519.506 209.161C518.701 209.161 518.036 209.781 518.036 210.536C518.036 211.296 518.701 211.916 519.506 211.916ZM527.479 223.192C530.457 223.192 532.311 221.153 532.311 218.129C532.311 215.087 530.457 213.054 527.479 213.054C524.5 213.054 522.646 215.087 522.646 218.129C522.646 221.153 524.5 223.192 527.479 223.192ZM527.492 221.082C526.117 221.082 525.414 219.823 525.414 218.11C525.414 216.397 526.117 215.131 527.492 215.131C528.84 215.131 529.543 216.397 529.543 218.11C529.543 219.823 528.84 221.082 527.492 221.082ZM536.805 217.324C536.811 216.058 537.565 215.317 538.665 215.317C539.758 215.317 540.416 216.033 540.41 217.234V223H543.133V216.749C543.133 214.46 541.791 213.054 539.745 213.054C538.288 213.054 537.233 213.77 536.792 214.914H536.677V213.182H534.082V223H536.805V217.324ZM552.168 209.909H549.445V223H552.168V209.909ZM557.149 223.185C558.6 223.185 559.54 222.553 560.019 221.638H560.096V223H562.678V216.378C562.678 214.038 560.697 213.054 558.511 213.054C556.158 213.054 554.611 214.179 554.234 215.969L556.753 216.173C556.938 215.521 557.52 215.042 558.498 215.042C559.425 215.042 559.955 215.509 559.955 216.314V216.352C559.955 216.985 559.284 217.068 557.577 217.234C555.634 217.413 553.889 218.065 553.889 220.258C553.889 222.201 555.276 223.185 557.149 223.185ZM557.929 221.306C557.092 221.306 556.491 220.916 556.491 220.168C556.491 219.401 557.123 219.024 558.082 218.89C558.677 218.807 559.648 218.666 559.974 218.449V219.491C559.974 220.52 559.124 221.306 557.929 221.306ZM566.12 226.682C568.147 226.682 569.22 225.646 569.777 224.061L573.593 213.195L570.71 213.182L568.658 220.392H568.556L566.523 213.182H563.659L567.181 223.281L567.022 223.697C566.664 224.617 565.98 224.662 565.021 224.368L564.407 226.401C564.797 226.567 565.43 226.682 566.12 226.682ZM579.127 223.192C581.555 223.192 583.192 222.009 583.575 220.188L581.057 220.021C580.782 220.769 580.079 221.159 579.171 221.159C577.81 221.159 576.947 220.258 576.947 218.794V218.788H583.633V218.04C583.633 214.703 581.613 213.054 579.018 213.054C576.129 213.054 574.256 215.106 574.256 218.136C574.256 221.249 576.103 223.192 579.127 223.192ZM576.947 217.1C577.004 215.982 577.854 215.087 579.063 215.087C580.245 215.087 581.063 215.93 581.07 217.1H576.947ZM585.41 223H588.133V217.445C588.133 216.237 589.015 215.406 590.217 215.406C590.594 215.406 591.112 215.47 591.367 215.553V213.137C591.124 213.08 590.786 213.041 590.511 213.041C589.411 213.041 588.51 213.68 588.152 214.895H588.05V213.182H585.41V223ZM460.568 247.659H464.353V246.406H462V232.548H464.353V231.295H460.568V247.659ZM467.857 239.094C467.857 237.381 468.918 236.409 470.363 236.409C471.763 236.409 472.613 237.323 472.613 238.864V245H474.121V238.761C474.121 236.256 472.785 235.054 470.797 235.054C469.314 235.054 468.394 235.719 467.934 236.716H467.806V235.182H466.348V245H467.857V239.094ZM480.994 245.205C482.989 245.205 484.446 244.207 484.906 242.724L483.449 242.315C483.065 243.338 482.177 243.849 480.994 243.849C479.224 243.849 478.003 242.705 477.932 240.602H485.06V239.963C485.06 236.307 482.886 235.054 480.841 235.054C478.182 235.054 476.418 237.151 476.418 240.168C476.418 243.185 478.156 245.205 480.994 245.205ZM477.932 239.298C478.035 237.771 479.115 236.409 480.841 236.409C482.477 236.409 483.525 237.636 483.525 239.298H477.932ZM491.624 235.182H489.528V232.83H488.019V235.182H486.536V236.46H488.019V242.597C488.019 244.31 489.4 245.128 490.678 245.128C491.241 245.128 491.599 245.026 491.803 244.949L491.496 243.594C491.369 243.619 491.164 243.67 490.832 243.67C490.167 243.67 489.528 243.466 489.528 242.188V236.46H491.624V235.182ZM496.118 245H497.601L499.748 237.457H499.902L502.05 245H503.533L506.524 235.182H504.939L502.817 242.673H502.714L500.643 235.182H499.033L496.936 242.699H496.834L494.712 235.182H493.126L496.118 245ZM512.173 245.205C514.832 245.205 516.622 243.185 516.622 240.142C516.622 237.074 514.832 235.054 512.173 235.054C509.514 235.054 507.724 237.074 507.724 240.142C507.724 243.185 509.514 245.205 512.173 245.205ZM512.173 243.849C510.153 243.849 509.233 242.111 509.233 240.142C509.233 238.173 510.153 236.409 512.173 236.409C514.193 236.409 515.113 238.173 515.113 240.142C515.113 242.111 514.193 243.849 512.173 243.849ZM518.925 245H520.433V238.787C520.433 237.457 521.481 236.486 522.913 236.486C523.316 236.486 523.731 236.562 523.834 236.588V235.054C523.661 235.041 523.265 235.028 523.041 235.028C521.865 235.028 520.842 235.693 520.484 236.665H520.382V235.182H518.925V245ZM525.622 245H527.13V241.325L528.185 240.347L531.861 245H533.778L529.323 239.375L533.471 235.182H531.605L527.309 239.554H527.13V231.909H525.622V245ZM538.43 231.295H534.646V232.548H536.998V246.406H534.646V247.659H538.43V231.295Z" fill="white"/>
<rect x="17.5" y="22.5" width="826" height="163" rx="8.5" stroke="#4079A2" stroke-width="3" stroke-dasharray="6 6"/>
<rect x="17.5" y="269.5" width="826" height="160" rx="8.5" stroke="#4079A2" stroke-width="3" stroke-dasharray="6 6"/>
<path d="M38.7418 59L39.7134 56.0149H44.4371L45.4087 59H48.3746L43.8619 45.9091H40.2951L35.7759 59H38.7418ZM40.4165 53.8544L42.0273 48.9006H42.1296L43.7404 53.8544H40.4165ZM49.8991 62.6818H52.6222V57.4276H52.7053C53.0824 58.2457 53.907 59.1598 55.4922 59.1598C57.7294 59.1598 59.4744 57.3892 59.4744 54.1037C59.4744 50.7287 57.6527 49.054 55.4986 49.054C53.8558 49.054 53.0696 50.032 52.7053 50.831H52.5838V49.1818H49.8991V62.6818ZM52.5646 54.0909C52.5646 52.3395 53.3061 51.2209 54.6293 51.2209C55.978 51.2209 56.6939 52.3906 56.6939 54.0909C56.6939 55.804 55.9652 56.9929 54.6293 56.9929C53.3189 56.9929 52.5646 55.8423 52.5646 54.0909ZM61.2898 62.6818H64.0128V57.4276H64.0959C64.473 58.2457 65.2976 59.1598 66.8828 59.1598C69.12 59.1598 70.8651 57.3892 70.8651 54.1037C70.8651 50.7287 69.0433 49.054 66.8892 49.054C65.2464 49.054 64.4602 50.032 64.0959 50.831H63.9744V49.1818L61.2898 49.1818V62.6818ZM63.9553 54.0909C63.9553 52.3395 64.6967 51.2209 66.0199 51.2209C67.3686 51.2209 68.0845 52.3906 68.0845 54.0909C68.0845 55.804 67.3558 56.9929 66.0199 56.9929C64.7095 56.9929 63.9553 55.8423 63.9553 54.0909ZM75.4034 45.9091H72.6804V59H75.4034V45.9091ZM77.5847 59H80.3077V49.1818H77.5847V59ZM78.9526 47.9162C79.7644 47.9162 80.4292 47.2962 80.4292 46.5355C80.4292 45.7813 79.7644 45.1612 78.9526 45.1612C78.1472 45.1612 77.4824 45.7813 77.4824 46.5355C77.4824 47.2962 78.1472 47.9162 78.9526 47.9162ZM86.9251 59.1918C89.5394 59.1918 91.1822 57.6577 91.31 55.4013H88.7404C88.5806 56.4496 87.8903 57.0376 86.957 57.0376C85.685 57.0376 84.8604 55.9702 84.8604 54.0909C84.8604 52.2372 85.6914 51.1761 86.957 51.1761C87.9542 51.1761 88.5934 51.8345 88.7404 52.8125H91.31C91.195 50.5433 89.4755 49.054 86.9123 49.054C83.9336 49.054 82.0927 51.1186 82.0927 54.1293C82.0927 57.1143 83.9016 59.1918 86.9251 59.1918ZM95.8532 59.1854C97.3042 59.1854 98.2438 58.5526 98.7232 57.6385H98.7999V59H101.382V52.3778C101.382 50.0384 99.4007 49.054 97.2147 49.054C94.8624 49.054 93.3155 50.179 92.9384 51.9688L95.4569 52.1733C95.6422 51.5213 96.2239 51.0419 97.2019 51.0419C98.1287 51.0419 98.6593 51.5085 98.6593 52.3139V52.3523C98.6593 52.9851 97.9881 53.0682 96.2814 53.2344C94.3382 53.4134 92.5932 54.0653 92.5932 56.2578C92.5932 58.201 93.9803 59.1854 95.8532 59.1854ZM96.633 57.3061C95.7956 57.3061 95.1948 56.9162 95.1948 56.1683C95.1948 55.4013 95.8276 55.0241 96.7864 54.8899C97.3809 54.8068 98.3525 54.6662 98.6784 54.4489V55.4908C98.6784 56.5199 97.8283 57.3061 96.633 57.3061ZM108.717 49.1818H106.87V46.8295H104.147V49.1818H102.805V51.2273H104.147V56.3409C104.134 58.2649 105.444 59.2173 107.42 59.1342C108.123 59.1087 108.621 58.968 108.896 58.8786L108.468 56.8523C108.334 56.8778 108.046 56.9418 107.79 56.9418C107.247 56.9418 106.87 56.7372 106.87 55.983V51.2273H108.717V49.1818ZM110.491 59H113.214V49.1818H110.491V59ZM111.859 47.9162C112.671 47.9162 113.335 47.2962 113.335 46.5355C113.335 45.7813 112.671 45.1612 111.859 45.1612C111.053 45.1612 110.389 45.7813 110.389 46.5355C110.389 47.2962 111.053 47.9162 111.859 47.9162ZM119.831 59.1918C122.81 59.1918 124.664 57.1527 124.664 54.1293C124.664 51.0866 122.81 49.054 119.831 49.054C116.853 49.054 114.999 51.0866 114.999 54.1293C114.999 57.1527 116.853 59.1918 119.831 59.1918ZM119.844 57.0824C118.47 57.0824 117.767 55.8232 117.767 54.1101C117.767 52.397 118.47 51.1314 119.844 51.1314C121.193 51.1314 121.896 52.397 121.896 54.1101C121.896 55.8232 121.193 57.0824 119.844 57.0824ZM129.157 53.3239C129.164 52.0582 129.918 51.3168 131.017 51.3168C132.11 51.3168 132.769 52.0327 132.762 53.2344V59H135.485V52.7486C135.485 50.4602 134.143 49.054 132.098 49.054C130.64 49.054 129.586 49.7699 129.145 50.9141H129.029V49.1818H126.434V59H129.157V53.3239ZM145.801 51.9815C145.558 50.1726 144.1 49.054 141.62 49.054C139.108 49.054 137.453 50.2173 137.459 52.1094C137.453 53.5795 138.379 54.532 140.297 54.9155L141.997 55.2543C142.854 55.4268 143.244 55.7401 143.257 56.2322C143.244 56.8139 142.611 57.2294 141.659 57.2294C140.687 57.2294 140.041 56.8139 139.875 56.0149L137.197 56.1555C137.453 58.0348 139.051 59.1918 141.652 59.1918C144.196 59.1918 146.018 57.8942 146.024 55.9574C146.018 54.5384 145.091 53.6882 143.186 53.2983L141.409 52.9403C140.495 52.7422 140.156 52.429 140.163 51.956C140.156 51.3679 140.821 50.9844 141.665 50.9844C142.611 50.9844 143.173 51.5021 143.308 52.1349L145.801 51.9815Z" fill="#4079A2"/>
<path d="M39.1468 289.909H36.379V303H39.1468V289.909ZM53.4537 296.455C53.4537 292.172 50.7947 289.73 47.3238 289.73C43.8337 289.73 41.1938 292.172 41.1938 296.455C41.1938 300.718 43.8337 303.179 47.3238 303.179C50.7947 303.179 53.4537 300.737 53.4537 296.455ZM50.6476 296.455C50.6476 299.229 49.3309 300.731 47.3238 300.731C45.3103 300.731 43.9999 299.229 43.9999 296.455C43.9999 293.68 45.3103 292.178 47.3238 292.178C49.3309 292.178 50.6476 293.68 50.6476 296.455ZM54.4253 292.191H58.4332V303H61.1689V292.191H65.1768V289.909H54.4253V292.191ZM67.5866 303L68.5582 300.015H73.2819L74.2535 303H77.2194L72.7066 289.909H69.1398L64.6206 303H67.5866ZM69.2613 297.854L70.8721 292.901H70.9743L72.5851 297.854H69.2613ZM93.9106 289.909H91.1556V298.142H91.0406L85.39 289.909H82.961V303H85.7288V294.761H85.8247L91.52 303H93.9106V289.909ZM100.621 303.192C103.05 303.192 104.686 302.009 105.07 300.188L102.551 300.021C102.276 300.769 101.573 301.159 100.665 301.159C99.3039 301.159 98.441 300.258 98.441 298.794V298.788H105.127V298.04C105.127 294.703 103.107 293.054 100.512 293.054C97.6228 293.054 95.7499 295.106 95.7499 298.136C95.7499 301.249 97.5972 303.192 100.621 303.192ZM98.441 297.1C98.4985 295.982 99.3486 295.087 100.557 295.087C101.739 295.087 102.557 295.93 102.564 297.1H98.441ZM112.126 293.182H110.279V290.83H107.556V293.182H106.214V295.227H107.556V300.341C107.543 302.265 108.854 303.217 110.829 303.134C111.532 303.109 112.03 302.968 112.305 302.879L111.877 300.852C111.743 300.878 111.455 300.942 111.199 300.942C110.656 300.942 110.279 300.737 110.279 299.983V295.227H112.126V293.182ZM115.837 303H118.713L120.401 296.825H120.522L122.21 303H125.093L127.758 293.182H125.009L123.514 299.74H123.431L121.82 293.182H119.116L117.531 299.778H117.441L115.92 293.182H113.165L115.837 303ZM133.401 303.192C136.379 303.192 138.233 301.153 138.233 298.129C138.233 295.087 136.379 293.054 133.401 293.054C130.422 293.054 128.568 295.087 128.568 298.129C128.568 301.153 130.422 303.192 133.401 303.192ZM133.413 301.082C132.039 301.082 131.336 299.823 131.336 298.11C131.336 296.397 132.039 295.131 133.413 295.131C134.762 295.131 135.465 296.397 135.465 298.11C135.465 299.823 134.762 301.082 133.413 301.082ZM140.004 303H142.727V297.445C142.727 296.237 143.609 295.406 144.81 295.406C145.188 295.406 145.705 295.47 145.961 295.553V293.137C145.718 293.08 145.379 293.041 145.104 293.041C144.005 293.041 143.104 293.68 142.746 294.895H142.644V293.182H140.004V303ZM147.369 303H150.092V299.881L150.827 299.043L153.505 303H156.695L152.866 297.433L156.509 293.182H153.384L150.239 296.908H150.092V289.909H147.369V303Z" fill="#4079A2"/>
</svg>
