<svg width="1513" height="452" viewBox="0 0 1513 452" fill="none" xmlns="http://www.w3.org/2000/svg">
<g clip-path="url(#clip0_157:1583)">
<rect x="0.5" y="0.5" width="1658" height="451" fill="#111F3B" stroke="#293856"/>
<rect x="180" y="44" width="312" height="55" rx="5" fill="#485A68"/>
<rect x="838" y="43" width="308" height="55" rx="5" fill="#485A68"/>
<rect x="1167" y="43" width="308" height="55" rx="5" fill="#485A68"/>
<rect x="511" y="44" width="308" height="55" rx="5" fill="#485A68"/>
<rect x="180" y="107" width="1297" height="55" rx="5" fill="#4EA793"/>
<rect x="180" y="200" width="1295" height="55" rx="5" fill="#C56550"/>
<rect x="180" y="285" width="1295" height="55" rx="5" stroke="#369FAB" stroke-width="3"/>
<rect x="180" y="357" width="639" height="55" rx="5" fill="#499785"/>
<rect x="838" y="357" width="637" height="55" rx="5" fill="#B7784A"/>
<path d="M307.404 60.3239C307.411 59.0582 308.165 58.3168 309.264 58.3168C310.358 58.3168 311.016 59.0327 311.009 60.2344V66H313.733V59.7486C313.733 57.4602 312.39 56.054 310.345 56.054C308.887 56.054 307.833 56.7699 307.392 57.9141H307.277V56.1818H304.681V66H307.404V60.3239ZM320.315 66.1918C323.293 66.1918 325.147 64.1527 325.147 61.1293C325.147 58.0866 323.293 56.054 320.315 56.054C317.336 56.054 315.482 58.0866 315.482 61.1293C315.482 64.1527 317.336 66.1918 320.315 66.1918ZM320.328 64.0824C318.953 64.0824 318.25 62.8232 318.25 61.1101C318.25 59.397 318.953 58.1314 320.328 58.1314C321.676 58.1314 322.379 59.397 322.379 61.1101C322.379 62.8232 321.676 64.0824 320.328 64.0824ZM330.536 66.1598C332.121 66.1598 332.945 65.2457 333.323 64.4276H333.438V66H336.122V52.9091H333.406V57.831H333.323C332.958 57.032 332.172 56.054 330.529 56.054C328.375 56.054 326.553 57.7287 326.553 61.1037C326.553 64.3892 328.298 66.1598 330.536 66.1598ZM331.399 63.9929C330.063 63.9929 329.334 62.804 329.334 61.0909C329.334 59.3906 330.05 58.2209 331.399 58.2209C332.722 58.2209 333.463 59.3395 333.463 61.0909C333.463 62.8423 332.709 63.9929 331.399 63.9929ZM342.835 66.1918C345.264 66.1918 346.901 65.0092 347.284 63.1875L344.766 63.0213C344.491 63.7692 343.788 64.1591 342.88 64.1591C341.519 64.1591 340.656 63.2578 340.656 61.794V61.7876H347.342V61.0398C347.342 57.7031 345.322 56.054 342.727 56.054C339.838 56.054 337.965 58.1058 337.965 61.1357C337.965 64.2486 339.812 66.1918 342.835 66.1918ZM340.656 60.1001C340.713 58.9815 341.563 58.0866 342.772 58.0866C343.954 58.0866 344.772 58.9304 344.779 60.1001H340.656ZM350.71 66.1662C351.529 66.1662 352.238 65.4822 352.245 64.6321C352.238 63.7947 351.529 63.1108 350.71 63.1108C349.867 63.1108 349.17 63.7947 349.176 64.6321C349.17 65.4822 349.867 66.1662 350.71 66.1662ZM354.48 56.1818V66.4411C354.48 67.1825 354.167 67.5533 353.291 67.5533C353.176 67.5533 353.074 67.5533 352.933 67.5405V69.669C353.131 69.6754 353.291 69.6818 353.483 69.6818C355.797 69.6818 357.203 68.7614 357.203 66.4858V56.1818H354.48ZM355.835 54.9162C356.647 54.9162 357.312 54.2962 357.312 53.5355C357.312 52.7812 356.647 52.1612 355.835 52.1612C355.03 52.1612 354.365 52.7812 354.365 53.5355C354.365 54.2962 355.03 54.9162 355.835 54.9162ZM367.554 58.9815C367.311 57.1726 365.853 56.054 363.373 56.054C360.861 56.054 359.206 57.2173 359.212 59.1094C359.206 60.5795 360.132 61.532 362.05 61.9155L363.75 62.2543C364.607 62.4268 364.997 62.7401 365.009 63.2322C364.997 63.8139 364.364 64.2294 363.411 64.2294C362.44 64.2294 361.794 63.8139 361.628 63.0149L358.95 63.1555C359.206 65.0348 360.804 66.1918 363.405 66.1918C365.949 66.1918 367.771 64.8942 367.777 62.9574C367.771 61.5384 366.844 60.6882 364.939 60.2983L363.162 59.9403C362.248 59.7422 361.909 59.429 361.916 58.956C361.909 58.3679 362.574 57.9844 363.418 57.9844C364.364 57.9844 364.926 58.5021 365.061 59.1349L367.554 58.9815ZM306.12 88H307.578V86.4915H307.757C308.089 87.0284 308.728 88.2045 310.62 88.2045C313.075 88.2045 314.788 86.2358 314.788 83.1165C314.788 80.0227 313.075 78.054 310.595 78.054C308.677 78.054 308.089 79.2301 307.757 79.7415H307.629V74.9091H306.12V88ZM307.603 83.0909C307.603 80.892 308.575 79.4091 310.416 79.4091C312.333 79.4091 313.279 81.0199 313.279 83.0909C313.279 85.1875 312.308 86.8494 310.416 86.8494C308.6 86.8494 307.603 85.3153 307.603 83.0909ZM317.096 88H318.604V78.1818H317.096V88ZM317.863 76.5455C318.451 76.5455 318.936 76.0852 318.936 75.5227C318.936 74.9602 318.451 74.5 317.863 74.5C317.275 74.5 316.789 74.9602 316.789 75.5227C316.789 76.0852 317.275 76.5455 317.863 76.5455ZM322.876 82.0938C322.876 80.3807 323.937 79.4091 325.381 79.4091C326.781 79.4091 327.631 80.3232 327.631 81.8636V88H329.14V81.7614C329.14 79.2557 327.804 78.054 325.816 78.054C324.333 78.054 323.412 78.7188 322.952 79.7159H322.824V78.1818H321.367V88H322.876V82.0938ZM335.604 88.2045C337.496 88.2045 338.135 87.0284 338.467 86.4915H338.646V88H340.104V74.9091H338.595V79.7415H338.467C338.135 79.2301 337.547 78.054 335.629 78.054C333.149 78.054 331.436 80.0227 331.436 83.1165C331.436 86.2358 333.149 88.2045 335.604 88.2045ZM335.808 86.8494C333.916 86.8494 332.945 85.1875 332.945 83.0909C332.945 81.0199 333.891 79.4091 335.808 79.4091C337.649 79.4091 338.621 80.892 338.621 83.0909C338.621 85.3153 337.624 86.8494 335.808 86.8494ZM343.076 88H344.585V78.1818H343.076V88ZM343.843 76.5455C344.431 76.5455 344.917 76.0852 344.917 75.5227C344.917 74.9602 344.431 74.5 343.843 74.5C343.255 74.5 342.769 74.9602 342.769 75.5227C342.769 76.0852 343.255 76.5455 343.843 76.5455ZM348.856 82.0938C348.856 80.3807 349.917 79.4091 351.362 79.4091C352.762 79.4091 353.612 80.3232 353.612 81.8636V88H355.12V81.7614C355.12 79.2557 353.784 78.054 351.796 78.054C350.313 78.054 349.393 78.7188 348.933 79.7159H348.805V78.1818H347.347V88H348.856V82.0938ZM361.84 91.8864C364.192 91.8864 366.084 90.8125 366.084 88.2812V78.1818H364.627V79.7415H364.473C364.141 79.2301 363.527 78.054 361.61 78.054C359.13 78.054 357.417 80.0227 357.417 83.0398C357.417 86.108 359.206 87.8466 361.584 87.8466C363.502 87.8466 364.115 86.7216 364.448 86.1847H364.576V88.179C364.576 89.8153 363.425 90.5568 361.84 90.5568C360.056 90.5568 359.43 89.6172 359.027 89.0739L357.826 89.9176C358.439 90.9467 359.647 91.8864 361.84 91.8864ZM361.789 86.4915C359.897 86.4915 358.925 85.0597 358.925 83.0142C358.925 81.0199 359.871 79.4091 361.789 79.4091C363.63 79.4091 364.601 80.892 364.601 83.0142C364.601 85.1875 363.604 86.4915 361.789 86.4915Z" fill="white"/>
<path d="M634.947 69.6818H637.67V64.4276H637.753C638.13 65.2457 638.955 66.1598 640.54 66.1598C642.777 66.1598 644.522 64.3892 644.522 61.1037C644.522 57.7287 642.701 56.054 640.546 56.054C638.904 56.054 638.117 57.032 637.753 57.831H637.632V56.1818H634.947V69.6818ZM637.612 61.0909C637.612 59.3395 638.354 58.2209 639.677 58.2209C641.026 58.2209 641.742 59.3906 641.742 61.0909C641.742 62.804 641.013 63.9929 639.677 63.9929C638.367 63.9929 637.612 62.8423 637.612 61.0909ZM647.685 69.6818C649.711 69.6818 650.785 68.6463 651.341 67.0611L655.157 56.1946L652.274 56.1818L650.222 63.392H650.12L648.087 56.1818H645.224L648.746 66.2812L648.586 66.6967C648.228 67.6172 647.544 67.6619 646.585 67.3679L645.972 69.4006C646.362 69.5668 646.994 69.6818 647.685 69.6818ZM661.773 56.1818H659.926V53.8295H657.203V56.1818H655.86V58.2273H657.203V63.3409C657.19 65.2649 658.5 66.2173 660.475 66.1342C661.178 66.1087 661.677 65.968 661.952 65.8786L661.524 63.8523C661.389 63.8778 661.102 63.9418 660.846 63.9418C660.303 63.9418 659.926 63.7372 659.926 62.983V58.2273H661.773V56.1818ZM666.481 60.3239C666.487 59.0582 667.26 58.3168 668.373 58.3168C669.478 58.3168 670.13 59.0263 670.124 60.2344V66H672.847V59.7486C672.853 57.4474 671.498 56.054 669.453 56.054C667.964 56.054 666.966 56.7571 666.519 57.9141H666.404V52.9091H663.758V66H666.481V60.3239ZM679.426 66.1918C682.405 66.1918 684.258 64.1527 684.258 61.1293C684.258 58.0866 682.405 56.054 679.426 56.054C676.447 56.054 674.594 58.0866 674.594 61.1293C674.594 64.1527 676.447 66.1918 679.426 66.1918ZM679.439 64.0824C678.065 64.0824 677.361 62.8232 677.361 61.1101C677.361 59.397 678.065 58.1314 679.439 58.1314C680.788 58.1314 681.491 59.397 681.491 61.1101C681.491 62.8232 680.788 64.0824 679.439 64.0824ZM688.752 60.3239C688.758 59.0582 689.513 58.3168 690.612 58.3168C691.705 58.3168 692.364 59.0327 692.357 60.2344V66H695.08V59.7486C695.08 57.4602 693.738 56.054 691.692 56.054C690.235 56.054 689.18 56.7699 688.739 57.9141H688.624V56.1818H686.029V66H688.752V60.3239ZM635.12 88H636.578V86.4915H636.757C637.089 87.0284 637.728 88.2045 639.62 88.2045C642.075 88.2045 643.788 86.2358 643.788 83.1165C643.788 80.0227 642.075 78.054 639.595 78.054C637.677 78.054 637.089 79.2301 636.757 79.7415H636.629V74.9091H635.12V88ZM636.603 83.0909C636.603 80.892 637.575 79.4091 639.416 79.4091C641.333 79.4091 642.279 81.0199 642.279 83.0909C642.279 85.1875 641.308 86.8494 639.416 86.8494C637.6 86.8494 636.603 85.3153 636.603 83.0909ZM646.096 88H647.604V78.1818H646.096V88ZM646.863 76.5455C647.451 76.5455 647.936 76.0852 647.936 75.5227C647.936 74.9602 647.451 74.5 646.863 74.5C646.275 74.5 645.789 74.9602 645.789 75.5227C645.789 76.0852 646.275 76.5455 646.863 76.5455ZM651.876 82.0938C651.876 80.3807 652.937 79.4091 654.381 79.4091C655.781 79.4091 656.631 80.3232 656.631 81.8636V88H658.14V81.7614C658.14 79.2557 656.804 78.054 654.816 78.054C653.333 78.054 652.412 78.7188 651.952 79.7159H651.824V78.1818H650.367V88H651.876V82.0938ZM664.604 88.2045C666.496 88.2045 667.135 87.0284 667.467 86.4915H667.646V88H669.104V74.9091H667.595V79.7415H667.467C667.135 79.2301 666.547 78.054 664.629 78.054C662.149 78.054 660.436 80.0227 660.436 83.1165C660.436 86.2358 662.149 88.2045 664.604 88.2045ZM664.808 86.8494C662.916 86.8494 661.945 85.1875 661.945 83.0909C661.945 81.0199 662.891 79.4091 664.808 79.4091C666.649 79.4091 667.621 80.892 667.621 83.0909C667.621 85.3153 666.624 86.8494 664.808 86.8494ZM672.076 88H673.585V78.1818H672.076V88ZM672.843 76.5455C673.431 76.5455 673.917 76.0852 673.917 75.5227C673.917 74.9602 673.431 74.5 672.843 74.5C672.255 74.5 671.769 74.9602 671.769 75.5227C671.769 76.0852 672.255 76.5455 672.843 76.5455ZM677.856 82.0938C677.856 80.3807 678.917 79.4091 680.362 79.4091C681.762 79.4091 682.612 80.3232 682.612 81.8636V88H684.12V81.7614C684.12 79.2557 682.784 78.054 680.796 78.054C679.313 78.054 678.393 78.7188 677.933 79.7159H677.805V78.1818H676.347V88H677.856V82.0938ZM690.84 91.8864C693.192 91.8864 695.084 90.8125 695.084 88.2812V78.1818H693.627V79.7415H693.473C693.141 79.2301 692.527 78.054 690.61 78.054C688.13 78.054 686.417 80.0227 686.417 83.0398C686.417 86.108 688.206 87.8466 690.584 87.8466C692.502 87.8466 693.115 86.7216 693.448 86.1847H693.576V88.179C693.576 89.8153 692.425 90.5568 690.84 90.5568C689.056 90.5568 688.43 89.6172 688.027 89.0739L686.826 89.9176C687.439 90.9467 688.647 91.8864 690.84 91.8864ZM690.789 86.4915C688.897 86.4915 687.925 85.0597 687.925 83.0142C687.925 81.0199 688.871 79.4091 690.789 79.4091C692.63 79.4091 693.601 80.892 693.601 83.0142C693.601 85.1875 692.604 86.4915 690.789 86.4915Z" fill="white"/>
<path d="M977.236 56.1818V66.4411C977.236 67.1825 976.923 67.5533 976.047 67.5533C975.932 67.5533 975.83 67.5533 975.689 67.5405V69.669C975.887 69.6754 976.047 69.6818 976.239 69.6818C978.553 69.6818 979.959 68.7614 979.959 66.4858V56.1818H977.236ZM978.591 54.9162C979.403 54.9162 980.068 54.2962 980.068 53.5355C980.068 52.7812 979.403 52.1612 978.591 52.1612C977.786 52.1612 977.121 52.7812 977.121 53.5355C977.121 54.2962 977.786 54.9162 978.591 54.9162ZM984.94 66.1854C986.391 66.1854 987.331 65.5526 987.81 64.6385H987.887V66H990.469V59.3778C990.469 57.0384 988.488 56.054 986.302 56.054C983.949 56.054 982.402 57.179 982.025 58.9688L984.544 59.1733C984.729 58.5213 985.311 58.0419 986.289 58.0419C987.216 58.0419 987.746 58.5085 987.746 59.3139V59.3523C987.746 59.9851 987.075 60.0682 985.368 60.2344C983.425 60.4134 981.68 61.0653 981.68 63.2578C981.68 65.201 983.067 66.1854 984.94 66.1854ZM985.72 64.3061C984.883 64.3061 984.282 63.9162 984.282 63.1683C984.282 62.4013 984.915 62.0241 985.873 61.8899C986.468 61.8068 987.439 61.6662 987.765 61.4489V62.4908C987.765 63.5199 986.915 64.3061 985.72 64.3061ZM1001.38 56.1818H998.501L996.468 63.2067H996.366L994.327 56.1818H991.45L994.883 66H997.951L1001.38 56.1818ZM1005.3 66.1854C1006.75 66.1854 1007.69 65.5526 1008.17 64.6385H1008.24V66H1010.82V59.3778C1010.82 57.0384 1008.84 56.054 1006.66 56.054C1004.3 56.054 1002.76 57.179 1002.38 58.9688L1004.9 59.1733C1005.08 58.5213 1005.67 58.0419 1006.64 58.0419C1007.57 58.0419 1008.1 58.5085 1008.1 59.3139V59.3523C1008.1 59.9851 1007.43 60.0682 1005.72 60.2344C1003.78 60.4134 1002.04 61.0653 1002.04 63.2578C1002.04 65.201 1003.42 66.1854 1005.3 66.1854ZM1006.08 64.3061C1005.24 64.3061 1004.64 63.9162 1004.64 63.1683C1004.64 62.4013 1005.27 62.0241 1006.23 61.8899C1006.82 61.8068 1007.79 61.6662 1008.12 61.4489V62.4908C1008.12 63.5199 1007.27 64.3061 1006.08 64.3061ZM964.12 88H965.578V86.4915H965.757C966.089 87.0284 966.728 88.2045 968.62 88.2045C971.075 88.2045 972.788 86.2358 972.788 83.1165C972.788 80.0227 971.075 78.054 968.595 78.054C966.677 78.054 966.089 79.2301 965.757 79.7415H965.629V74.9091H964.12V88ZM965.603 83.0909C965.603 80.892 966.575 79.4091 968.416 79.4091C970.333 79.4091 971.279 81.0199 971.279 83.0909C971.279 85.1875 970.308 86.8494 968.416 86.8494C966.6 86.8494 965.603 85.3153 965.603 83.0909ZM975.096 88H976.604V78.1818H975.096V88ZM975.863 76.5455C976.451 76.5455 976.936 76.0852 976.936 75.5227C976.936 74.9602 976.451 74.5 975.863 74.5C975.275 74.5 974.789 74.9602 974.789 75.5227C974.789 76.0852 975.275 76.5455 975.863 76.5455ZM980.876 82.0938C980.876 80.3807 981.937 79.4091 983.381 79.4091C984.781 79.4091 985.631 80.3232 985.631 81.8636V88H987.14V81.7614C987.14 79.2557 985.804 78.054 983.816 78.054C982.333 78.054 981.412 78.7188 980.952 79.7159H980.824V78.1818H979.367V88H980.876V82.0938ZM993.604 88.2045C995.496 88.2045 996.135 87.0284 996.467 86.4915H996.646V88H998.104V74.9091H996.595V79.7415H996.467C996.135 79.2301 995.547 78.054 993.629 78.054C991.149 78.054 989.436 80.0227 989.436 83.1165C989.436 86.2358 991.149 88.2045 993.604 88.2045ZM993.808 86.8494C991.916 86.8494 990.945 85.1875 990.945 83.0909C990.945 81.0199 991.891 79.4091 993.808 79.4091C995.649 79.4091 996.621 80.892 996.621 83.0909C996.621 85.3153 995.624 86.8494 993.808 86.8494ZM1001.08 88H1002.58V78.1818H1001.08V88ZM1001.84 76.5455C1002.43 76.5455 1002.92 76.0852 1002.92 75.5227C1002.92 74.9602 1002.43 74.5 1001.84 74.5C1001.25 74.5 1000.77 74.9602 1000.77 75.5227C1000.77 76.0852 1001.25 76.5455 1001.84 76.5455ZM1006.86 82.0938C1006.86 80.3807 1007.92 79.4091 1009.36 79.4091C1010.76 79.4091 1011.61 80.3232 1011.61 81.8636V88H1013.12V81.7614C1013.12 79.2557 1011.78 78.054 1009.8 78.054C1008.31 78.054 1007.39 78.7188 1006.93 79.7159H1006.8V78.1818H1005.35V88H1006.86V82.0938ZM1019.84 91.8864C1022.19 91.8864 1024.08 90.8125 1024.08 88.2812V78.1818H1022.63V79.7415H1022.47C1022.14 79.2301 1021.53 78.054 1019.61 78.054C1017.13 78.054 1015.42 80.0227 1015.42 83.0398C1015.42 86.108 1017.21 87.8466 1019.58 87.8466C1021.5 87.8466 1022.12 86.7216 1022.45 86.1847H1022.58V88.179C1022.58 89.8153 1021.43 90.5568 1019.84 90.5568C1018.06 90.5568 1017.43 89.6172 1017.03 89.0739L1015.83 89.9176C1016.44 90.9467 1017.65 91.8864 1019.84 91.8864ZM1019.79 86.4915C1017.9 86.4915 1016.93 85.0597 1016.93 83.0142C1016.93 81.0199 1017.87 79.4091 1019.79 79.4091C1021.63 79.4091 1022.6 80.892 1022.6 83.0142C1022.6 85.1875 1021.6 86.4915 1019.79 86.4915Z" fill="white"/>
<path d="M1299.88 66H1302.76L1304.45 59.8253H1304.57L1306.26 66H1309.14L1311.81 56.1818H1309.06L1307.56 62.7401H1307.48L1305.87 56.1818H1303.16L1301.58 62.7784H1301.49L1299.97 56.1818H1297.21L1299.88 66ZM1316.06 66.1854C1317.51 66.1854 1318.45 65.5526 1318.93 64.6385H1319V66H1321.59V59.3778C1321.59 57.0384 1319.61 56.054 1317.42 56.054C1315.07 56.054 1313.52 57.179 1313.14 58.9688L1315.66 59.1733C1315.85 58.5213 1316.43 58.0419 1317.41 58.0419C1318.33 58.0419 1318.86 58.5085 1318.86 59.3139V59.3523C1318.86 59.9851 1318.19 60.0682 1316.49 60.2344C1314.54 60.4134 1312.8 61.0653 1312.8 63.2578C1312.8 65.201 1314.19 66.1854 1316.06 66.1854ZM1316.84 64.3061C1316 64.3061 1315.4 63.9162 1315.4 63.1683C1315.4 62.4013 1316.03 62.0241 1316.99 61.8899C1317.59 61.8068 1318.56 61.6662 1318.88 61.4489V62.4908C1318.88 63.5199 1318.03 64.3061 1316.84 64.3061ZM1331.87 58.9815C1331.63 57.1726 1330.17 56.054 1327.69 56.054C1325.18 56.054 1323.52 57.2173 1323.53 59.1094C1323.52 60.5795 1324.45 61.532 1326.37 61.9155L1328.07 62.2543C1328.92 62.4268 1329.31 62.7401 1329.32 63.2322C1329.31 63.8139 1328.68 64.2294 1327.73 64.2294C1326.76 64.2294 1326.11 63.8139 1325.94 63.0149L1323.27 63.1555C1323.52 65.0348 1325.12 66.1918 1327.72 66.1918C1330.26 66.1918 1332.09 64.8942 1332.09 62.9574C1332.09 61.5384 1331.16 60.6882 1329.25 60.2983L1327.48 59.9403C1326.56 59.7422 1326.22 59.429 1326.23 58.956C1326.22 58.3679 1326.89 57.9844 1327.73 57.9844C1328.68 57.9844 1329.24 58.5021 1329.38 59.1349L1331.87 58.9815ZM1333.81 66H1336.53V60.1065C1336.53 59.0199 1337.22 58.2976 1338.13 58.2976C1339.02 58.2976 1339.62 58.9112 1339.62 59.8764V66H1342.26V60.0043C1342.26 58.9879 1342.85 58.2976 1343.84 58.2976C1344.71 58.2976 1345.36 58.8409 1345.36 59.9339V66H1348.07V59.397C1348.07 57.2685 1346.81 56.054 1344.98 56.054C1343.54 56.054 1342.42 56.7891 1342.02 57.9141H1341.92C1341.61 56.7763 1340.6 56.054 1339.25 56.054C1337.93 56.054 1336.93 56.7571 1336.52 57.9141H1336.4V56.1818H1333.81V66ZM1293.12 88H1294.58V86.4915H1294.76C1295.09 87.0284 1295.73 88.2045 1297.62 88.2045C1300.07 88.2045 1301.79 86.2358 1301.79 83.1165C1301.79 80.0227 1300.07 78.054 1297.59 78.054C1295.68 78.054 1295.09 79.2301 1294.76 79.7415H1294.63V74.9091H1293.12V88ZM1294.6 83.0909C1294.6 80.892 1295.57 79.4091 1297.42 79.4091C1299.33 79.4091 1300.28 81.0199 1300.28 83.0909C1300.28 85.1875 1299.31 86.8494 1297.42 86.8494C1295.6 86.8494 1294.6 85.3153 1294.6 83.0909ZM1304.1 88H1305.6V78.1818H1304.1V88ZM1304.86 76.5455C1305.45 76.5455 1305.94 76.0852 1305.94 75.5227C1305.94 74.9602 1305.45 74.5 1304.86 74.5C1304.27 74.5 1303.79 74.9602 1303.79 75.5227C1303.79 76.0852 1304.27 76.5455 1304.86 76.5455ZM1309.88 82.0938C1309.88 80.3807 1310.94 79.4091 1312.38 79.4091C1313.78 79.4091 1314.63 80.3232 1314.63 81.8636V88H1316.14V81.7614C1316.14 79.2557 1314.8 78.054 1312.82 78.054C1311.33 78.054 1310.41 78.7188 1309.95 79.7159H1309.82V78.1818H1308.37V88H1309.88V82.0938ZM1322.6 88.2045C1324.5 88.2045 1325.13 87.0284 1325.47 86.4915H1325.65V88H1327.1V74.9091H1325.6V79.7415H1325.47C1325.13 79.2301 1324.55 78.054 1322.63 78.054C1320.15 78.054 1318.44 80.0227 1318.44 83.1165C1318.44 86.2358 1320.15 88.2045 1322.6 88.2045ZM1322.81 86.8494C1320.92 86.8494 1319.94 85.1875 1319.94 83.0909C1319.94 81.0199 1320.89 79.4091 1322.81 79.4091C1324.65 79.4091 1325.62 80.892 1325.62 83.0909C1325.62 85.3153 1324.62 86.8494 1322.81 86.8494ZM1330.08 88H1331.58V78.1818H1330.08V88ZM1330.84 76.5455C1331.43 76.5455 1331.92 76.0852 1331.92 75.5227C1331.92 74.9602 1331.43 74.5 1330.84 74.5C1330.25 74.5 1329.77 74.9602 1329.77 75.5227C1329.77 76.0852 1330.25 76.5455 1330.84 76.5455ZM1335.86 82.0938C1335.86 80.3807 1336.92 79.4091 1338.36 79.4091C1339.76 79.4091 1340.61 80.3232 1340.61 81.8636V88H1342.12V81.7614C1342.12 79.2557 1340.78 78.054 1338.8 78.054C1337.31 78.054 1336.39 78.7188 1335.93 79.7159H1335.8V78.1818H1334.35V88H1335.86V82.0938ZM1348.84 91.8864C1351.19 91.8864 1353.08 90.8125 1353.08 88.2812V78.1818H1351.63V79.7415H1351.47C1351.14 79.2301 1350.53 78.054 1348.61 78.054C1346.13 78.054 1344.42 80.0227 1344.42 83.0398C1344.42 86.108 1346.21 87.8466 1348.58 87.8466C1350.5 87.8466 1351.12 86.7216 1351.45 86.1847H1351.58V88.179C1351.58 89.8153 1350.43 90.5568 1348.84 90.5568C1347.06 90.5568 1346.43 89.6172 1346.03 89.0739L1344.83 89.9176C1345.44 90.9467 1346.65 91.8864 1348.84 91.8864ZM1348.79 86.4915C1346.9 86.4915 1345.93 85.0597 1345.93 83.0142C1345.93 81.0199 1346.87 79.4091 1348.79 79.4091C1350.63 79.4091 1351.6 80.892 1351.6 83.0142C1351.6 85.1875 1350.6 86.4915 1348.79 86.4915Z" fill="white"/>
<path d="M774.17 294.909H771.415V303.142H771.3L765.65 294.909H763.221V308H765.989V299.761H766.084L771.78 308H774.17V294.909ZM780.842 308.192C783.821 308.192 785.674 306.153 785.674 303.129C785.674 300.087 783.821 298.054 780.842 298.054C777.863 298.054 776.01 300.087 776.01 303.129C776.01 306.153 777.863 308.192 780.842 308.192ZM780.855 306.082C779.481 306.082 778.777 304.823 778.777 303.11C778.777 301.397 779.481 300.131 780.855 300.131C782.204 300.131 782.907 301.397 782.907 303.11C782.907 304.823 782.204 306.082 780.855 306.082ZM791.063 308.16C792.648 308.16 793.473 307.246 793.85 306.428H793.965V308H796.65V294.909H793.933V299.831H793.85C793.486 299.032 792.699 298.054 791.057 298.054C788.902 298.054 787.081 299.729 787.081 303.104C787.081 306.389 788.826 308.16 791.063 308.16ZM791.926 305.993C790.59 305.993 789.861 304.804 789.861 303.091C789.861 301.391 790.577 300.221 791.926 300.221C793.249 300.221 793.991 301.339 793.991 303.091C793.991 304.842 793.236 305.993 791.926 305.993ZM803.363 308.192C805.792 308.192 807.428 307.009 807.812 305.188L805.293 305.021C805.018 305.769 804.315 306.159 803.408 306.159C802.046 306.159 801.183 305.258 801.183 303.794V303.788H807.869V303.04C807.869 299.703 805.849 298.054 803.254 298.054C800.365 298.054 798.492 300.106 798.492 303.136C798.492 306.249 800.339 308.192 803.363 308.192ZM801.183 302.1C801.241 300.982 802.091 300.087 803.299 300.087C804.481 300.087 805.3 300.93 805.306 302.1H801.183ZM820.965 298.674H823.618C823.579 296.341 821.662 294.73 818.747 294.73C815.877 294.73 813.774 296.315 813.787 298.693C813.78 300.624 815.142 301.729 817.353 302.26L818.779 302.618C820.204 302.963 820.997 303.372 821.003 304.254C820.997 305.213 820.089 305.865 818.683 305.865C817.245 305.865 816.209 305.2 816.12 303.89H813.441C813.512 306.722 815.538 308.185 818.715 308.185C821.911 308.185 823.79 306.658 823.797 304.261C823.79 302.081 822.147 300.924 819.872 300.413L818.696 300.131C817.558 299.869 816.606 299.447 816.625 298.508C816.625 297.664 817.373 297.044 818.728 297.044C820.051 297.044 820.863 297.645 820.965 298.674ZM830.043 308.192C833.022 308.192 834.876 306.153 834.876 303.129C834.876 300.087 833.022 298.054 830.043 298.054C827.065 298.054 825.211 300.087 825.211 303.129C825.211 306.153 827.065 308.192 830.043 308.192ZM830.056 306.082C828.682 306.082 827.979 304.823 827.979 303.11C827.979 301.397 828.682 300.131 830.056 300.131C831.405 300.131 832.108 301.397 832.108 303.11C832.108 304.823 831.405 306.082 830.056 306.082ZM841.926 298.182H839.976V297.523C839.976 296.859 840.245 296.469 841.044 296.469C841.37 296.469 841.702 296.539 841.92 296.609L842.399 294.564C842.06 294.462 841.312 294.295 840.475 294.295C838.628 294.295 837.253 295.337 837.253 297.472V298.182H835.866V300.227H837.253V308H839.976V300.227H841.926V298.182ZM848.812 298.182H846.965V295.83H844.242V298.182H842.899V300.227H844.242V305.341C844.229 307.265 845.539 308.217 847.514 308.134C848.217 308.109 848.716 307.968 848.991 307.879L848.563 305.852C848.428 305.878 848.141 305.942 847.885 305.942C847.342 305.942 846.965 305.737 846.965 304.983V300.227H848.812V298.182ZM852.522 308H855.399L857.086 301.825H857.208L858.895 308H861.778L864.444 298.182H861.695L860.199 304.74H860.116L858.505 298.182H855.802L854.216 304.778H854.127L852.606 298.182H849.851L852.522 308ZM868.696 308.185C870.147 308.185 871.087 307.553 871.566 306.638H871.643V308H874.225V301.378C874.225 299.038 872.244 298.054 870.057 298.054C867.705 298.054 866.158 299.179 865.781 300.969L868.3 301.173C868.485 300.521 869.067 300.042 870.045 300.042C870.972 300.042 871.502 300.509 871.502 301.314V301.352C871.502 301.985 870.831 302.068 869.124 302.234C867.181 302.413 865.436 303.065 865.436 305.258C865.436 307.201 866.823 308.185 868.696 308.185ZM869.476 306.306C868.638 306.306 868.038 305.916 868.038 305.168C868.038 304.401 868.67 304.024 869.629 303.89C870.224 303.807 871.195 303.666 871.521 303.449V304.491C871.521 305.52 870.671 306.306 869.476 306.306ZM876.338 308H879.061V302.445C879.061 301.237 879.943 300.406 881.144 300.406C881.522 300.406 882.039 300.47 882.295 300.553V298.137C882.052 298.08 881.713 298.041 881.438 298.041C880.339 298.041 879.438 298.68 879.08 299.895H878.978V298.182H876.338V308ZM887.72 308.192C890.149 308.192 891.786 307.009 892.169 305.188L889.651 305.021C889.376 305.769 888.673 306.159 887.765 306.159C886.403 306.159 885.541 305.258 885.541 303.794V303.788H892.227V303.04C892.227 299.703 890.207 298.054 887.612 298.054C884.722 298.054 882.85 300.106 882.85 303.136C882.85 306.249 884.697 308.192 887.72 308.192ZM885.541 302.1C885.598 300.982 886.448 300.087 887.656 300.087C888.839 300.087 889.657 300.93 889.663 302.1H885.541ZM764.548 331.636H768.332V330.384H765.98V316.526H768.332V315.273H764.548V331.636ZM775.595 330H777.18V324.145H784.16V330H785.746V316.909H784.16V322.739H777.18V316.909H775.595V330ZM792.703 330.205C795.362 330.205 797.152 328.185 797.152 325.142C797.152 322.074 795.362 320.054 792.703 320.054C790.044 320.054 788.254 322.074 788.254 325.142C788.254 328.185 790.044 330.205 792.703 330.205ZM792.703 328.849C790.683 328.849 789.763 327.111 789.763 325.142C789.763 323.173 790.683 321.409 792.703 321.409C794.723 321.409 795.644 323.173 795.644 325.142C795.644 327.111 794.723 328.849 792.703 328.849ZM799.455 330H800.963V323.787C800.963 322.457 802.012 321.486 803.444 321.486C803.846 321.486 804.262 321.562 804.364 321.588V320.054C804.191 320.041 803.795 320.028 803.571 320.028C802.395 320.028 801.373 320.693 801.015 321.665H800.912V320.182H799.455V330ZM807.661 324.094C807.661 322.381 808.722 321.409 810.166 321.409C811.566 321.409 812.416 322.323 812.416 323.864V330H813.925V323.761C813.925 321.256 812.589 320.054 810.601 320.054C809.118 320.054 808.198 320.719 807.737 321.716H807.61V320.182H806.152V330H807.661V324.094ZM820.798 330.205C822.792 330.205 824.25 329.207 824.71 327.724L823.252 327.315C822.869 328.338 821.98 328.849 820.798 328.849C819.027 328.849 817.806 327.705 817.736 325.602H824.863V324.963C824.863 321.307 822.69 320.054 820.645 320.054C817.985 320.054 816.221 322.151 816.221 325.168C816.221 328.185 817.96 330.205 820.798 330.205ZM817.736 324.298C817.838 322.771 818.919 321.409 820.645 321.409C822.281 321.409 823.329 322.636 823.329 324.298H817.736ZM831.428 320.182H829.331V317.83H827.823V320.182H826.34V321.46H827.823V327.597C827.823 329.31 829.203 330.128 830.482 330.128C831.044 330.128 831.402 330.026 831.607 329.949L831.3 328.594C831.172 328.619 830.968 328.67 830.635 328.67C829.971 328.67 829.331 328.466 829.331 327.188V321.46H831.428V320.182ZM840.958 312.69H839.68V334.219H840.958V312.69ZM849.915 330H854.645C857.739 330 859.018 328.491 859.018 326.523C859.018 324.452 857.586 323.327 856.384 323.25V323.122C857.509 322.815 858.506 322.074 858.506 320.386C858.506 318.469 857.228 316.909 854.492 316.909H849.915V330ZM851.501 328.594V324.043H854.722C856.435 324.043 857.509 325.193 857.509 326.523C857.509 327.673 856.716 328.594 854.645 328.594H851.501ZM851.501 322.662V318.315H854.492C856.231 318.315 856.998 319.236 856.998 320.386C856.998 321.767 855.873 322.662 854.441 322.662H851.501ZM865.534 330.205C867.529 330.205 868.986 329.207 869.446 327.724L867.989 327.315C867.605 328.338 866.717 328.849 865.534 328.849C863.764 328.849 862.543 327.705 862.472 325.602H869.6V324.963C869.6 321.307 867.426 320.054 865.381 320.054C862.722 320.054 860.958 322.151 860.958 325.168C860.958 328.185 862.696 330.205 865.534 330.205ZM862.472 324.298C862.575 322.771 863.655 321.409 865.381 321.409C867.017 321.409 868.066 322.636 868.066 324.298H862.472ZM876.011 330.205C878.005 330.205 879.463 329.207 879.923 327.724L878.465 327.315C878.082 328.338 877.193 328.849 876.011 328.849C874.24 328.849 873.019 327.705 872.949 325.602H880.076V324.963C880.076 321.307 877.903 320.054 875.857 320.054C873.198 320.054 871.434 322.151 871.434 325.168C871.434 328.185 873.173 330.205 876.011 330.205ZM872.949 324.298C873.051 322.771 874.132 321.409 875.857 321.409C877.494 321.409 878.542 322.636 878.542 324.298H872.949ZM890.45 316.295H886.666V317.548H889.019V331.406H886.666V332.659H890.45V316.295Z" fill="#369FAB"/>
<path d="M464.655 377.909V391H467.34V382.447H467.449L470.836 390.936H472.665L476.052 382.479H476.161V391H478.846V377.909H475.432L471.827 386.705H471.674L468.069 377.909H464.655ZM483.875 391.185C485.326 391.185 486.265 390.553 486.745 389.638H486.821V391H489.404V384.378C489.404 382.038 487.422 381.054 485.236 381.054C482.884 381.054 481.337 382.179 480.96 383.969L483.478 384.173C483.664 383.521 484.245 383.042 485.223 383.042C486.15 383.042 486.681 383.509 486.681 384.314V384.352C486.681 384.985 486.01 385.068 484.303 385.234C482.36 385.413 480.615 386.065 480.615 388.258C480.615 390.201 482.002 391.185 483.875 391.185ZM484.654 389.306C483.817 389.306 483.216 388.916 483.216 388.168C483.216 387.401 483.849 387.024 484.808 386.89C485.402 386.807 486.374 386.666 486.7 386.449V387.491C486.7 388.52 485.85 389.306 484.654 389.306ZM491.516 391H494.239V381.182H491.516V391ZM492.884 379.916C493.696 379.916 494.361 379.296 494.361 378.536C494.361 377.781 493.696 377.161 492.884 377.161C492.079 377.161 491.414 377.781 491.414 378.536C491.414 379.296 492.079 379.916 492.884 379.916ZM499.144 385.324C499.15 384.058 499.904 383.317 501.004 383.317C502.097 383.317 502.755 384.033 502.749 385.234V391H505.472V384.749C505.472 382.46 504.129 381.054 502.084 381.054C500.627 381.054 499.572 381.77 499.131 382.914H499.016V381.182H496.421V391H499.144V385.324ZM510.341 385.324C510.347 384.058 511.102 383.317 512.201 383.317C513.294 383.317 513.952 384.033 513.946 385.234V391H516.669V384.749C516.669 382.46 515.327 381.054 513.281 381.054C511.824 381.054 510.769 381.77 510.328 382.914H510.213V381.182H507.618V391H510.341V385.324ZM523.29 391.192C525.719 391.192 527.355 390.009 527.738 388.188L525.22 388.021C524.945 388.769 524.242 389.159 523.334 389.159C521.973 389.159 521.11 388.258 521.11 386.794V386.788H527.796V386.04C527.796 382.703 525.776 381.054 523.181 381.054C520.292 381.054 518.419 383.106 518.419 386.136C518.419 389.249 520.266 391.192 523.29 391.192ZM521.11 385.1C521.167 383.982 522.018 383.087 523.226 383.087C524.408 383.087 525.226 383.93 525.233 385.1H521.11ZM534.795 381.182H532.948V378.83H530.225V381.182H528.883V383.227H530.225V388.341C530.212 390.265 531.523 391.217 533.498 391.134C534.201 391.109 534.699 390.968 534.974 390.879L534.546 388.852C534.412 388.878 534.124 388.942 533.868 388.942C533.325 388.942 532.948 388.737 532.948 387.983V383.227H534.795V381.182Z" fill="white"/>
<path d="M1132.74 391C1136.73 391 1139.15 388.533 1139.15 384.442C1139.15 380.364 1136.73 377.909 1132.78 377.909H1128.1V391H1132.74ZM1130.87 388.629V380.281H1132.63C1135.09 380.281 1136.39 381.533 1136.39 384.442C1136.39 387.363 1135.09 388.629 1132.63 388.629H1130.87ZM1145.62 391.192C1148.05 391.192 1149.69 390.009 1150.07 388.188L1147.55 388.021C1147.28 388.769 1146.57 389.159 1145.67 389.159C1144.3 389.159 1143.44 388.258 1143.44 386.794V386.788H1150.13V386.04C1150.13 382.703 1148.11 381.054 1145.51 381.054C1142.62 381.054 1140.75 383.106 1140.75 386.136C1140.75 389.249 1142.6 391.192 1145.62 391.192ZM1143.44 385.1C1143.5 383.982 1144.35 383.087 1145.56 383.087C1146.74 383.087 1147.56 383.93 1147.56 385.1H1143.44ZM1160.78 381.182H1157.89L1155.86 388.207H1155.76L1153.72 381.182H1150.84L1154.28 391H1157.34L1160.78 381.182ZM1164.89 385.324C1164.9 384.058 1165.65 383.317 1166.75 383.317C1167.85 383.317 1168.51 384.033 1168.5 385.234V391H1171.22V384.749C1171.22 382.46 1169.88 381.054 1167.83 381.054C1166.38 381.054 1165.32 381.77 1164.88 382.914H1164.77V381.182H1162.17V391H1164.89V385.324ZM1177.84 391.192C1180.27 391.192 1181.91 390.009 1182.29 388.188L1179.77 388.021C1179.5 388.769 1178.79 389.159 1177.89 389.159C1176.53 389.159 1175.66 388.258 1175.66 386.794V386.788H1182.35V386.04C1182.35 382.703 1180.33 381.054 1177.73 381.054C1174.84 381.054 1172.97 383.106 1172.97 386.136C1172.97 389.249 1174.82 391.192 1177.84 391.192ZM1175.66 385.1C1175.72 383.982 1176.57 383.087 1177.78 383.087C1178.96 383.087 1179.78 383.93 1179.79 385.1H1175.66ZM1189.35 381.182H1187.5V378.83H1184.78V381.182H1183.44V383.227H1184.78V388.341C1184.76 390.265 1186.08 391.217 1188.05 391.134C1188.75 391.109 1189.25 390.968 1189.53 390.879L1189.1 388.852C1188.96 388.878 1188.68 388.942 1188.42 388.942C1187.88 388.942 1187.5 388.737 1187.5 387.983V383.227H1189.35V381.182Z" fill="white"/>
<path d="M800.479 130H803.202V120.182H800.479V130ZM801.847 118.916C802.659 118.916 803.324 118.296 803.324 117.536C803.324 116.781 802.659 116.161 801.847 116.161C801.042 116.161 800.377 116.781 800.377 117.536C800.377 118.296 801.042 118.916 801.847 118.916ZM809.82 130.192C812.798 130.192 814.652 128.153 814.652 125.129C814.652 122.087 812.798 120.054 809.82 120.054C806.841 120.054 804.987 122.087 804.987 125.129C804.987 128.153 806.841 130.192 809.82 130.192ZM809.832 128.082C808.458 128.082 807.755 126.823 807.755 125.11C807.755 123.397 808.458 122.131 809.832 122.131C811.181 122.131 811.884 123.397 811.884 125.11C811.884 126.823 811.181 128.082 809.832 128.082ZM821.645 120.182H819.798V117.83H817.075V120.182H815.732V122.227H817.075V127.341C817.062 129.265 818.372 130.217 820.347 130.134C821.05 130.109 821.549 129.968 821.824 129.879L821.396 127.852C821.261 127.878 820.974 127.942 820.718 127.942C820.175 127.942 819.798 127.737 819.798 126.983V122.227H821.645V120.182ZM826.218 130.185C827.669 130.185 828.609 129.553 829.088 128.638H829.165V130H831.748V123.378C831.748 121.038 829.766 120.054 827.58 120.054C825.228 120.054 823.681 121.179 823.304 122.969L825.822 123.173C826.007 122.521 826.589 122.042 827.567 122.042C828.494 122.042 829.025 122.509 829.025 123.314V123.352C829.025 123.985 828.353 124.068 826.647 124.234C824.703 124.413 822.958 125.065 822.958 127.258C822.958 129.201 824.346 130.185 826.218 130.185ZM826.998 128.306C826.161 128.306 825.56 127.916 825.56 127.168C825.56 126.401 826.193 126.024 827.152 125.89C827.746 125.807 828.718 125.666 829.044 125.449V126.491C829.044 127.52 828.194 128.306 826.998 128.306ZM835.452 130.166C836.27 130.166 836.979 129.482 836.986 128.632C836.979 127.795 836.27 127.111 835.452 127.111C834.608 127.111 833.911 127.795 833.918 128.632C833.911 129.482 834.608 130.166 835.452 130.166ZM839.221 130H841.944V124.445C841.944 123.237 842.827 122.406 844.028 122.406C844.405 122.406 844.923 122.47 845.179 122.553V120.137C844.936 120.08 844.597 120.041 844.322 120.041C843.223 120.041 842.322 120.68 841.964 121.895H841.861V120.182H839.221V130ZM854.756 122.982C854.513 121.173 853.055 120.054 850.575 120.054C848.063 120.054 846.408 121.217 846.414 123.109C846.408 124.58 847.335 125.532 849.252 125.915L850.952 126.254C851.809 126.427 852.199 126.74 852.212 127.232C852.199 127.814 851.566 128.229 850.614 128.229C849.642 128.229 848.996 127.814 848.83 127.015L846.152 127.156C846.408 129.035 848.006 130.192 850.607 130.192C853.151 130.192 854.973 128.894 854.979 126.957C854.973 125.538 854.046 124.688 852.141 124.298L850.364 123.94C849.45 123.742 849.112 123.429 849.118 122.956C849.112 122.368 849.776 121.984 850.62 121.984C851.566 121.984 852.129 122.502 852.263 123.135L854.756 122.982ZM739.912 154.659H743.696V153.406H741.344V139.548H743.696V138.295H739.912V154.659ZM749.47 152.205C752.129 152.205 753.919 150.185 753.919 147.142C753.919 144.074 752.129 142.054 749.47 142.054C746.811 142.054 745.021 144.074 745.021 147.142C745.021 150.185 746.811 152.205 749.47 152.205ZM749.47 150.849C747.45 150.849 746.53 149.111 746.53 147.142C746.53 145.173 747.45 143.409 749.47 143.409C751.49 143.409 752.41 145.173 752.41 147.142C752.41 149.111 751.49 150.849 749.47 150.849ZM760.594 142.182H758.395V141.185C758.395 140.213 758.804 139.702 759.801 139.702C760.236 139.702 760.491 139.804 760.645 139.855L761.079 138.551C760.849 138.449 760.389 138.295 759.648 138.295C758.241 138.295 756.886 139.139 756.886 140.827V142.182H755.301V143.46H756.886V152H758.395V143.46H760.594V142.182ZM767.08 142.182H764.881V141.185C764.881 140.213 765.29 139.702 766.287 139.702C766.722 139.702 766.978 139.804 767.131 139.855L767.566 138.551C767.336 138.449 766.875 138.295 766.134 138.295C764.728 138.295 763.373 139.139 763.373 140.827V142.182H761.787V143.46H763.373V152H764.881V143.46H767.08V142.182ZM769.194 152H770.703V142.182H769.194V152ZM769.961 140.545C770.549 140.545 771.035 140.085 771.035 139.523C771.035 138.96 770.549 138.5 769.961 138.5C769.373 138.5 768.887 138.96 768.887 139.523C768.887 140.085 769.373 140.545 769.961 140.545ZM777.454 152.205C779.628 152.205 781.059 150.875 781.315 149.136H779.807C779.525 150.21 778.63 150.849 777.454 150.849C775.665 150.849 774.514 149.366 774.514 147.091C774.514 144.866 775.69 143.409 777.454 143.409C778.784 143.409 779.576 144.227 779.807 145.122H781.315C781.059 143.281 779.5 142.054 777.429 142.054C774.77 142.054 773.005 144.151 773.005 147.142C773.005 150.082 774.693 152.205 777.454 152.205ZM783.52 152H785.029V142.182H783.52V152ZM784.287 140.545C784.875 140.545 785.361 140.085 785.361 139.523C785.361 138.96 784.875 138.5 784.287 138.5C783.699 138.5 783.214 138.96 783.214 139.523C783.214 140.085 783.699 140.545 784.287 140.545ZM790.681 152.23C792.394 152.23 793.289 151.31 793.596 150.67H793.672V152H795.181V145.531C795.181 142.412 792.803 142.054 791.55 142.054C790.067 142.054 788.38 142.565 787.613 144.355L789.045 144.866C789.377 144.151 790.163 143.384 791.601 143.384C792.989 143.384 793.672 144.119 793.672 145.378V145.429C793.672 146.158 792.931 146.094 791.141 146.324C789.32 146.56 787.332 146.963 787.332 149.213C787.332 151.131 788.815 152.23 790.681 152.23ZM790.911 150.875C789.709 150.875 788.84 150.338 788.84 149.29C788.84 148.139 789.888 147.781 791.065 147.628C791.704 147.551 793.417 147.372 793.672 147.065V148.446C793.672 149.673 792.701 150.875 790.911 150.875ZM799.443 138.909H797.934V152H799.443V138.909ZM811.257 152.205C813.43 152.205 814.862 150.875 815.118 149.136H813.609C813.328 150.21 812.433 150.849 811.257 150.849C809.467 150.849 808.317 149.366 808.317 147.091C808.317 144.866 809.493 143.409 811.257 143.409C812.587 143.409 813.379 144.227 813.609 145.122H815.118C814.862 143.281 813.302 142.054 811.231 142.054C808.572 142.054 806.808 144.151 806.808 147.142C806.808 150.082 808.496 152.205 811.257 152.205ZM818.832 138.909H817.323V152H818.832V138.909ZM821.595 152H823.103V142.182H821.595V152ZM822.362 140.545C822.95 140.545 823.435 140.085 823.435 139.523C823.435 138.96 822.95 138.5 822.362 138.5C821.774 138.5 821.288 138.96 821.288 139.523C821.288 140.085 821.774 140.545 822.362 140.545ZM829.983 152.205C831.977 152.205 833.434 151.207 833.894 149.724L832.437 149.315C832.054 150.338 831.165 150.849 829.983 150.849C828.212 150.849 826.991 149.705 826.921 147.602H834.048V146.963C834.048 143.307 831.875 142.054 829.829 142.054C827.17 142.054 825.406 144.151 825.406 147.168C825.406 150.185 827.144 152.205 829.983 152.205ZM826.921 146.298C827.023 144.771 828.103 143.409 829.829 143.409C831.465 143.409 832.514 144.636 832.514 146.298H826.921ZM837.851 146.094C837.851 144.381 838.912 143.409 840.357 143.409C841.757 143.409 842.607 144.323 842.607 145.864V152H844.115V145.761C844.115 143.256 842.779 142.054 840.791 142.054C839.309 142.054 838.388 142.719 837.928 143.716H837.8V142.182H836.343V152H837.851V146.094ZM851.142 142.182H849.045V139.83H847.537V142.182H846.054V143.46H847.537V149.597C847.537 151.31 848.917 152.128 850.196 152.128C850.758 152.128 851.116 152.026 851.321 151.949L851.014 150.594C850.886 150.619 850.682 150.67 850.349 150.67C849.684 150.67 849.045 150.466 849.045 149.188V143.46H851.142V142.182ZM859.982 138.909H858.473V152H859.982V138.909ZM862.745 152H864.253V142.182H862.745V152ZM863.512 140.545C864.1 140.545 864.586 140.085 864.586 139.523C864.586 138.96 864.1 138.5 863.512 138.5C862.924 138.5 862.438 138.96 862.438 139.523C862.438 140.085 862.924 140.545 863.512 140.545ZM867.221 152H868.678V150.491H868.857C869.19 151.028 869.829 152.205 871.721 152.205C874.176 152.205 875.889 150.236 875.889 147.116C875.889 144.023 874.176 142.054 871.695 142.054C869.778 142.054 869.19 143.23 868.857 143.741H868.729V138.909H867.221V152ZM868.704 147.091C868.704 144.892 869.676 143.409 871.516 143.409C873.434 143.409 874.38 145.02 874.38 147.091C874.38 149.188 873.408 150.849 871.516 150.849C869.701 150.849 868.704 149.315 868.704 147.091ZM878.196 152H879.705V145.787C879.705 144.457 880.753 143.486 882.185 143.486C882.587 143.486 883.003 143.562 883.105 143.588V142.054C882.933 142.041 882.536 142.028 882.313 142.028C881.136 142.028 880.114 142.693 879.756 143.665H879.653V142.182H878.196V152ZM887.783 152.23C889.496 152.23 890.391 151.31 890.697 150.67H890.774V152H892.283V145.531C892.283 142.412 889.905 142.054 888.652 142.054C887.169 142.054 885.481 142.565 884.714 144.355L886.146 144.866C886.479 144.151 887.265 143.384 888.703 143.384C890.09 143.384 890.774 144.119 890.774 145.378V145.429C890.774 146.158 890.033 146.094 888.243 146.324C886.421 146.56 884.433 146.963 884.433 149.213C884.433 151.131 885.916 152.23 887.783 152.23ZM888.013 150.875C886.811 150.875 885.942 150.338 885.942 149.29C885.942 148.139 886.99 147.781 888.166 147.628C888.805 147.551 890.518 147.372 890.774 147.065V148.446C890.774 149.673 889.802 150.875 888.013 150.875ZM895.036 152H896.544V145.787C896.544 144.457 897.593 143.486 899.025 143.486C899.427 143.486 899.843 143.562 899.945 143.588V142.054C899.772 142.041 899.376 142.028 899.152 142.028C897.976 142.028 896.954 142.693 896.596 143.665H896.493V142.182H895.036V152ZM903.004 155.682C904.365 155.682 905.324 154.96 905.893 153.432L910.073 142.207L908.424 142.182L905.714 150.006H905.612L902.901 142.182H901.265L904.896 152.051L904.614 152.818C904.065 154.314 903.387 154.455 902.288 154.173L901.904 155.503C902.058 155.58 902.492 155.682 903.004 155.682ZM915.086 138.295H911.302V139.548H913.654V153.406H911.302V154.659H915.086V138.295Z" fill="white"/>
<path d="M740.834 223.192C743.449 223.192 745.091 221.658 745.219 219.401H742.65C742.49 220.45 741.799 221.038 740.866 221.038C739.594 221.038 738.77 219.97 738.77 218.091C738.77 216.237 739.601 215.176 740.866 215.176C741.863 215.176 742.503 215.835 742.65 216.812H745.219C745.104 214.543 743.385 213.054 740.821 213.054C737.843 213.054 736.002 215.119 736.002 218.129C736.002 221.114 737.811 223.192 740.834 223.192ZM751.399 223.192C754.377 223.192 756.231 221.153 756.231 218.129C756.231 215.087 754.377 213.054 751.399 213.054C748.42 213.054 746.566 215.087 746.566 218.129C746.566 221.153 748.42 223.192 751.399 223.192ZM751.411 221.082C750.037 221.082 749.334 219.823 749.334 218.11C749.334 216.397 750.037 215.131 751.411 215.131C752.76 215.131 753.463 216.397 753.463 218.11C753.463 219.823 752.76 221.082 751.411 221.082ZM758.002 223H760.725V217.107C760.725 216.02 761.415 215.298 762.323 215.298C763.218 215.298 763.818 215.911 763.818 216.876V223H766.458V217.004C766.458 215.988 767.04 215.298 768.031 215.298C768.9 215.298 769.552 215.841 769.552 216.934V223H772.269V216.397C772.269 214.268 771.003 213.054 769.175 213.054C767.737 213.054 766.618 213.789 766.215 214.914H766.113C765.8 213.776 764.796 213.054 763.448 213.054C762.125 213.054 761.121 213.757 760.712 214.914H760.597V213.182H758.002V223ZM774.42 223H777.143V217.107C777.143 216.02 777.833 215.298 778.741 215.298C779.636 215.298 780.236 215.911 780.236 216.876V223H782.876V217.004C782.876 215.988 783.458 215.298 784.449 215.298C785.318 215.298 785.97 215.841 785.97 216.934V223H788.687V216.397C788.687 214.268 787.421 213.054 785.593 213.054C784.155 213.054 783.036 213.789 782.633 214.914H782.531C782.218 213.776 781.214 213.054 779.866 213.054C778.543 213.054 777.539 213.757 777.13 214.914H777.015V213.182H774.42V223ZM797.134 218.82C797.14 220.136 796.239 220.827 795.261 220.827C794.232 220.827 793.567 220.104 793.561 218.947V213.182H790.838V219.433C790.844 221.728 792.186 223.128 794.161 223.128C795.638 223.128 796.699 222.367 797.14 221.217H797.242V223H799.857V213.182H797.134V218.82ZM804.758 217.324C804.764 216.058 805.519 215.317 806.618 215.317C807.711 215.317 808.369 216.033 808.363 217.234V223H811.086V216.749C811.086 214.46 809.744 213.054 807.698 213.054C806.241 213.054 805.186 213.77 804.745 214.914H804.63V213.182H802.035V223H804.758V217.324ZM813.232 223H815.955V213.182H813.232V223ZM814.6 211.916C815.412 211.916 816.077 211.296 816.077 210.536C816.077 209.781 815.412 209.161 814.6 209.161C813.795 209.161 813.13 209.781 813.13 210.536C813.13 211.296 813.795 211.916 814.6 211.916ZM822.573 223.192C825.187 223.192 826.83 221.658 826.957 219.401H824.388C824.228 220.45 823.538 221.038 822.604 221.038C821.332 221.038 820.508 219.97 820.508 218.091C820.508 216.237 821.339 215.176 822.604 215.176C823.602 215.176 824.241 215.835 824.388 216.812H826.957C826.842 214.543 825.123 213.054 822.56 213.054C819.581 213.054 817.74 215.119 817.74 218.129C817.74 221.114 819.549 223.192 822.573 223.192ZM831.501 223.185C832.952 223.185 833.891 222.553 834.371 221.638H834.447V223H837.03V216.378C837.03 214.038 835.048 213.054 832.862 213.054C830.51 213.054 828.963 214.179 828.586 215.969L831.104 216.173C831.29 215.521 831.871 215.042 832.849 215.042C833.776 215.042 834.307 215.509 834.307 216.314V216.352C834.307 216.985 833.636 217.068 831.929 217.234C829.986 217.413 828.241 218.065 828.241 220.258C828.241 222.201 829.628 223.185 831.501 223.185ZM832.28 221.306C831.443 221.306 830.842 220.916 830.842 220.168C830.842 219.401 831.475 219.024 832.434 218.89C833.028 218.807 834 218.666 834.326 218.449V219.491C834.326 220.52 833.476 221.306 832.28 221.306ZM844.365 213.182H842.517V210.83H839.794V213.182H838.452V215.227H839.794V220.341C839.782 222.265 841.092 223.217 843.067 223.134C843.77 223.109 844.269 222.968 844.544 222.879L844.115 220.852C843.981 220.878 843.693 220.942 843.438 220.942C842.894 220.942 842.517 220.737 842.517 219.983V215.227H844.365V213.182ZM846.138 223H848.861V213.182H846.138V223ZM847.506 211.916C848.318 211.916 848.983 211.296 848.983 210.536C848.983 209.781 848.318 209.161 847.506 209.161C846.701 209.161 846.036 209.781 846.036 210.536C846.036 211.296 846.701 211.916 847.506 211.916ZM855.479 223.192C858.457 223.192 860.311 221.153 860.311 218.129C860.311 215.087 858.457 213.054 855.479 213.054C852.5 213.054 850.646 215.087 850.646 218.129C850.646 221.153 852.5 223.192 855.479 223.192ZM855.492 221.082C854.117 221.082 853.414 219.823 853.414 218.11C853.414 216.397 854.117 215.131 855.492 215.131C856.84 215.131 857.543 216.397 857.543 218.11C857.543 219.823 856.84 221.082 855.492 221.082ZM864.805 217.324C864.811 216.058 865.565 215.317 866.665 215.317C867.758 215.317 868.416 216.033 868.41 217.234V223H871.133V216.749C871.133 214.46 869.791 213.054 867.745 213.054C866.288 213.054 865.233 213.77 864.792 214.914H864.677V213.182H862.082V223H864.805V217.324ZM880.168 209.909H877.445V223H880.168V209.909ZM885.149 223.185C886.6 223.185 887.54 222.553 888.019 221.638H888.096V223H890.678V216.378C890.678 214.038 888.697 213.054 886.511 213.054C884.158 213.054 882.611 214.179 882.234 215.969L884.753 216.173C884.938 215.521 885.52 215.042 886.498 215.042C887.425 215.042 887.955 215.509 887.955 216.314V216.352C887.955 216.985 887.284 217.068 885.577 217.234C883.634 217.413 881.889 218.065 881.889 220.258C881.889 222.201 883.276 223.185 885.149 223.185ZM885.929 221.306C885.092 221.306 884.491 220.916 884.491 220.168C884.491 219.401 885.123 219.024 886.082 218.89C886.677 218.807 887.648 218.666 887.974 218.449V219.491C887.974 220.52 887.124 221.306 885.929 221.306ZM894.12 226.682C896.147 226.682 897.22 225.646 897.777 224.061L901.593 213.195L898.71 213.182L896.658 220.392H896.556L894.523 213.182H891.659L895.181 223.281L895.022 223.697C894.664 224.617 893.98 224.662 893.021 224.368L892.407 226.401C892.797 226.567 893.43 226.682 894.12 226.682ZM907.127 223.192C909.555 223.192 911.192 222.009 911.575 220.188L909.057 220.021C908.782 220.769 908.079 221.159 907.171 221.159C905.81 221.159 904.947 220.258 904.947 218.794V218.788H911.633V218.04C911.633 214.703 909.613 213.054 907.018 213.054C904.129 213.054 902.256 215.106 902.256 218.136C902.256 221.249 904.103 223.192 907.127 223.192ZM904.947 217.1C905.004 215.982 905.854 215.087 907.063 215.087C908.245 215.087 909.063 215.93 909.07 217.1H904.947ZM913.41 223H916.133V217.445C916.133 216.237 917.015 215.406 918.217 215.406C918.594 215.406 919.112 215.47 919.367 215.553V213.137C919.124 213.08 918.786 213.041 918.511 213.041C917.411 213.041 916.51 213.68 916.152 214.895H916.05V213.182H913.41V223ZM788.568 247.659H792.353V246.406H790V232.548H792.353V231.295H788.568V247.659ZM795.857 239.094C795.857 237.381 796.918 236.409 798.363 236.409C799.763 236.409 800.613 237.323 800.613 238.864V245H802.121V238.761C802.121 236.256 800.785 235.054 798.797 235.054C797.314 235.054 796.394 235.719 795.934 236.716H795.806V235.182H794.348V245H795.857V239.094ZM808.994 245.205C810.989 245.205 812.446 244.207 812.906 242.724L811.449 242.315C811.065 243.338 810.177 243.849 808.994 243.849C807.224 243.849 806.003 242.705 805.932 240.602H813.06V239.963C813.06 236.307 810.886 235.054 808.841 235.054C806.182 235.054 804.418 237.151 804.418 240.168C804.418 243.185 806.156 245.205 808.994 245.205ZM805.932 239.298C806.035 237.771 807.115 236.409 808.841 236.409C810.477 236.409 811.525 237.636 811.525 239.298H805.932ZM819.624 235.182H817.528V232.83H816.019V235.182H814.536V236.46H816.019V242.597C816.019 244.31 817.4 245.128 818.678 245.128C819.241 245.128 819.599 245.026 819.803 244.949L819.496 243.594C819.369 243.619 819.164 243.67 818.832 243.67C818.167 243.67 817.528 243.466 817.528 242.188V236.46H819.624V235.182ZM824.118 245H825.601L827.748 237.457H827.902L830.05 245H831.533L834.524 235.182H832.939L830.817 242.673H830.714L828.643 235.182H827.033L824.936 242.699H824.834L822.712 235.182H821.126L824.118 245ZM840.173 245.205C842.832 245.205 844.622 243.185 844.622 240.142C844.622 237.074 842.832 235.054 840.173 235.054C837.514 235.054 835.724 237.074 835.724 240.142C835.724 243.185 837.514 245.205 840.173 245.205ZM840.173 243.849C838.153 243.849 837.233 242.111 837.233 240.142C837.233 238.173 838.153 236.409 840.173 236.409C842.193 236.409 843.113 238.173 843.113 240.142C843.113 242.111 842.193 243.849 840.173 243.849ZM846.925 245H848.433V238.787C848.433 237.457 849.481 236.486 850.913 236.486C851.316 236.486 851.731 236.562 851.834 236.588V235.054C851.661 235.041 851.265 235.028 851.041 235.028C849.865 235.028 848.842 235.693 848.484 236.665H848.382V235.182H846.925V245ZM853.622 245H855.13V241.325L856.185 240.347L859.861 245H861.778L857.323 239.375L861.471 235.182H859.605L855.309 239.554H855.13V231.909H853.622V245ZM866.43 231.295H862.646V232.548H864.998V246.406H862.646V247.659H866.43V231.295Z" fill="white"/>
<rect x="17.5" y="22.5" width="1478" height="163" rx="8.5" stroke="#4079A2" stroke-width="3" stroke-dasharray="6 6"/>
<rect x="17.5" y="269.5" width="1478" height="160" rx="8.5" stroke="#4079A2" stroke-width="3" stroke-dasharray="6 6"/>
<path d="M38.7418 59L39.7134 56.0149H44.4371L45.4087 59H48.3746L43.8619 45.9091H40.2951L35.7759 59H38.7418ZM40.4165 53.8544L42.0273 48.9006H42.1296L43.7404 53.8544H40.4165ZM49.8991 62.6818H52.6222V57.4276H52.7053C53.0824 58.2457 53.907 59.1598 55.4922 59.1598C57.7294 59.1598 59.4744 57.3892 59.4744 54.1037C59.4744 50.7287 57.6527 49.054 55.4986 49.054C53.8558 49.054 53.0696 50.032 52.7053 50.831H52.5838V49.1818H49.8991V62.6818ZM52.5646 54.0909C52.5646 52.3395 53.3061 51.2209 54.6293 51.2209C55.978 51.2209 56.6939 52.3906 56.6939 54.0909C56.6939 55.804 55.9652 56.9929 54.6293 56.9929C53.3189 56.9929 52.5646 55.8423 52.5646 54.0909ZM61.2898 62.6818H64.0128V57.4276H64.0959C64.473 58.2457 65.2976 59.1598 66.8828 59.1598C69.12 59.1598 70.8651 57.3892 70.8651 54.1037C70.8651 50.7287 69.0433 49.054 66.8892 49.054C65.2464 49.054 64.4602 50.032 64.0959 50.831H63.9744V49.1818L61.2898 49.1818V62.6818ZM63.9553 54.0909C63.9553 52.3395 64.6967 51.2209 66.0199 51.2209C67.3686 51.2209 68.0845 52.3906 68.0845 54.0909C68.0845 55.804 67.3558 56.9929 66.0199 56.9929C64.7095 56.9929 63.9553 55.8423 63.9553 54.0909ZM75.4034 45.9091H72.6804V59H75.4034V45.9091ZM77.5847 59H80.3077V49.1818H77.5847V59ZM78.9526 47.9162C79.7644 47.9162 80.4292 47.2962 80.4292 46.5355C80.4292 45.7813 79.7644 45.1612 78.9526 45.1612C78.1472 45.1612 77.4824 45.7813 77.4824 46.5355C77.4824 47.2962 78.1472 47.9162 78.9526 47.9162ZM86.9251 59.1918C89.5394 59.1918 91.1822 57.6577 91.31 55.4013H88.7404C88.5806 56.4496 87.8903 57.0376 86.957 57.0376C85.685 57.0376 84.8604 55.9702 84.8604 54.0909C84.8604 52.2372 85.6914 51.1761 86.957 51.1761C87.9542 51.1761 88.5934 51.8345 88.7404 52.8125H91.31C91.195 50.5433 89.4755 49.054 86.9123 49.054C83.9336 49.054 82.0927 51.1186 82.0927 54.1293C82.0927 57.1143 83.9016 59.1918 86.9251 59.1918ZM95.8532 59.1854C97.3042 59.1854 98.2438 58.5526 98.7232 57.6385H98.7999V59H101.382V52.3778C101.382 50.0384 99.4007 49.054 97.2147 49.054C94.8624 49.054 93.3155 50.179 92.9384 51.9688L95.4569 52.1733C95.6422 51.5213 96.2239 51.0419 97.2019 51.0419C98.1287 51.0419 98.6593 51.5085 98.6593 52.3139V52.3523C98.6593 52.9851 97.9881 53.0682 96.2814 53.2344C94.3382 53.4134 92.5932 54.0653 92.5932 56.2578C92.5932 58.201 93.9803 59.1854 95.8532 59.1854ZM96.633 57.3061C95.7956 57.3061 95.1948 56.9162 95.1948 56.1683C95.1948 55.4013 95.8276 55.0241 96.7864 54.8899C97.3809 54.8068 98.3525 54.6662 98.6784 54.4489V55.4908C98.6784 56.5199 97.8283 57.3061 96.633 57.3061ZM108.717 49.1818H106.87V46.8295H104.147V49.1818H102.805V51.2273H104.147V56.3409C104.134 58.2649 105.444 59.2173 107.42 59.1342C108.123 59.1087 108.621 58.968 108.896 58.8786L108.468 56.8523C108.334 56.8778 108.046 56.9418 107.79 56.9418C107.247 56.9418 106.87 56.7372 106.87 55.983V51.2273H108.717V49.1818ZM110.491 59H113.214V49.1818H110.491V59ZM111.859 47.9162C112.671 47.9162 113.335 47.2962 113.335 46.5355C113.335 45.7813 112.671 45.1612 111.859 45.1612C111.053 45.1612 110.389 45.7813 110.389 46.5355C110.389 47.2962 111.053 47.9162 111.859 47.9162ZM119.831 59.1918C122.81 59.1918 124.664 57.1527 124.664 54.1293C124.664 51.0866 122.81 49.054 119.831 49.054C116.853 49.054 114.999 51.0866 114.999 54.1293C114.999 57.1527 116.853 59.1918 119.831 59.1918ZM119.844 57.0824C118.47 57.0824 117.767 55.8232 117.767 54.1101C117.767 52.397 118.47 51.1314 119.844 51.1314C121.193 51.1314 121.896 52.397 121.896 54.1101C121.896 55.8232 121.193 57.0824 119.844 57.0824ZM129.157 53.3239C129.164 52.0582 129.918 51.3168 131.017 51.3168C132.11 51.3168 132.769 52.0327 132.762 53.2344V59H135.485V52.7486C135.485 50.4602 134.143 49.054 132.098 49.054C130.64 49.054 129.586 49.7699 129.145 50.9141H129.029V49.1818H126.434V59H129.157V53.3239ZM145.801 51.9815C145.558 50.1726 144.1 49.054 141.62 49.054C139.108 49.054 137.453 50.2173 137.459 52.1094C137.453 53.5795 138.379 54.532 140.297 54.9155L141.997 55.2543C142.854 55.4268 143.244 55.7401 143.257 56.2322C143.244 56.8139 142.611 57.2294 141.659 57.2294C140.687 57.2294 140.041 56.8139 139.875 56.0149L137.197 56.1555C137.453 58.0348 139.051 59.1918 141.652 59.1918C144.196 59.1918 146.018 57.8942 146.024 55.9574C146.018 54.5384 145.091 53.6882 143.186 53.2983L141.409 52.9403C140.495 52.7422 140.156 52.429 140.163 51.956C140.156 51.3679 140.821 50.9844 141.665 50.9844C142.611 50.9844 143.173 51.5021 143.308 52.1349L145.801 51.9815Z" fill="#4079A2"/>
<path d="M39.1468 289.909H36.379V303H39.1468V289.909ZM53.4537 296.455C53.4537 292.172 50.7947 289.73 47.3238 289.73C43.8337 289.73 41.1938 292.172 41.1938 296.455C41.1938 300.718 43.8337 303.179 47.3238 303.179C50.7947 303.179 53.4537 300.737 53.4537 296.455ZM50.6476 296.455C50.6476 299.229 49.3309 300.731 47.3238 300.731C45.3103 300.731 43.9999 299.229 43.9999 296.455C43.9999 293.68 45.3103 292.178 47.3238 292.178C49.3309 292.178 50.6476 293.68 50.6476 296.455ZM54.4253 292.191H58.4332V303H61.1689V292.191H65.1768V289.909H54.4253V292.191ZM67.5866 303L68.5582 300.015H73.2819L74.2535 303H77.2194L72.7066 289.909H69.1398L64.6206 303H67.5866ZM69.2613 297.854L70.8721 292.901H70.9743L72.5851 297.854H69.2613ZM93.9106 289.909H91.1556V298.142H91.0406L85.39 289.909H82.961V303H85.7288V294.761H85.8247L91.52 303H93.9106V289.909ZM100.621 303.192C103.05 303.192 104.686 302.009 105.07 300.188L102.551 300.021C102.276 300.769 101.573 301.159 100.665 301.159C99.3039 301.159 98.441 300.258 98.441 298.794V298.788H105.127V298.04C105.127 294.703 103.107 293.054 100.512 293.054C97.6228 293.054 95.7499 295.106 95.7499 298.136C95.7499 301.249 97.5972 303.192 100.621 303.192ZM98.441 297.1C98.4985 295.982 99.3486 295.087 100.557 295.087C101.739 295.087 102.557 295.93 102.564 297.1H98.441ZM112.126 293.182H110.279V290.83H107.556V293.182H106.214V295.227H107.556V300.341C107.543 302.265 108.854 303.217 110.829 303.134C111.532 303.109 112.03 302.968 112.305 302.879L111.877 300.852C111.743 300.878 111.455 300.942 111.199 300.942C110.656 300.942 110.279 300.737 110.279 299.983V295.227H112.126V293.182ZM115.837 303H118.713L120.401 296.825H120.522L122.21 303H125.093L127.758 293.182H125.009L123.514 299.74H123.431L121.82 293.182H119.116L117.531 299.778H117.441L115.92 293.182H113.165L115.837 303ZM133.401 303.192C136.379 303.192 138.233 301.153 138.233 298.129C138.233 295.087 136.379 293.054 133.401 293.054C130.422 293.054 128.568 295.087 128.568 298.129C128.568 301.153 130.422 303.192 133.401 303.192ZM133.413 301.082C132.039 301.082 131.336 299.823 131.336 298.11C131.336 296.397 132.039 295.131 133.413 295.131C134.762 295.131 135.465 296.397 135.465 298.11C135.465 299.823 134.762 301.082 133.413 301.082ZM140.004 303H142.727V297.445C142.727 296.237 143.609 295.406 144.81 295.406C145.188 295.406 145.705 295.47 145.961 295.553V293.137C145.718 293.08 145.379 293.041 145.104 293.041C144.005 293.041 143.104 293.68 142.746 294.895H142.644V293.182H140.004V303ZM147.369 303H150.092V299.881L150.827 299.043L153.505 303H156.695L152.866 297.433L156.509 293.182H153.384L150.239 296.908H150.092V289.909H147.369V303Z" fill="#4079A2"/>
</g>
<defs>
<clipPath id="clip0_157:1583">
<rect width="1513" height="452" fill="white"/>
</clipPath>
</defs>
</svg>
